<?xml version="1.0" encoding="UTF-8" standalone="no"?>
<svg
   xmlns:dc="http://purl.org/dc/elements/1.1/"
   xmlns:cc="http://creativecommons.org/ns#"
   xmlns:rdf="http://www.w3.org/1999/02/22-rdf-syntax-ns#"
   xmlns:svg="http://www.w3.org/2000/svg"
   xmlns="http://www.w3.org/2000/svg"
   height="39.988983"
   width="43.5"
   xml:space="preserve"
   enable-background="new 0 0 43.5 49.4"
   viewBox="0 0 43.5 49.988984"
   y="0px"
   x="0px"
   id="Layer_1"
   version="1.1"><metadata
     id="metadata13"><rdf:RDF><cc:Work
         rdf:about=""><dc:format>image/svg+xml</dc:format><dc:type
           rdf:resource="http://purl.org/dc/dcmitype/StillImage" /><dc:title></dc:title></cc:Work></rdf:RDF></metadata><defs
     id="defs11" /><g
     id="g6"><polygon
       style="fill:#ffffff"
       id="polygon2"
       points="43.5,0 23.7,0 23.7,4.9 25.5,4.9 25.5,24.2 23.7,24.2 23.7,29.1 32.8,29.1 32.8,24.2 31.1,24.2 31.1,16.7 37.9,16.7 37.9,11.8 31.1,11.8 31.1,4.9 38.6,4.9 38.6,7.6 43.5,7.6 " /><path
       style="fill:#ffffff"
       id="path4"
       d="M 21.1,18.1 V 4.9 h 1.8 V 0 h -9.2 v 4.9 h 1.8 v 11.6 c 0,4.9 -0.6,7.2 -4,7.2 -3.4,0 -4,-2.3 -4,-7.2 V 4.9 H 9.3 V 0 H 0 v 4.9 h 1.8 v 13.2 c 0,2.9 0,5.3 1.4,7.4 1.5,2.4 4.3,3.9 8.3,3.9 7.1,0 9.6,-3.7 9.6,-11.3 z" /></g><rect
     y="30.39661"
     x="0.12457627"
     height="9.5923729"
     width="43.352543"
     id="rect1392"
     style="fill:#ffeeaa;fill-opacity:1;stroke:#ec4d27;stroke-width:0;stroke-miterlimit:4;stroke-dasharray:none;stroke-opacity:1" /></svg>
