<svg style="position: absolute; width: 0; height: 0; overflow: hidden;" version="1.1" xmlns="http://www.w3.org/2000/svg" xmlns:xlink="http://www.w3.org/1999/xlink">
<!-- Inline SVG with <image> fallback for older browsers -->
<symbol id="uflogo" viewBox="0 0 125 125">
	<title>University of Florida Logo</title>
	<g fill="none" fill-rule="evenodd">
	<path fill="#F45A1D" d="M0 125h125V0H0z"/>
	<path fill="#FFF" d="M78.042 78.347V65.89h11.48v-8.213h-11.48V46.04h12.603v4.515h8.314v-12.66H65.672v8.145h3.118v32.307h-3.106v8.212h15.362v-8.212zM61.343 68.167v-22.13h3.076v-8.143H49.023v8.144h3.002v19.377c0 8.124-.94 12.025-6.772 12.025-5.833 0-6.772-3.901-6.772-12.025V46.038h2.98v-8.144H26.04v8.144h3.056v22.129c0 4.832 0 8.794 2.28 12.35 2.547 4.03 7.172 6.59 13.876 6.59 11.867 0 16.09-6.185 16.09-18.94"/>
	</g>
   <image src="<?php echo get_stylesheet_directory_uri() . '/assets/images/logos/uflogo.png' ?>" xlink:href="">
</symbol>

<symbol id="uflogo-go-greater" viewBox="0 0 180 180">
	<title>University of Florida Go Greater Logo</title>
	<g fill="#99D0DF" fill-rule="evenodd">
		<path d="M97.336 159.096v-7.53l-7.674-4.894-7.672 4.894v7.53l-.687-.082a69.862 69.862 0 0 1-5.742-.937c-15.428-3.188-29.473-11.692-39.549-23.945a69.41 69.41 0 0 1-11.628-20.34c-2.792-7.651-4.208-15.7-4.208-23.923 0-18.603 7.228-36.093 20.353-49.248 13.123-13.154 30.573-20.4 49.133-20.4 18.562 0 36.012 7.246 49.135 20.4 13.125 13.155 20.353 30.645 20.353 49.248 0 8.244-1.423 16.312-4.23 23.982a69.398 69.398 0 0 1-11.684 20.375c-10.127 12.271-24.232 20.76-39.716 23.901a69.78 69.78 0 0 1-5.497.887l-.687.082zM89.662 21.453c-18.231 0-35.373 7.117-48.265 20.039-12.893 12.922-19.992 30.103-19.992 48.377a68.37 68.37 0 0 0 4.132 23.5 68.184 68.184 0 0 0 11.424 19.98c9.898 12.037 23.694 20.391 38.848 23.522 1.63.337 3.292.617 4.953.834v-6.815l8.9-5.676 8.902 5.676v6.815a67.951 67.951 0 0 0 4.712-.785c15.209-3.084 29.065-11.423 39.013-23.48a68.185 68.185 0 0 0 11.478-20.013 68.358 68.358 0 0 0 4.154-23.558c0-18.274-7.099-35.455-19.992-48.377-12.892-12.922-30.034-20.04-48.267-20.04zM28.53 45.044a2.152 2.152 0 1 1-4.304 0 2.152 2.152 0 0 1 4.304 0M18.719 63.81a2.073 2.073 0 1 1-4.147 0 2.073 2.073 0 0 1 4.147 0M14.35 84.514a1.994 1.994 0 1 1-3.987 0 1.994 1.994 0 0 1 3.987 0M15.682 105.61a1.915 1.915 0 1 1-3.83 0 1.915 1.915 0 0 1 3.83 0M22.648 125.541a1.833 1.833 0 1 1-3.67 0 1.835 1.835 0 0 1 3.67 0M34.73 142.906a1.754 1.754 0 1 1-3.51 0 1.754 1.754 0 0 1 3.51 0M50.996 156.21a1.676 1.676 0 1 1-3.35 0 1.676 1.676 0 0 1 3.35 0M70.257 164.658a1.594 1.594 0 1 1-3.19 0 1.594 1.594 0 0 1 3.19 0M150.794 45.044a2.153 2.153 0 1 0 4.305 0 2.153 2.153 0 0 0-4.305 0M160.606 63.81a2.073 2.073 0 1 0 4.145.001 2.073 2.073 0 0 0-4.145-.001M164.974 84.514a1.994 1.994 0 1 0 3.987 0 1.994 1.994 0 0 0-3.987 0M163.642 105.61a1.915 1.915 0 1 0 3.83 0 1.915 1.915 0 0 0-3.83 0M156.676 125.541a1.834 1.834 0 1 0 3.668 0 1.834 1.834 0 0 0-3.668 0M144.595 142.906a1.754 1.754 0 1 0 3.509 0 1.754 1.754 0 0 0-3.51 0M128.328 156.21a1.676 1.676 0 1 0 3.35 0 1.676 1.676 0 0 0-3.35 0M109.068 164.658a1.594 1.594 0 1 0 3.189 0 1.594 1.594 0 0 0-3.189 0"/><path d="M98.564 152.35l-9.515-6.07v-12.819l9.515 6.069v12.82zm-8.287-6.745l7.058 4.502v-9.9l-7.058-4.502v9.9z"/><path d="M80.762 152.35v-12.82l9.516-6.069v12.82l-9.516 6.07zm1.228-12.143v9.9l7.058-4.502v-9.9l-7.058 4.502z"/><path d="M81.376 142.372a.615.615 0 0 1-.615-.616v-6.23a.615.615 0 1 1 1.229 0v6.23c0 .34-.274.616-.614.616M89.663 136.142a.615.615 0 0 1-.615-.616v-5.285a.615.615 0 1 1 1.229 0v5.285c0 .34-.274.616-.614.616M97.95 142.372a.615.615 0 0 1-.615-.616v-6.23a.615.615 0 1 1 1.229 0v6.23c0 .34-.275.616-.614.616M95.187 149.99a.615.615 0 0 1-.614-.616v-6.176a.613.613 0 1 1 1.229 0v6.176c0 .34-.275.616-.615.616M92.425 148.174a.615.615 0 0 1-.615-.615v-6.177a.615.615 0 1 1 1.229 0v6.177c0 .34-.274.615-.614.615M86.9 148.174a.615.615 0 0 1-.614-.615v-6.177a.615.615 0 1 1 1.229 0v6.177c0 .34-.275.615-.615.615M84.138 149.99a.615.615 0 0 1-.614-.616v-6.176a.613.613 0 1 1 1.229 0v6.176c0 .34-.276.616-.615.616M89.663 172.85a.615.615 0 0 1-.615-.615v-26.292a.615.615 0 1 1 1.229 0v26.292c0 .34-.274.615-.614.615"/><path d="M89.663 179.74c-12.104 0-23.847-2.377-34.901-7.063-10.677-4.527-20.266-11.006-28.5-19.26-8.234-8.253-14.7-17.864-19.216-28.566C2.37 113.77 0 102.002 0 89.87c0-12.134 2.37-23.903 7.046-34.984 4.517-10.7 10.982-20.312 19.215-28.564 8.235-8.254 17.824-14.734 28.5-19.26C65.817 2.377 77.56 0 89.664 0c12.104 0 23.847 2.377 34.9 7.063 10.677 4.526 20.267 11.006 28.501 19.26 8.234 8.252 14.699 17.864 19.215 28.564 4.676 11.081 7.046 22.85 7.046 34.983 0 12.132-2.37 23.901-7.046 34.98-4.516 10.703-10.981 20.314-19.215 28.567-8.234 8.254-17.824 14.733-28.5 19.26-11.054 4.686-22.797 7.062-34.901 7.062m0-178.507c-11.94 0-23.521 2.343-34.423 6.965-10.53 4.465-19.988 10.855-28.11 18.997-8.122 8.139-14.499 17.62-18.952 28.174-4.61 10.927-6.95 22.535-6.95 34.502 0 11.966 2.34 23.574 6.95 34.501 4.453 10.555 10.83 20.036 18.952 28.176 8.122 8.14 17.58 14.53 28.11 18.996 10.902 4.622 22.483 6.965 34.423 6.965 11.939 0 23.52-2.343 34.422-6.965 10.531-4.465 19.988-10.856 28.11-18.996 8.122-8.14 14.499-17.621 18.952-28.176 4.611-10.927 6.95-22.535 6.95-34.5 0-11.968-2.339-23.576-6.95-34.503-4.453-10.554-10.83-20.035-18.951-28.174-8.123-8.142-17.58-14.532-28.11-18.997-10.903-4.622-22.484-6.965-34.423-6.965"/><path d="M97.95 176.97a.613.613 0 0 1-.615-.616v-17.951h1.229v17.271c20.957-2.159 40.33-11.944 54.62-27.604 14.535-15.928 22.54-36.598 22.54-58.2 0-11.645-2.275-22.942-6.763-33.576-4.333-10.272-10.539-19.497-18.444-27.42-7.904-7.922-17.107-14.141-27.355-18.485-10.61-4.499-21.88-6.78-33.499-6.78-11.618 0-22.89 2.281-33.499 6.78-10.248 4.344-19.452 10.563-27.356 18.486-7.903 7.922-14.109 17.147-18.444 27.419C5.876 66.928 3.6 78.224 3.6 89.869c0 21.603 8.005 42.273 22.54 58.2 14.29 15.66 33.665 25.446 54.62 27.605v-17.271h1.229v17.95a.621.621 0 0 1-.2.456.618.618 0 0 1-.472.158C59.8 174.92 39.884 164.953 25.235 148.9 10.492 132.745 2.372 111.78 2.372 89.869c0-11.81 2.309-23.269 6.86-34.055 4.397-10.418 10.69-19.775 18.708-27.81 8.017-8.035 17.351-14.344 27.745-18.75 10.762-4.562 22.194-6.876 33.978-6.876 11.783 0 23.215 2.314 33.977 6.877 10.394 4.405 19.73 10.714 27.747 18.749 8.016 8.035 14.31 17.392 18.706 27.81 4.552 10.786 6.86 22.245 6.86 34.055 0 21.911-8.12 42.876-22.862 59.032-14.648 16.052-34.565 26.02-56.084 28.066a.853.853 0 0 1-.057.002"/><path d="M38.864 67.813l4.28.004-.025 31.09c-.005 6.789-.009 12.351 3.182 17.352 3.566 5.66 10.046 9.265 19.442 9.272h.04c16.605 0 22.52-8.684 22.535-26.588l.025-31.09 4.311.004.009-11.44-21.58-.017-.009 11.44 4.208.002-.022 27.224c-.01 11.403-1.328 16.886-9.49 16.886h-.014c-8.176-.006-9.487-5.492-9.477-16.901l.023-27.224 4.174.003.01-11.439-21.613-.018-.009 11.44zm89.927 6.42l.005-6.343-17.665-.016-.014 16.348 16.088.012-.009 11.54-16.088-.015-.015 17.502 4.213.004-.008 11.537-21.535-.017.009-11.538 4.354.004.036-45.387-4.368-.003.01-11.442 46.652.037-.014 17.785-11.65-.009zM43.56 116.323H25.79l.807 1.119H44.21a19.97 19.97 0 0 1-.652-1.12"/><path d="M78.588 153.52c-3.811-2.4-8.22-5.572-12.612-9.613-.242-.224-.487-.455-.732-.686h11.198a76.906 76.906 0 0 0 2.146 3.863v-2.206a75.75 75.75 0 0 1-.902-1.657h.902v-1.117h-1.481c-2.057-4.045-4.072-8.868-5.803-14.531-.365.05-.741.089-1.118.128 1.695 5.578 3.666 10.36 5.686 14.403h-11.79c-4.757-4.673-9.733-10.754-13.733-18.342a21.123 21.123 0 0 1-2.04-1.548c4.004 8.235 9.178 14.827 14.19 19.89H44.645l.807 1.117h18.176a81.423 81.423 0 0 0 1.621 1.537c4.664 4.286 9.352 7.612 13.34 10.082v-1.32zM158.507 91.661v-1.119h-20.535l.002-.157c0-4.892-.453-9.465-1.245-13.747h-1.14a74.136 74.136 0 0 1 1.266 13.747l-.002.157H129.6l-.001 1.12h7.236c-.15 9.342-1.938 17.544-4.676 24.66h-14.455l-.001 1.12h14.01c-4.296 10.61-10.665 18.755-16.678 24.66H103.25c2.081-4.162 4.108-9.111 5.836-14.904l-1.163-.001c-1.756 5.824-3.815 10.772-5.916 14.906h-1.39v1.119h.81c-.27.51-.54 1.004-.81 1.489v2.233a75.934 75.934 0 0 0 2.064-3.722h11.193c-.244.23-.49.462-.731.685-4.36 4.01-8.735 7.164-12.526 9.558v1.32c3.97-2.464 8.622-5.772 13.252-10.026a85.235 85.235 0 0 0 1.621-1.537h17.959l1.615-1.12h-18.445c5.948-6.006 12.128-14.155 16.302-24.66h19.578l.808-1.12h-19.948c2.695-7.139 4.448-15.34 4.596-24.66h20.553zM40.726 90.543H20.818v1.119h19.907zM153.337 64.762H142.85l-.001 1.12h11.296zM36.466 64.762H25.791l-.808 1.12h11.483zM65.973 37.225c8.202-7.422 16.475-11.841 20.768-13.85-2.59 2.628-6.823 7.643-10.864 15.607H64.096a81.078 81.078 0 0 1 1.877-1.757zM89.004 22.75v16.232h-11.88c4.84-9.367 9.881-14.443 11.88-16.232zm1.119-.001c1.999 1.785 7.046 6.858 11.886 16.233H90.123V22.749zm22.99 14.448c.632.569 1.268 1.165 1.91 1.785h-11.778C99.207 31.022 94.98 26.01 92.39 23.38c4.29 2.007 12.536 6.415 20.724 13.817zM50.817 53.982l1.3.001c3.315-5.522 7.12-10.129 10.846-13.882H75.32c-1.92 3.933-3.776 8.547-5.368 13.897l1.134.002h.027c1.62-5.379 3.505-9.99 5.445-13.9h12.446v13.914h1.119V40.102h12.453c1.942 3.914 3.828 8.535 5.448 13.929l1.154.001c-1.594-5.365-3.453-9.99-5.375-13.93h12.353c3.741 3.767 7.559 8.397 10.88 13.944l1.301.001c-3.226-5.504-6.94-10.135-10.619-13.945h19.336l-.808-1.12h-19.629a78.844 78.844 0 0 0-2.753-2.614c-10.75-9.717-21.64-14.358-23.741-15.2v-.335h-1.119v.331c-2.08.833-12.988 5.473-23.75 15.204a79.981 79.981 0 0 0-2.753 2.615H42.85l-.808 1.119H61.4c-3.664 3.796-7.365 8.404-10.584 13.881zM44.436 32.11c-.677 1.866-1.429 2.925-2.495 3.871-2.054 1.827-4.462 1.788-6.394-.386-1.962-2.208-1.846-4.529.317-6.451.848-.754 2.166-1.614 3.565-2.097l.952 2.188c-1.066.616-1.748 1.01-2.53 1.705-.838.744-.84 1.64.01 2.597.812.913 1.741 1.06 2.469.413.37-.329.69-.67 1.124-1.232l-.368-.413-1.282 1.14-1.362-1.533 3.25-2.889 2.744 3.088zM51.64 23.404c-.66-1.096-1.479-1.298-2.312-.795-.834.504-1.037 1.32-.376 2.417.632 1.045 1.442 1.235 2.275.733.834-.504 1.044-1.31.413-2.355m2.651-1.6c1.502 2.49.825 4.8-1.652 6.293-2.476 1.496-4.835 1.017-6.338-1.471-1.525-2.528-.862-4.863 1.615-6.357 2.477-1.494 4.85-.992 6.375 1.535M74.405 18.024c-1.429 1.38-2.57 2-3.945 2.382-2.65.736-4.797-.359-5.578-3.163-.791-2.846.335-4.882 3.125-5.657 1.093-.304 2.657-.497 4.126-.316l-.106 2.385c-1.231.086-2.017.139-3.026.42-1.08.299-1.475 1.105-1.132 2.338.328 1.177 1.098 1.718 2.037 1.458.477-.134.914-.3 1.552-.613l-.149-.533-1.654.46-.55-1.977 4.192-1.166 1.108 3.982zM82.7 13.514c.624-.058.937-.453.876-1.105-.054-.579-.461-.862-1.128-.8l-.912.086.18 1.912.985-.093zm-.515-4.393c2.607-.245 4.184.834 4.389 3.006.12 1.289-.22 2.183-1.074 2.878l1.856 2.323.02.217-3.215.303-1.4-1.987-.826.078.198 2.1-3.041.286-.832-8.834 3.925-.37zM91.467 17.57l.61-8.858 6.911.476-.172 2.511-3.906-.268-.057.813 3.297.227-.151 2.193-3.297-.227-.056.827 4.022.277-.173 2.512zM109.01 14.605a8.884 8.884 0 0 1-.014-1.084c-.13.282-.297.585-.522.95l-.921 1.523 1.552.39-.095-1.78zm-3.474 4.711l-3.106-.778 5.12-7.87 4.066 1.019.81 9.353-3.106-.777-.072-1.278-3.049-.763-.663 1.094zM122.413 18.585l-2.422 5.593-2.803-1.213 2.422-5.594-2.31-1 1.104-2.55 7.423 3.215-1.105 2.549zM125.928 27.174l4.792-7.463 5.824 3.74-1.359 2.116-3.292-2.114-.439.686 2.777 1.783-1.186 1.848-2.777-1.783-.448.696 3.389 2.177-1.358 2.117zM141.261 32.956c.466.419.968.381 1.406-.105.39-.433.324-.924-.175-1.372l-.68-.613-1.286 1.428.735.662zm2.885-3.356c1.946 1.753 2.22 3.644.76 5.267-.867.963-1.755 1.318-2.845 1.158l-.455 2.94-.146.162-2.4-2.16.515-2.377-.617-.555-1.413 1.568-2.27-2.045 5.94-6.596 2.931 2.638z"/>
	</g>
</symbol>

<symbol id="college-logo" viewBox="0 0 726 48">
	<title>College of Liberal Arts and Sciences Logo</title>
	<defs>
	<path id="a" d="M.363 1.325h34.17v47.079H.363z"/>
	<path id="b" d="M1.177.298H25.4V31.25H1.177z"/>
	</defs>
	<g fill="none" fill-rule="evenodd">
	<path d="M11.16 2.797h10.381c.216 0 .216 1.297 0 1.297-5.839 0-6.415.072-6.633.29-.289.287-.36 2.234-.43 12.11 0 5.911-.074 8.866-.074 19.897 0 6.56.073 8.002.289 8.217.287.288 1.442.433 6.344.433 6.27 0 8.218-.433 9.659-1.801 1.37-1.37 2.739-4.543 4.975-13.77.144-.288 1.153-.216 1.153 0-.072 4.903-.289 12.471-.576 16.653 0 .36-.146.578-.794.578-5.55-.218-10.814-.146-18.238-.146-8.003 0-12.615 0-17.086.072-.215 0-.143-1.369.072-1.369 5.48-.073 6.272-.073 6.49-.289.215-.215.287-1.225.287-5.767.072-8.65.217-17.734.217-25.736 0-6.631-.072-8.795-.361-9.083-.29-.289-1.227-.36-6.2-.432-.217 0-.144-1.297.072-1.297 3.172.072 7.786.143 10.453.143M48.714 9.862c-2.234 0-3.965-2.09-3.965-4.109 0-1.225.432-2.163 1.154-2.884.792-.864 1.874-1.37 3.388-1.37 2.092 0 3.894 1.73 3.894 3.821 0 2.378-2.308 4.542-4.47 4.542M39.99 46.555c-.216 0-.288-1.225 0-1.225 4.037-.072 5.119-.072 5.408-.36.287-.289.359-1.083.432-3.03.072-2.45.072-4.109.072-6.342 0-2.739-.145-9.804-.287-13.336 0-1.3-.146-2.018-.435-2.307-.287-.29-.864-.29-5.406-.36-.215 0-.215-1.226 0-1.226 3.749-.074 10.166-.216 11.678-.216.505 0 .722.142.722.648-.073 4.038 0 12.399 0 17.446 0 6.776.288 8.434.575 8.723.29.288 1.155.36 5.047.36.361 0 .361 1.296 0 1.296-1.44 0-16.723-.071-17.806-.071M69.66 25.217c-.865 1.802-1.152 3.316-1.152 6.488 0 7.714.215 9.732.722 10.668.646 1.37 3.89 3.388 6.557 3.388 2.525 0 4.399-1.225 5.77-3.892 1.08-2.163 1.729-5.335 1.729-9.947 0-4.831-.649-8.147-1.586-10.02-.938-1.875-2.163-2.885-4.47-2.885-3.316 0-6.055 3.244-7.57 6.2m-2.307 18.311c-.36 0-1.44.936-4.397 3.964-.287.288-1.08.145-1.08-.289.143-3.675.288-11.1.288-20.328 0-5.406-.145-12.544-.288-19.752-.073-3.46-.145-4.542-.36-4.757-.218-.218-.72-.218-4.686-.218-.29 0-.29-1.226 0-1.226C60.65.85 66.2.634 68.219.562c.504 0 .576.288.576.722 0 1.585-.215 21.338-.215 23.211l.071.074c2.02-4.038 5.191-7.499 9.588-7.499 3.389 0 6.344 1.66 8.65 3.966 2.451 2.522 3.894 5.839 3.894 10.019 0 4.903-2.307 9.012-5.191 11.897-2.739 2.739-5.839 4.325-9.37 4.325-5.047 0-8.219-3.749-8.869-3.749M103.776 21.685c-1.153 2.308-1.586 5.189-1.73 8.722l14.635-.072c-.434-8.361-2.595-11.822-7.426-11.822-2.74 0-4.686 1.512-5.479 3.172m19.393 16.869c-2.308 6.271-7.57 9.01-12.4 9.01-4.758 0-9.083-1.946-12.038-4.901-2.597-2.595-4.183-5.84-4.183-10.453 0-3.82 1.803-7.64 4.255-10.166 2.955-2.954 6.56-4.973 10.956-4.973 4.327 0 7.788 1.873 10.094 4.181 2.019 2.019 3.748 5.622 3.82 9.948 0 .36-.145.505-.431.577-11.68-.072-17.447.072-21.195.217 0 4.613.648 7.497 1.586 9.444 1.44 2.81 3.676 4.323 7.857 4.323 4.615 0 8.22-2.593 10.308-7.784.29-.289 1.444.216 1.37.577M130.114 44.97c.215-.218.36-2.667.433-4.47 0-2.594 0-9.444-.072-12.616 0-5.408-.361-7.569-.65-7.858-.288-.288-.864-.288-4.828-.36-.29 0-.29-1.296.071-1.296 2.883 0 9.155-.218 10.741-.218 1.01 0 1.153.144 1.153 1.08-.072 1.805-.144 5.48-.144 8.147h.144c2.306-5.406 4.903-9.875 9.083-9.875 3.75 0 6.128 2.305 6.128 5.117 0 2.957-2.162 4.686-4.181 4.686-2.09 0-3.603-1.298-3.603-3.315 0-2.452 1.945-3.39 1.945-3.966 0-.288-.36-.577-1.225-.577-2.234 0-4.542 2.885-6.272 6.488-1.37 2.74-1.875 4.686-1.875 7.065v6.56c.074 3.317.216 5.047.505 5.334.145.217 1.298.217 5.551.363.36 0 .36 1.368.072 1.368h-18.454c-.218 0-.29-1.298 0-1.298 4.686-.07 5.262-.144 5.478-.36M161.16 39.635c0 3.533 1.153 5.478 3.748 5.478 2.884 0 6.272-2.81 6.922-4.253.287-.505.36-.936.43-3.172.073-2.09.073-2.884.146-6.2-9.445.794-11.247 2.308-11.247 8.147m.146-18.744c0 .794 2.81 1.01 2.81 3.82 0 2.02-1.587 3.534-3.748 3.534-2.09 0-3.748-1.515-3.748-3.677 0-1.44.576-2.667 1.728-3.748 1.875-1.802 4.831-3.461 9.084-3.461 4.399 0 7.208 1.298 9.083 3.243 1.875 1.875 2.523 4.038 2.523 7.425 0 3.607-.215 9.878-.215 14.778 0 1.732.503 2.38 1.73 2.38 1.585 0 3.026-1.586 3.748-5.19.144-.216 1.081-.07 1.081.217-.65 4.036-2.884 7.065-6.704 7.065-3.605 0-5.911-1.947-6.632-4.83-2.38 2.738-5.407 4.685-9.01 4.757-4.254.073-8.652-2.884-8.652-7.21 0-1.801.65-3.459 2.162-4.901 2.378-2.452 6.633-4.253 15.861-4.902.07-.939 0-3.028 0-5.045 0-2.74-.36-4.11-1.298-5.048-.794-.793-2.306-1.37-4.397-1.37-3.244 0-5.406 1.659-5.406 2.163M198.052.779c.577 0 .72.289.72.865-.072 7.497-.143 13.696-.143 21.483 0 7.208-.072 13.19-.144 18.96 0 1.801.215 2.521.576 2.882.29.216.577.361 4.902.433.216 0 .289 1.299 0 1.299-6.344-.218-10.381-.218-17.084-.218-.218 0-.146-1.298.071-1.298 3.893 0 4.47-.072 4.686-.29.216-.213.216-.576.216-1.727.072-3.461.217-10.166.217-14.706 0-9.877 0-16.366-.145-24.15 0-1.297 0-1.658-.216-1.874-.217-.217-.65-.217-4.83-.434-.288-.072-.288-1.225.072-1.225 4.108.072 6.775.072 11.102 0M243.246 10.294c-3.244 7.642-6.487 14.924-9.01 20.761 4.396.217 12.254.362 16.579.362-2.017-6.128-5.333-15.284-7.423-21.123h-.146zm-17.445 33.74c.792-.795 1.73-2.237 2.884-4.687 5.983-12.905 11.966-26.24 16.363-37.703.145-.145.506-.289 1.37-.289 1.225 0 1.442.144 1.514.433 1.947 5.839 4.975 14.851 13.192 37.342 1.227 3.46 1.803 4.614 2.668 5.478.648.65 1.298.722 5.478.938.217 0 .217 1.226 0 1.226-4.036-.072-6.993-.217-9.875-.217-3.317 0-5.263-.072-9.516.072-.145 0-.217-1.225 0-1.225 3.46-.217 4.325-.361 4.684-.794.361-.289.435-.864 0-2.45-.646-1.947-2.017-5.84-3.243-9.228-1.225-.072-5.118-.144-10.813-.144-2.739 0-4.542 0-6.56.072-.288 0-.576 0-.721.361-1.153 2.523-1.802 4.181-2.883 6.992-.433 1.227-.722 2.38-.722 3.1 0 1.586.65 1.802 5.48 2.09.144 0 .072 1.226-.073 1.226-3.891-.144-10.165-.144-14.705 0-.145 0-.145-1.153 0-1.153 3.748-.216 4.469-.433 5.478-1.44zM276.914 44.97c.216-.218.361-2.667.433-4.47 0-2.594 0-9.444-.072-12.616 0-5.408-.36-7.569-.65-7.858-.288-.288-.864-.288-4.83-.36-.287 0-.287-1.296.074-1.296 2.883 0 9.154-.218 10.74-.218 1.01 0 1.154.144 1.154 1.08-.072 1.805-.144 5.48-.144 8.147h.143c2.307-5.406 4.904-9.875 9.083-9.875 3.75 0 6.128 2.305 6.128 5.117 0 2.957-2.162 4.686-4.18 4.686-2.091 0-3.606-1.298-3.606-3.315 0-2.452 1.946-3.39 1.946-3.966 0-.288-.36-.577-1.224-.577-2.236 0-4.542 2.885-6.272 6.488-1.37 2.74-1.875 4.686-1.875 7.065v6.56c.072 3.317.216 5.047.505 5.334.144.217 1.297.217 5.552.363.36 0 .36 1.368.07 1.368h-18.455c-.215 0-.287-1.298 0-1.298 4.688-.07 5.264-.144 5.48-.36M314.959 47.132c-3.028 0-5.19-.938-6.777-2.524-1.297-1.296-1.947-2.882-1.947-6.054 0-4.686.072-12.905.217-18.6-.432-.07-4.325-.07-5.118-.07-.361 0-.288-1.37-.072-1.37 4.325-.218 5.623-.579 6.633-1.587 1.44-1.37 3.387-5.408 4.108-8.94.071-.36 1.154-.36 1.226 0-.217 2.453-.217 8.001-.289 10.309 2.884.073 7.642.073 8.794.073.434 0 .289 1.514-.07 1.514-5.696 0-7.93.07-8.724.143-.144 2.667-.288 10.668-.288 16.509 0 4.973.144 5.767.577 6.705.505 1.008 1.73 1.801 3.316 1.801 2.306 0 4.326-2.378 5.55-7.136.073-.289 1.298-.073 1.226.288-1.226 5.912-4.181 8.939-8.362 8.939M348.486 43.816c-2.236 2.163-5.767 3.244-8.939 3.244-5.767 0-8.508-2.019-9.3-2.019-.36 0-.866.792-1.514 2.452-.144.287-1.153.215-1.153-.072a245.761 245.761 0 0 0-.72-10.599c0-.287 1.153-.43 1.225-.142.865 2.667 1.946 5.045 3.315 6.414 1.73 1.731 4.758 2.596 7.931 2.596 2.668 0 4.47-.577 5.55-1.585.649-.722 1.227-1.948 1.227-3.533 0-2.453-1.803-3.678-8.147-5.334-4.831-1.298-7.064-2.236-8.506-3.678-1.153-1.153-1.802-2.74-1.802-4.613 0-5.407 4.9-9.372 10.596-9.372 4.398 0 7.498 2.308 8.218 2.308.361 0 .577-.578 1.586-3.03.072-.215 1.082-.143 1.153.074-.215 3.244-.215 6.344-.143 9.66 0 .504-1.082.504-1.299.143-.936-2.378-1.873-4.108-2.956-5.117-1.513-1.588-3.531-2.669-6.775-2.669-2.09 0-3.677.65-4.684 1.66-.722.72-1.227 1.801-1.227 3.026 0 2.74 2.09 3.82 8.361 5.408 4.975 1.297 7.21 2.306 8.652 3.82 1.298 1.297 1.946 2.885 1.946 4.83 0 2.595-1.154 4.614-2.595 6.128" fill="#FFF"/>
	<path d="M376.847 35.203c-1.681 3.423-2.163 5.645-2.163 7.207 0 2.163 1.443 3.424 3.364 3.424 3.124 0 7.929-4.385 10.272-9.13 2.343-4.684 3.724-8.589 3.724-9.61 0-1.442-1.502-3.304-3.724-3.304-4.806 0-8.41 5.286-11.473 11.413m15.978-9.61c.66-1.323 1.44-2.884 1.681-2.884.36 0 2.883.42 3.005.542.119.119.3 1.019.237 1.2-.718 1.622-4.203 10.031-6.185 15.197-.541 1.32-.9 3.183-.9 4.084 0 1.02.6 1.74 1.501 1.74 1.44 0 3.183-.84 6.727-5.345.121-.12.901.422.84.541-3.362 4.506-5.645 6.427-8.528 6.427-2.042 0-4.265-1.44-4.265-3.785 0-1.02.18-2.04.421-3.123-2.764 3.725-6.668 6.969-9.671 6.969-3.063 0-6.547-3.244-6.547-7.81 0-3.123 1.201-6.367 4.865-10.09 3.964-3.905 8.71-6.547 12.314-6.547 2.102 0 3.783 1.2 4.505 2.884M413.385 23.49c.182 0 .3.12.241.3-.42 1.26-2.522 7.089-3.123 8.589-.06.122.12.36.24.24 5.166-6.787 7.988-9.97 11.233-9.97 1.74 0 3.003.602 4.024 1.62 1.021 1.022 1.442 2.104 1.442 3.424 0 2.103-.722 3.486-2.944 8.11-2.163 4.565-2.883 6.307-2.883 7.57 0 1.08.781 1.86 1.742 1.86 1.802 0 3.964-1.742 6.666-4.804.122-.12.962.54.842.66-1.983 2.402-5.765 5.946-8.65 5.946-1.32 0-2.222-.42-3.123-1.32-.84-.84-1.261-1.863-1.261-3.245 0-1.2.6-3.244 2.822-7.808 2.284-4.686 2.884-6.188 2.884-7.628 0-1.441-.96-2.464-2.342-2.464-1.502 0-2.524.601-4.866 2.943-4.084 4.085-7.63 9.432-8.65 11.896-.901 2.28-2.103 4.925-2.944 7.026-.059.24-3.782.061-4.143.061-.12 0-.12-.122-.06-.301.78-1.743 4.985-11.232 5.886-13.394 2.222-5.588 2.642-7.81 2.522-7.93-.119-.12-5.525-.06-6.306-.12-.18 0-.061-1.081.12-1.081 3.424 0 10.331-.18 10.631-.18M439.148 33.58c-1.32 2.583-2.221 5.407-2.221 7.99 0 2.882 1.08 4.625 3.784 4.625 1.922 0 3.905-.782 6.545-3.424 2.164-2.162 3.425-3.905 4.988-7.748 1.381-3.303 2.583-6.068 2.701-6.67-.48-2.641-2.222-4.683-5.104-4.683-4.325 0-8.17 4.804-10.693 9.91m16.52-6.967c0 .06.118.119.179 0 2.403-5.887 3.966-9.731 6.186-15.437.301-.84.181-1.2.06-1.322-.179-.18-4.084-.3-6.666-.3-.18 0-.18-1.081.06-1.081 3.304 0 7.87.12 11.832.06.181 0 .36.18.301.36-5.104 12.014-7.748 18.381-13.215 30.934-.72 1.683-.961 2.703-.961 3.785 0 .96.54 1.801 1.501 1.801 1.442 0 2.824-.781 4.868-2.822.9-.903 1.44-1.442 2.22-2.464.122-.12.903.482.781.602-3.183 4.023-6.006 6.366-8.469 6.366-2.642 0-4.684-1.802-4.684-3.965 0-.66 0-.9.12-1.68-3.064 3.784-6.067 5.887-9.372 5.887-2.042 0-4.143-1.083-5.464-2.403-1.201-1.202-2.223-3.063-2.223-5.527 0-3.844 1.981-7.81 5.106-10.933 2.942-2.942 7.447-5.886 12.374-5.886 2.642 0 4.684 1.863 5.465 4.025" fill="#F45A1D"/>
	<path d="M513.13 2.149c.073-.217 1.082-.074 1.082.144-.36 4.542-.505 8.578-.144 14.201 0 .216-1.01.36-1.153.072-1.947-5.047-3.605-7.931-5.408-9.731-1.945-1.947-4.468-3.1-8.217-3.1-3.894 0-6.2 1.081-7.858 2.739-1.442 1.44-2.306 3.531-2.306 5.767 0 4.758 3.172 6.272 11.39 8.433 7.496 2.019 11.1 3.822 13.265 5.986 1.873 1.873 2.81 4.036 2.81 7.495 0 7.642-6.777 13.266-15.282 13.266-7.786 0-11.68-3.822-13.194-3.822-.936 0-2.09 1.297-3.098 3.244-.146.289-1.082.145-1.082-.143.144-5.048.144-9.084-.504-15.717 0-.287.936-.431 1.081-.143 2.811 6.417 4.54 9.371 6.56 11.389 2.234 2.236 5.838 3.678 10.092 3.678 3.604 0 6.271-.938 7.857-2.524 1.514-1.514 2.235-3.245 2.235-5.767 0-4.614-2.883-6.85-11.39-9.01-7.496-1.946-10.957-3.534-13.048-5.696-1.875-1.874-2.739-3.966-2.739-7.353 0-6.994 6.344-13.19 15.355-13.19 7.497 0 10.74 3.17 11.39 3.17.577 0 1.515-1.658 2.307-3.388M525.605 42.88c-2.378-2.379-4.18-5.624-4.18-10.095 0-3.818 1.585-7.568 4.469-10.523 2.81-2.812 6.487-4.975 11.389-4.975 6.487 0 11.534 3.892 11.534 7.858 0 2.81-1.945 4.397-4.037 4.397-2.09 0-3.677-1.586-3.677-3.388 0-1.081.29-1.873.866-2.523 1.153-1.155 2.74-1.01 3.028-1.297.577-.578-2.306-3.533-7.353-3.533-3.82 0-5.911 1.874-6.992 4.038-1.227 2.45-1.658 5.189-1.658 9.154 0 4.902.36 7.642 1.44 9.66 1.155 2.306 3.029 4.037 6.994 4.037 4.18 0 8.217-2.884 10.09-8.578.146-.578 1.517.07 1.371.577-2.017 5.982-6.487 9.73-12.472 9.73-4.18 0-8-1.729-10.812-4.54M559.707 9.862c-2.235 0-3.966-2.09-3.966-4.109 0-1.225.433-2.163 1.155-2.884.792-.864 1.873-1.37 3.387-1.37 2.092 0 3.894 1.73 3.894 3.821 0 2.378-2.308 4.542-4.47 4.542m-8.724 36.693c-.215 0-.287-1.225 0-1.225 4.038-.072 5.119-.072 5.408-.36.289-.289.36-1.083.433-3.03.072-2.45.072-4.109.072-6.342 0-2.739-.146-9.804-.29-13.336 0-1.3-.143-2.018-.432-2.307-.288-.29-.864-.29-5.406-.36-.216 0-.216-1.226 0-1.226 3.748-.074 10.165-.216 11.678-.216.504 0 .721.142.721.648-.073 4.038 0 12.399 0 17.446 0 6.776.288 8.434.575 8.723.29.288 1.155.36 5.047.36.361 0 .361 1.296 0 1.296-1.44 0-16.725-.071-17.806-.071M578.562 21.685c-1.153 2.308-1.586 5.189-1.73 8.722l14.635-.072c-.435-8.361-2.596-11.822-7.427-11.822-2.74 0-4.686 1.512-5.478 3.172m19.392 16.869c-2.306 6.271-7.569 9.01-12.4 9.01-4.758 0-9.083-1.946-12.037-4.901-2.597-2.595-4.182-5.84-4.182-10.453 0-3.82 1.803-7.64 4.253-10.166 2.955-2.954 6.56-4.973 10.958-4.973 4.325 0 7.786 1.873 10.092 4.181 2.02 2.019 3.749 5.622 3.82 9.948 0 .36-.145.505-.43.577-11.68-.072-17.447.072-21.196.217 0 4.613.649 7.497 1.586 9.444 1.442 2.81 3.677 4.323 7.858 4.323 4.614 0 8.219-2.593 10.31-7.784.287-.289 1.442.216 1.368.577M599.991 45.402c3.749-.072 4.47-.072 4.758-.29.288-.287.433-1.368.433-5.693V25.145c0-3.1-.217-4.83-.577-5.118-.217-.29-.937-.361-4.685-.433-.218 0-.218-1.225.071-1.225 3.244 0 8.507-.074 11.461-.074.435 0 .507.217.507.722-.072 1.803-.218 5.335-.288 7.138l.216.072c2.523-4.975 5.622-9.083 10.74-9.083 5.624 0 8.868 3.604 8.868 10.451 0 2.74-.072 6.2-.072 9.733 0 6.128.215 7.425.576 7.784.216.29.866.29 4.325.433.217 0 .217 1.155-.072 1.155-5.767-.145-10.525-.073-14.995-.073-.36 0-.287-1.154-.072-1.154 2.164-.143 3.028-.215 3.317-.43.288-.29.288-1.227.288-2.957 0-2.308-.072-14.419-.072-15.931 0-3.822-1.153-6.057-4.11-6.057-3.53 0-6.487 3.82-8.001 6.92-.794 1.515-1.01 2.452-1.01 4.976 0 2.162.074 6.776.144 9.37.072 2.524.146 3.39.361 3.606.216.214.72.36 4.325.503.216 0 .216 1.227-.143 1.227-4.613-.145-11.75-.145-16.22 0-.362-.073-.29-1.298-.073-1.298M641.106 42.88c-2.378-2.379-4.181-5.624-4.181-10.095 0-3.818 1.586-7.568 4.47-10.523 2.811-2.812 6.488-4.975 11.39-4.975 6.487 0 11.534 3.892 11.534 7.858 0 2.81-1.946 4.397-4.038 4.397-2.089 0-3.676-1.586-3.676-3.388 0-1.081.289-1.873.865-2.523 1.153-1.155 2.74-1.01 3.028-1.297.577-.578-2.306-3.533-7.353-3.533-3.82 0-5.91 1.874-6.992 4.038-1.226 2.45-1.658 5.189-1.658 9.154 0 4.902.36 7.642 1.44 9.66 1.156 2.306 3.03 4.037 6.995 4.037 4.18 0 8.217-2.884 10.09-8.578.146-.578 1.516.07 1.37.577-2.017 5.982-6.487 9.73-12.471 9.73-4.18 0-8-1.729-10.813-4.54M677.082 21.685c-1.153 2.308-1.586 5.189-1.73 8.722l14.635-.072c-.433-8.361-2.596-11.822-7.425-11.822-2.741 0-4.688 1.512-5.48 3.172m19.392 16.869c-2.306 6.271-7.569 9.01-12.4 9.01-4.756 0-9.083-1.946-12.037-4.901-2.597-2.595-4.182-5.84-4.182-10.453 0-3.82 1.803-7.64 4.253-10.166 2.955-2.954 6.56-4.973 10.958-4.973 4.325 0 7.785 1.873 10.092 4.181 2.02 2.019 3.749 5.622 3.82 9.948 0 .36-.143.505-.43.577-11.68-.072-17.447.072-21.196.217 0 4.613.649 7.497 1.586 9.444 1.442 2.81 3.677 4.323 7.858 4.323 4.614 0 8.219-2.593 10.31-7.784.287-.289 1.442.216 1.368.577" fill="#FFF"/>
	<g>
	  <path d="M722.806 43.816c-2.236 2.163-5.768 3.244-8.94 3.244-5.767 0-8.507-2.019-9.3-2.019-.36 0-.865.792-1.513 2.452-.144.287-1.154.215-1.154-.072a245.735 245.735 0 0 0-.722-10.599c0-.287 1.154-.43 1.227-.142.866 2.667 1.947 5.045 3.316 6.414 1.73 1.731 4.757 2.596 7.93 2.596 2.668 0 4.468-.577 5.55-1.585.65-.722 1.227-1.948 1.227-3.533 0-2.453-1.803-3.678-8.146-5.334-4.832-1.298-7.064-2.236-8.507-3.678-1.154-1.153-1.801-2.74-1.801-4.613 0-5.407 4.9-9.372 10.595-9.372 4.397 0 7.499 2.308 8.219 2.308.36 0 .576-.578 1.586-3.03.072-.215 1.081-.143 1.153.074-.216 3.244-.216 6.344-.144 9.66 0 .504-1.081.504-1.298.143-.938-2.378-1.875-4.108-2.957-5.117-1.512-1.588-3.53-2.669-6.775-2.669-2.09 0-3.676.65-4.685 1.66a4.3 4.3 0 0 0-1.227 3.026c0 2.74 2.09 3.82 8.362 5.408 4.975 1.297 7.21 2.306 8.652 3.82 1.298 1.297 1.947 2.885 1.947 4.83 0 2.595-1.155 4.614-2.595 6.128" fill="#FFF"/>
	</g>
	</g>
</symbol>

<symbol id="college-logo-stacked" viewBox="0 0 368 83">
	<title>UF Liberal Arts and Sciences Logo</title>
	<g fill="none" fill-rule="evenodd">
	<path d="M101.842 2.009h8.065c.168 0 .168 1.008 0 1.008-4.536 0-4.984.056-5.152.224-.224.224-.28 1.734-.336 9.405 0 4.592-.056 6.888-.056 15.454 0 5.094.056 6.214.224 6.382.225.223 1.12.335 4.928.335 4.874 0 6.385-.335 7.505-1.399 1.066-1.062 2.129-3.526 3.865-10.693.111-.224.897-.168.897 0-.056 3.807-.224 9.685-.448 12.932 0 .281-.112.448-.617.448-4.313-.167-8.401-.112-14.17-.112-6.217 0-9.8 0-13.274.057-.168 0-.112-1.065.056-1.065 4.257-.055 4.873-.055 5.04-.223.169-.168.225-.953.225-4.478.056-6.72.168-13.774.168-19.99 0-5.15-.056-6.83-.28-7.053-.224-.224-.952-.282-4.816-.336-.168 0-.112-1.008.056-1.008a434 434 0 0 0 8.12.112M131.169 7.496c-1.735 0-3.08-1.624-3.08-3.192 0-.952.336-1.679.895-2.24.618-.672 1.458-1.064 2.633-1.064 1.625 0 3.025 1.344 3.025 2.968 0 1.848-1.793 3.528-3.473 3.528m-6.777 28.498c-.168 0-.224-.951 0-.951 3.137-.057 3.976-.057 4.201-.28.224-.225.28-.84.336-2.353.055-1.903.055-3.191.055-4.927 0-2.128-.112-7.613-.223-10.357 0-1.008-.112-1.567-.336-1.792-.225-.224-.672-.224-4.201-.28-.167 0-.167-.952 0-.952 2.913-.056 7.897-.167 9.074-.167.392 0 .559.11.559.503-.055 3.136 0 9.63 0 13.55 0 5.262.225 6.55.449 6.775.224.223.895.28 3.92.28.28 0 .28 1.008 0 1.008-1.12 0-12.994-.057-13.834-.057M147.607 19.422c-.672 1.4-.896 2.574-.896 5.038 0 5.991.17 7.558.56 8.287.504 1.063 3.024 2.63 5.098 2.63 1.96 0 3.416-.951 4.48-3.022.84-1.68 1.343-4.144 1.343-7.727 0-3.75-.504-6.326-1.23-7.781-.73-1.457-1.681-2.241-3.474-2.241-2.576 0-4.704 2.52-5.88 4.816m-1.793 14.221c-.28 0-1.12.727-3.416 3.079-.224.225-.84.112-.84-.224.112-2.855.224-8.622.224-15.788 0-4.2-.112-9.743-.224-15.342-.055-2.688-.112-3.528-.28-3.696-.169-.167-.56-.167-3.64-.167-.225 0-.225-.953 0-.953 2.967-.055 7.28-.223 8.85-.28.391 0 .446.225.446.561 0 1.231-.168 16.573-.168 18.029l.056.056c1.569-3.136 4.033-5.824 7.45-5.824 2.632 0 4.928 1.288 6.72 3.078 1.905 1.962 3.025 4.538 3.025 7.784 0 3.808-1.792 7-4.033 9.238-2.128 2.128-4.536 3.36-7.281 3.36-3.92 0-6.385-2.91-6.89-2.91M174.277 16.677c-.896 1.791-1.23 4.032-1.343 6.775l11.37-.056c-.337-6.495-2.017-9.183-5.77-9.183-2.128 0-3.64 1.176-4.257 2.464m15.067 13.102c-1.793 4.872-5.88 6.999-9.633 6.999-3.697 0-7.057-1.512-9.354-3.807-2.016-2.016-3.249-4.536-3.249-8.119 0-2.967 1.4-5.935 3.305-7.893 2.297-2.296 5.097-3.864 8.514-3.864 3.36 0 6.049 1.456 7.841 3.246 1.568 1.568 2.912 4.368 2.968 7.727 0 .279-.112.392-.336.448-9.074-.056-13.554.056-16.466.168 0 3.583.504 5.823 1.233 7.335 1.119 2.184 2.855 3.359 6.103 3.359 3.585 0 6.385-2.016 8.01-6.047.224-.224 1.12.168 1.064.448M194.906 34.763c.168-.17.28-2.073.335-3.472 0-2.016 0-7.335-.055-9.799 0-4.199-.28-5.879-.504-6.103-.226-.222-.672-.222-3.753-.278-.224 0-.224-1.008.056-1.008 2.24 0 7.113-.168 8.345-.168.784 0 .896.112.896.838-.056 1.4-.112 4.256-.112 6.328h.112c1.792-4.2 3.808-7.672 7.057-7.672 2.912 0 4.76 1.792 4.76 3.976 0 2.296-1.68 3.64-3.248 3.64-1.625 0-2.8-1.008-2.8-2.577 0-1.903 1.511-2.63 1.511-3.079 0-.222-.279-.446-.95-.446-1.737 0-3.53 2.238-4.873 5.038-1.064 2.128-1.457 3.64-1.457 5.487v5.095c.056 2.576.168 3.919.393 4.143.112.169 1.007.169 4.312.28.28 0 .28 1.065.056 1.065h-14.338c-.169 0-.225-1.008 0-1.008 3.64-.057 4.088-.112 4.257-.28M219.202 30.619c0 2.743.896 4.256 2.913 4.256 2.24 0 4.872-2.185 5.377-3.304.224-.392.28-.728.334-2.464.058-1.624.058-2.239.114-4.815-7.337.616-8.738 1.792-8.738 6.327m.112-14.557c0 .616 2.185.785 2.185 2.968 0 1.568-1.233 2.742-2.913 2.742-1.625 0-2.912-1.174-2.912-2.854 0-1.12.448-2.071 1.345-2.911 1.455-1.401 3.752-2.69 7.057-2.69 3.416 0 5.6 1.009 7.055 2.522 1.457 1.455 1.961 3.135 1.961 5.765 0 2.8-.168 7.671-.168 11.479 0 1.343.392 1.848 1.343 1.848 1.233 0 2.354-1.233 2.913-4.032.112-.168.84-.056.84.168-.504 3.135-2.24 5.487-5.208 5.487-2.8 0-4.592-1.511-5.152-3.751-1.85 2.128-4.202 3.639-7.001 3.695-3.306.056-6.721-2.24-6.721-5.599 0-1.4.504-2.688 1.68-3.807 1.847-1.905 5.153-3.304 12.322-3.808.056-.728 0-2.35 0-3.92 0-2.126-.28-3.192-1.009-3.918-.616-.615-1.792-1.064-3.417-1.064-2.52 0-4.2 1.288-4.2 1.68M248.009.44c.448 0 .559.224.559.672-.055 5.824-.111 10.639-.111 16.686 0 5.598-.056 10.245-.113 14.724 0 1.401.169 1.96.45 2.241.222.168.446.279 3.806.335.17 0 .225 1.007 0 1.007-4.929-.166-8.066-.166-13.273-.166-.17 0-.112-1.008.056-1.008 3.025 0 3.472-.056 3.64-.225.168-.168.168-.448.168-1.344.056-2.687.168-7.894.168-11.422 0-7.67 0-12.71-.112-18.756 0-1.008 0-1.287-.168-1.455-.167-.169-.504-.169-3.752-.337-.224-.056-.224-.952.056-.952 3.192.057 5.265.057 8.626 0M283.125 7.832c-2.52 5.934-5.04 11.59-7 16.124 3.416.17 9.52.28 12.88.28-1.567-4.76-4.144-11.87-5.768-16.404h-.112zm-13.553 26.203c.615-.616 1.343-1.736 2.24-3.64 4.648-10.022 9.298-20.38 12.713-29.282.112-.112.392-.224 1.066-.224.951 0 1.118.112 1.175.336 1.513 4.535 3.865 11.533 10.25 29.002.951 2.688 1.4 3.582 2.072 4.254.504.504 1.008.562 4.256.73.17 0 .17.952 0 .952-3.136-.058-5.433-.17-7.674-.17-2.575 0-4.086-.054-7.391.058-.112 0-.168-.952 0-.952 2.688-.168 3.36-.282 3.64-.618.28-.222.336-.672 0-1.902a378.409 378.409 0 0 0-2.52-7.167c-.952-.056-3.977-.11-8.402-.11-2.128 0-3.529 0-5.096.054-.225 0-.448 0-.56.279-.896 1.96-1.4 3.249-2.24 5.432-.337.952-.56 1.848-.56 2.408 0 1.23.503 1.4 4.255 1.624.113 0 .057.952-.055.952-3.025-.112-7.897-.112-11.426 0-.112 0-.112-.896 0-.896 2.913-.17 3.472-.338 4.257-1.12zM309.41 34.763c.169-.17.28-2.073.336-3.472 0-2.016 0-7.335-.055-9.799 0-4.199-.28-5.879-.504-6.103-.226-.222-.672-.222-3.753-.278-.225 0-.225-1.008.056-1.008 2.24 0 7.113-.168 8.345-.168.784 0 .896.112.896.838-.056 1.4-.112 4.256-.112 6.328h.112c1.792-4.2 3.808-7.672 7.057-7.672 2.912 0 4.76 1.792 4.76 3.976 0 2.296-1.68 3.64-3.247 3.64-1.626 0-2.801-1.008-2.801-2.577 0-1.903 1.511-2.63 1.511-3.079 0-.222-.279-.446-.95-.446-1.737 0-3.53 2.238-4.873 5.038-1.065 2.128-1.457 3.64-1.457 5.487v5.095c.056 2.576.168 3.919.392 4.143.112.169 1.007.169 4.313.28.28 0 .28 1.065.056 1.065h-14.339c-.168 0-.224-1.008 0-1.008 3.642-.057 4.09-.112 4.258-.28M339.112 36.442c-2.353 0-4.032-.728-5.265-1.96-1.008-1.007-1.512-2.24-1.512-4.703 0-3.64.056-10.022.168-14.445-.336-.056-3.361-.056-3.976-.056-.28 0-.224-1.064-.056-1.064 3.36-.168 4.368-.447 5.152-1.232 1.12-1.064 2.632-4.198 3.192-6.943.056-.279.896-.279.952 0-.167 1.904-.167 6.216-.224 8.007 2.24.056 5.937.056 6.834.056.335 0 .223 1.176-.057 1.176-4.424 0-6.16.056-6.777.112-.112 2.07-.224 8.287-.224 12.821 0 3.863.112 4.479.448 5.207.392.784 1.345 1.4 2.577 1.4 1.791 0 3.36-1.848 4.312-5.543.056-.224 1.009-.056.953.224-.953 4.591-3.248 6.943-6.497 6.943M365.318 33.867c-1.737 1.678-4.48 2.518-6.945 2.518-4.482 0-6.61-1.568-7.226-1.568-.28 0-.672.616-1.176 1.904-.112.226-.895.168-.895-.056a190.15 190.15 0 0 0-.561-8.23c0-.223.896-.335.952-.111.672 2.07 1.512 3.919 2.577 4.983 1.343 1.344 3.697 2.016 6.16 2.016 2.073 0 3.472-.448 4.313-1.232.504-.562.952-1.512.952-2.743 0-1.905-1.4-2.857-6.329-4.144-3.753-1.008-5.488-1.736-6.609-2.856-.896-.896-1.4-2.127-1.4-3.584 0-4.199 3.809-7.279 8.233-7.279 3.417 0 5.825 1.794 6.385 1.794.28 0 .448-.448 1.232-2.352.056-.168.84-.112.897.056-.168 2.518-.168 4.926-.112 7.501 0 .393-.842.393-1.009.113-.728-1.848-1.455-3.192-2.296-3.976-1.176-1.232-2.744-2.07-5.265-2.07-1.624 0-2.857.504-3.64 1.288a3.331 3.331 0 0 0-.952 2.35c0 2.128 1.624 2.968 6.497 4.199 3.864 1.008 5.6 1.793 6.72 2.968 1.008 1.007 1.512 2.24 1.512 3.75 0 2.017-.896 3.583-2.015 4.76" fill="#FFF"/>
	<path d="M97.435 72.73c-1.256 2.557-1.616 4.216-1.616 5.382 0 1.616 1.078 2.557 2.514 2.557 2.334 0 5.924-3.274 7.675-6.818 1.749-3.5 2.781-6.416 2.781-7.178 0-1.077-1.121-2.468-2.781-2.468-3.59 0-6.283 3.948-8.573 8.525m11.939-7.18c.492-.986 1.077-2.153 1.255-2.153.27 0 2.156.314 2.245.404.089.09.225.763.18.898-.54 1.211-3.143 7.492-4.624 11.349-.403.989-.673 2.38-.673 3.052 0 .762.45 1.3 1.123 1.3 1.077 0 2.378-.628 5.026-3.99.09-.093.674.312.63.401-2.514 3.367-4.22 4.801-6.376 4.801-1.525 0-3.185-1.077-3.185-2.825 0-.764.135-1.525.313-2.333-2.064 2.78-4.98 5.204-7.225 5.204-2.289 0-4.891-2.425-4.891-5.832 0-2.334.897-4.757 3.635-7.538 2.962-2.916 6.508-4.891 9.2-4.891 1.57 0 2.828.897 3.367 2.153M124.841 63.98c.134 0 .224.09.18.225-.315.942-1.885 5.293-2.334 6.416-.046.089.09.268.18.178 3.858-5.07 5.968-7.447 8.392-7.447 1.301 0 2.243.45 3.007 1.212.762.763 1.076 1.57 1.076 2.557 0 1.57-.538 2.602-2.199 6.057-1.615 3.41-2.154 4.711-2.154 5.653 0 .808.583 1.391 1.303 1.391 1.345 0 2.96-1.302 4.98-3.59.09-.09.72.405.628.494-1.48 1.794-4.307 4.441-6.461 4.441-.988 0-1.662-.314-2.334-.987-.629-.628-.943-1.391-.943-2.422 0-.896.449-2.423 2.11-5.833 1.705-3.499 2.153-4.62 2.153-5.698 0-1.077-.717-1.838-1.749-1.838-1.123 0-1.886.448-3.636 2.197-3.052 3.052-5.7 7.044-6.463 8.885-.672 1.704-1.57 3.677-2.198 5.248-.045.179-2.828.045-3.098.045-.09 0-.09-.09-.044-.225.584-1.3 3.725-8.39 4.398-10.005 1.66-4.17 1.975-5.832 1.884-5.92-.089-.091-4.128-.047-4.711-.091-.135 0-.045-.808.09-.808 2.558 0 7.72-.134 7.943-.134M144.189 71.518c-.987 1.93-1.66 4.038-1.66 5.966 0 2.155.808 3.455 2.827 3.455 1.436 0 2.917-.583 4.892-2.557 1.615-1.615 2.557-2.916 3.725-5.787 1.032-2.468 1.93-4.533 2.02-4.98-.36-1.975-1.661-3.5-3.815-3.5-3.231 0-6.104 3.59-7.99 7.403m12.343-5.204c0 .044.09.089.135 0 1.795-4.398 2.961-7.269 4.622-11.53.225-.629.134-.899.045-.988-.135-.133-3.052-.224-4.982-.224-.135 0-.135-.807.045-.807 2.468 0 5.88.09 8.842.045.133 0 .27.134.224.269-3.816 8.974-5.79 13.728-9.873 23.105-.539 1.256-.719 2.018-.719 2.826 0 .718.404 1.346 1.122 1.346 1.077 0 2.11-.585 3.635-2.11.673-.671 1.078-1.076 1.661-1.837.09-.092.673.358.584.447-2.379 3.007-4.488 4.757-6.33 4.757-1.973 0-3.5-1.346-3.5-2.963 0-.492 0-.672.091-1.255-2.289 2.827-4.533 4.396-7 4.396-1.527 0-3.097-.808-4.085-1.794-.898-.898-1.66-2.289-1.66-4.126 0-2.873 1.48-5.833 3.814-8.166 2.199-2.2 5.565-4.398 9.244-4.398 1.975 0 3.502 1.393 4.085 3.007" fill="#FF5A0E"/>
	<path d="M200.998 46.667c.056-.168.842-.056.842.114-.28 3.531-.393 6.671-.112 11.046 0 .166-.786.28-.898.056-1.515-3.925-2.805-6.168-4.208-7.57-1.514-1.515-3.477-2.411-6.394-2.411-3.027 0-4.823.841-6.113 2.13-1.122 1.122-1.794 2.747-1.794 4.486 0 3.7 2.467 4.878 8.862 6.56 5.833 1.571 8.637 2.971 10.32 4.655 1.458 1.457 2.188 3.14 2.188 5.831 0 5.943-5.272 10.317-11.891 10.317-6.058 0-9.087-2.972-10.265-2.972-.73 0-1.627 1.01-2.412 2.523-.112.225-.842.113-.842-.11.112-3.926.112-7.066-.392-12.225 0-.224.728-.338.842-.112 2.187 4.99 3.533 7.29 5.104 8.86 1.738 1.738 4.542 2.858 7.853 2.858 2.804 0 4.88-.727 6.113-1.962 1.18-1.178 1.738-2.523 1.738-4.485 0-3.59-2.243-5.329-8.861-7.01-5.834-1.513-8.526-2.746-10.153-4.43-1.458-1.458-2.132-3.083-2.132-5.72 0-5.437 4.938-10.26 11.948-10.26 5.833 0 8.356 2.466 8.862 2.466.45 0 1.179-1.288 1.795-2.635M210.871 78.349c-1.851-1.85-3.253-4.375-3.253-7.85 0-2.972 1.234-5.888 3.477-8.188 2.189-2.185 5.048-3.868 8.863-3.868 5.049 0 8.974 3.027 8.974 6.112 0 2.186-1.514 3.421-3.14 3.421-1.628 0-2.862-1.235-2.862-2.637 0-.84.225-1.457.674-1.963.898-.897 2.131-.784 2.357-1.009.448-.447-1.797-2.746-5.723-2.746-2.973 0-4.599 1.458-5.44 3.14-.954 1.906-1.29 4.036-1.29 7.122 0 3.813.28 5.943 1.122 7.512.897 1.795 2.355 3.14 5.44 3.14 3.253 0 6.395-2.242 7.852-6.671.113-.45 1.18.056 1.066.446-1.57 4.655-5.048 7.57-9.704 7.57-3.251 0-6.226-1.345-8.413-3.531M237.571 52.668c-1.739 0-3.085-1.627-3.085-3.197 0-.953.337-1.681.898-2.243.616-.673 1.459-1.065 2.637-1.065 1.626 0 3.029 1.345 3.029 2.972 0 1.85-1.796 3.533-3.479 3.533m-6.787 28.54c-.168 0-.224-.952 0-.952 3.141-.058 3.983-.058 4.207-.28.224-.226.28-.843.337-2.357.056-1.907.056-3.195.056-4.932 0-2.132-.113-7.628-.224-10.376 0-1.009-.112-1.569-.337-1.793-.225-.225-.673-.225-4.207-.281-.168 0-.168-.953 0-.953 2.917-.056 7.909-.168 9.087-.168.392 0 .56.112.56.505-.055 3.14 0 9.643 0 13.57 0 5.27.225 6.56.45 6.785.224.222.897.28 3.927.28.279 0 .279 1.009 0 1.009-1.123 0-13.014-.056-13.856-.056M252.418 61.863c-.898 1.794-1.234 4.038-1.346 6.785l11.387-.056c-.337-6.504-2.02-9.196-5.778-9.196-2.13 0-3.646 1.176-4.263 2.467m15.089 13.122c-1.795 4.878-5.89 7.007-9.648 7.007-3.702 0-7.067-1.512-9.367-3.811-2.019-2.019-3.254-4.543-3.254-8.13 0-2.972 1.402-5.944 3.31-7.907 2.3-2.298 5.105-3.869 8.525-3.869 3.367 0 6.06 1.457 7.853 3.252 1.571 1.57 2.917 4.374 2.973 7.737 0 .281-.112.393-.336.45-9.087-.057-13.574.055-16.491.168 0 3.588.505 5.83 1.235 7.344 1.12 2.188 2.86 3.365 6.112 3.365 3.59 0 6.395-2.017 8.022-6.056.224-.225 1.122.17 1.066.45M269.257 80.311c2.916-.056 3.477-.056 3.702-.224.223-.225.335-1.066.335-4.43V64.555c0-2.41-.167-3.757-.448-3.982-.168-.223-.728-.28-3.645-.335-.17 0-.17-.953.056-.953 2.523 0 6.618-.056 8.917-.056.338 0 .394.166.394.56l-.225 5.55.169.057c1.963-3.869 4.375-7.066 8.356-7.066 4.376 0 6.9 2.805 6.9 8.131 0 2.131-.056 4.823-.056 7.57 0 4.767.169 5.776.45 6.056.167.224.671.224 3.364.336.17 0 .17.898-.055.898-4.488-.112-8.19-.056-11.667-.056-.281 0-.225-.898-.057-.898 1.683-.112 2.356-.169 2.58-.337.225-.223.225-.952.225-2.297 0-1.796-.056-11.216-.056-12.394 0-2.972-.898-4.71-3.197-4.71-2.75 0-5.048 2.973-6.227 5.384-.617 1.176-.785 1.907-.785 3.87 0 1.68.056 5.269.112 7.288.056 1.962.113 2.636.28 2.804.17.168.562.28 3.367.392.168 0 .168.954-.112.954-3.59-.112-9.144-.112-12.622 0-.28-.056-.224-1.01-.055-1.01M301.424 78.349c-1.85-1.85-3.252-4.375-3.252-7.85 0-2.972 1.235-5.888 3.477-8.188 2.188-2.185 5.049-3.868 8.862-3.868 5.05 0 8.976 3.027 8.976 6.112 0 2.186-1.515 3.421-3.141 3.421-1.627 0-2.862-1.235-2.862-2.637 0-.84.225-1.457.673-1.963.9-.897 2.131-.784 2.357-1.009.45-.447-1.795-2.746-5.723-2.746-2.973 0-4.597 1.458-5.44 3.14-.954 1.906-1.29 4.036-1.29 7.122 0 3.813.28 5.943 1.122 7.512.897 1.795 2.356 3.14 5.441 3.14 3.253 0 6.394-2.242 7.853-6.671.11-.45 1.178.056 1.066.446-1.571 4.655-5.048 7.57-9.704 7.57-3.253 0-6.227-1.345-8.415-3.531M329.577 61.863c-.897 1.794-1.233 4.038-1.345 6.785l11.387-.056c-.338-6.504-2.02-9.196-5.778-9.196-2.132 0-3.647 1.176-4.264 2.467m15.09 13.122c-1.797 4.878-5.89 7.007-9.648 7.007-3.703 0-7.067-1.512-9.367-3.811-2.02-2.019-3.255-4.543-3.255-8.13 0-2.972 1.403-5.944 3.31-7.907 2.3-2.298 5.104-3.869 8.526-3.869 3.365 0 6.058 1.457 7.853 3.252 1.57 1.57 2.917 4.374 2.973 7.737 0 .281-.112.393-.336.45-9.088-.057-13.575.055-16.491.168 0 3.588.504 5.83 1.235 7.344 1.12 2.188 2.86 3.365 6.112 3.365 3.59 0 6.395-2.017 8.022-6.056.224-.225 1.122.17 1.066.45M365.315 79.078c-1.74 1.682-4.488 2.522-6.956 2.522-4.487 0-6.618-1.57-7.236-1.57-.28 0-.672.618-1.177 1.907-.112.225-.898.168-.898-.056a190.554 190.554 0 0 0-.561-8.242c0-.224.897-.336.954-.112.673 2.076 1.514 3.925 2.58 4.99 1.346 1.345 3.702 2.019 6.17 2.019 2.075 0 3.478-.448 4.32-1.234.503-.56.952-1.514.952-2.747 0-1.907-1.402-2.859-6.338-4.15-3.758-1.009-5.496-1.738-6.62-2.86-.896-.897-1.401-2.13-1.401-3.59 0-4.204 3.814-7.287 8.245-7.287 3.422 0 5.833 1.793 6.395 1.793.28 0 .45-.447 1.234-2.355.056-.166.841-.112.897.055-.168 2.525-.168 4.936-.112 7.516 0 .392-.841.392-1.01.112-.729-1.851-1.457-3.196-2.3-3.982-1.178-1.234-2.747-2.074-5.272-2.074-1.627 0-2.86.504-3.645 1.29a3.344 3.344 0 0 0-.954 2.354c0 2.132 1.626 2.972 6.506 4.206 3.87 1.01 5.61 1.795 6.731 2.972 1.01 1.01 1.514 2.242 1.514 3.756 0 2.02-.898 3.589-2.018 4.767" fill="#FFF"/>
	<path fill="#FF5A0E" d="M.667 82.081h81.835V.273H.667z"/>
	<path fill="#FFF" d="M51.76 51.548v-8.152h7.515V38.02H51.76v-7.616h8.25v2.956h5.443v-8.287H43.662v5.331h2.04v21.144H43.67v5.375h10.057v-5.375zM40.827 44.886V30.403h2.014v-5.33h-10.08v5.33h1.965v12.682c0 5.317-.614 7.87-4.433 7.87-3.818 0-4.433-2.553-4.433-7.87V30.403h1.95v-5.33H17.716v5.33h2v14.483c0 3.162 0 5.754 1.492 8.083 1.668 2.637 4.696 4.311 9.085 4.311 7.769 0 10.534-4.046 10.534-12.394"/>
	</g>
</symbol>

<symbol id="claslogo" viewBox="0 0 907.279 29.017">
	<title>CLAS Logo Mobile Version</title>
  	<path d="M7.427 26.781c-10.102-5.046-9.841-20.255.432-25.154C13.868-1.24 22.76.477 22.76 4.5c0 2.203-.788 2.555-4.983 2.228-7.588-.593-10.35 1.489-10.35 7.798 0 6.564 3.934 9.138 10.48 6.855 3.122-1.088 4.365-.989 5.553.442 2.147 2.587.667 4.307-5.081 5.904-6.232 1.73-5.462 1.797-10.952-.946zm29.683.835c-7.461-2.132-10.679-12.794-6.373-21.121 3.93-7.6 17.634-8.192 22.686-.98 4.33 6.184 1.183 19.84-4.981 21.613-5.768 1.659-7.04 1.713-11.332.488zm9.555-7.261c4.45-4.45 1.342-13.905-4.571-13.905-5.989 0-8.853 8.708-4.46 13.562 2.708 2.992 6.247 3.127 9.031.343zm98.474 7.838c-1.625-.32-4.54-2.467-6.476-4.768-2.96-3.519-3.417-5.112-2.867-9.997 1.178-10.448 8.8-15.228 19.63-12.311 4.11 1.106 5.355 2.024 4.779 3.523-.428 1.116-.778 2.25-.778 2.523 0 .272-2.936.147-6.525-.278-6.02-.713-6.709-.493-8.888 2.833-4.21 6.424.69 14.04 7.873 12.236 4.37-1.096 4.664-3.504.429-3.504-3.79 0-4.935-.995-3.988-3.464.48-1.251 2.875-1.87 7.242-1.87h6.524v6.034c0 5.032-.498 6.22-3 7.163-4.536 1.71-10.65 2.533-13.955 1.88zm70.667-.017c-4.586-.879-9.712-7.861-9.712-13.228 0-10.716 8.242-17.051 17.995-13.833 6.222 2.054 8.671 5.922 8.671 13.692 0 5.05-.702 7.134-3.272 9.704-1.8 1.8-4.151 3.272-5.225 3.272-1.073 0-2.75.216-3.727.48-.977.264-3.105.225-4.73-.087zm8.192-7.821c4.459-4.459 1.34-13.905-4.59-13.905-2.733 0-6.648 4.712-6.648 8 0 3.288 3.915 8 6.647 8 1.373 0 3.439-.943 4.591-2.095zm337.383 7.505c-7.135-1.685-8.9-3.184-6.928-5.882 1.42-1.942 2.367-2.106 5.434-.94 5.075 1.93 7.54 1.771 7.54-.485 0-1.043-2.028-2.565-4.506-3.383-9.263-3.057-11.378-10.06-4.568-15.125 3.04-2.26 4.476-2.485 9.333-1.46 4.443.937 5.74 1.812 5.74 3.871 0 2.215-.892 2.66-5.332 2.66-6.832 0-7.305 2.184-.946 4.36 2.72.93 5.696 2.696 6.612 3.922 5.309 7.099-2.366 14.826-12.379 12.462zm145.486-.525c-5.478-1.653-6.752-3.133-5.03-5.846.797-1.256 2.166-1.28 6.01-.1 3.728 1.145 5.361 1.147 6.5.009 1.137-1.138-.051-2.194-4.73-4.2-9.39-4.025-10.931-11.945-3.076-15.811 5.767-2.84 16.382.018 14.855 3.998-.609 1.586-2.18 1.897-6.888 1.367-7.692-.867-7.34 1.183.919 5.343 5.333 2.686 6.046 3.581 6.416 8.056.384 4.65.057 5.183-4.29 7-2.59 1.081-4.876 1.92-5.083 1.864-.207-.057-2.728-.812-5.603-1.68zm30.451.315c-6.456-1.823-9.07-5.657-9.07-13.302 0-5.466.648-7.306 3.621-10.278 3.014-3.012 4.742-3.603 10.288-3.522 7.293.107 9.817 1.592 8.507 5.006-.674 1.756-1.927 2.044-6.037 1.387-6.731-1.077-9.2.99-9.2 7.7 0 6.476 3.978 9.007 10.554 6.715 3.524-1.229 4.286-1.074 5.455 1.11 1.059 1.98.84 2.804-.992 3.744-4.117 2.11-8.895 2.635-13.126 1.44zm101.474.052c-2.182-.65-5.019-2.548-6.304-4.217-2.916-3.79-3.14-14.045-.39-17.97 3.029-4.324 10.023-6.186 16.592-4.417 4.732 1.274 5.265 1.786 4.107 3.95-1.059 1.979-2.376 2.347-6.445 1.8-3.701-.496-5.733-.066-7.353 1.554-3.059 3.058-2.815 9.113.487 12.101 2.327 2.106 3.492 2.262 7.971 1.066 4.721-1.26 5.33-1.136 6.084 1.24.896 2.823-1.222 4.92-5.005 4.954-1.223.011-3.023.268-4 .571-.977.303-3.561.02-5.744-.632zm52.075-.34c-5.635-1.73-6.753-3.153-4.847-6.17.992-1.569 1.86-1.63 4.708-.333 1.92.875 4.663 1.591 6.095 1.591 4.736 0 2.704-3.6-3.334-5.905-13.763-5.257-6.814-19.806 7.423-15.54 3.867 1.158 5.225 2.226 4.906 3.857-.358 1.827-1.666 2.166-6.905 1.788-7.883-.569-8.008 1.992-.23 4.685 8.346 2.89 10.892 8.281 6.41 13.577-3.058 3.615-7.781 4.428-14.226 2.45zM61.055 14.45l-.067-13.333h7.772v19.846l5.667.41c4.71.341 5.738.916 6.093 3.41.409 2.88.03 3-9.486 3h-9.912zm25.039 0V1.117h3.333c3.26 0 3.333.222 3.333 10v10h6c5.511 0 6 .271 6 3.333 0 3.238-.266 3.333-9.333 3.333h-9.333zm24 0V1.117h10c9.11 0 10 .237 10 2.666 0 2.272-.89 2.667-6 2.667-5.112 0-6 .395-6 2.667 0 2.222.888 2.666 5.333 2.666 4.444 0 5.333.445 5.333 2.667s-.889 2.667-5.333 2.667c-4.34 0-5.333.469-5.333 2.519 0 2.143.946 2.492 6.333 2.333 5.62-.165 6.381.152 6.76 2.814.411 2.899.061 3-10.334 3h-10.76zm58.666 0V1.117h10c9.111 0 10 .237 10 2.666 0 2.311-.889 2.667-6.666 2.667-5.778 0-6.667.356-6.667 2.667 0 2.222.889 2.666 5.333 2.666 4.445 0 5.334.445 5.334 2.667s-.89 2.667-5.334 2.667c-4.306 0-5.333.476-5.333 2.474 0 2.083 1.002 2.452 6.333 2.333 5.604-.124 6.383.205 6.76 2.86.41 2.884.037 3-9.667 3H168.76zm70.667 0V1.117h9.333c8.445 0 9.334.254 9.334 2.666 0 2.272-.89 2.667-6 2.667-5.512 0-6 .272-6 3.333 0 3 .533 3.334 5.333 3.334 4.444 0 5.333.444 5.333 2.666 0 2.223-.889 2.667-5.333 2.667-5.206 0-5.333.111-5.333 4.667 0 4.089-.413 4.666-3.334 4.666h-3.333zm37.333 0V1.117h3.334c3.257 0 3.333.227 3.333 9.923v9.923l5.667.41c4.71.341 5.738.916 6.092 3.41.408 2.869.012 3-9 3h-9.426zm24 0V1.117h6.667v26.666h-6.667zm14.667 0V1.117h8.46c6.836 0 8.935.525 10.934 2.733 2.066 2.284 2.232 3.373 1.008 6.616-1.155 3.06-1.07 4.21.4 5.43 2.814 2.335 2.239 7.474-1.099 9.812-1.918 1.343-5.916 2.075-11.333 2.075h-8.37zm14.504 6.795c2.77-1.754.518-4.128-3.916-4.128-3.033 0-3.921.604-3.921 2.666 0 2.86 4.35 3.671 7.837 1.462zm-1.333-10.666c1.01-.64 1.425-1.831.921-2.647-1.298-2.1-7.425-1.855-7.425.296 0 3.468 3.017 4.56 6.504 2.35zm14.829 3.871V1.117h10c9.111 0 10 .237 10 2.666 0 2.272-.889 2.667-6 2.667s-6 .395-6 2.667c0 2.222.889 2.666 5.333 2.666 4.445 0 5.334.445 5.334 2.667s-.89 2.667-5.334 2.667c-4.434 0-5.333.447-5.333 2.651 0 2.32.794 2.612 6.333 2.334 5.667-.285 6.378-.002 6.76 2.681.411 2.899.062 3-10.334 3h-10.76zm26.667 0V1.117h8.666c6.89 0 9.214.547 11.334 2.666 3.232 3.233 3.503 10.199.524 13.49-1.976 2.184-1.918 2.681.758 6.439l2.9 4.071h-3.661c-2.48 0-4.799-1.363-7.188-4.225-3.884-4.652-6.667-4.247-6.667.97 0 2.583-.688 3.255-3.333 3.255h-3.333zm15.787-3.174c.55-2.902-1.836-4.776-6.12-4.806-2.463-.016-3 .712-3 4.064 0 3.804.297 4.056 4.322 3.667 2.973-.287 4.47-1.2 4.798-2.925zm16.068 3.507c4.88-12.895 4.959-13.003 9.7-13.404l4.781-.404 4.832 12.47c2.657 6.86 4.832 12.891 4.832 13.405 0 1.848-6.768.888-7.518-1.067-.522-1.36-2.653-2-6.667-2-4.014 0-6.144.64-6.667 2-.428 1.117-2.41 2-4.49 2h-3.723zm11.776-2.398c-1.472-4.798-2.338-4.443-4.227 1.732-.78 2.55-.423 3 2.38 3 3.163 0 3.24-.196 1.847-4.732zm17.702 2.065V1.117h3.333c3.26 0 3.334.222 3.334 10v10h6c5.51 0 6 .271 6 3.333 0 3.238-.267 3.333-9.334 3.333h-9.333zm34.667 12.904c0-.236 2.288-6.086 5.086-13 4.965-12.272 5.197-12.58 9.746-12.97l4.66-.398 4.44 11.732c2.442 6.453 4.72 12.482 5.063 13.399.4 1.07-.637 1.666-2.895 1.666-1.934 0-3.863-.9-4.285-2-.537-1.4-2.722-2-7.291-2-4.91 0-6.524.495-6.524 2 0 1.334-1.334 2-4 2-2.2 0-4-.193-4-.429zm17.313-12.57c-.024-2.676-2.19-6.568-3.133-5.626-.346.347-1.044 2.28-1.55 4.295-.785 3.128-.509 3.664 1.892 3.664 1.796 0 2.804-.843 2.79-2.334zm17.353-.334V1.117h8.435c7.092 0 8.895.49 11.333 3.086 3.554 3.783 3.739 9.407.419 12.727-2.408 2.408-2.41 2.572-.03 5.667 3.27 4.252 3.129 5.186-.783 5.186-2.114 0-4.354-1.433-6.251-4-1.627-2.2-3.745-4-4.707-4-1.055 0-1.75 1.589-1.75 4 0 3.378-.518 4-3.332 4h-3.334zm15.525-2.017c1.084-2.826-1.917-5.983-5.688-5.983-2.633 0-3.17.677-3.17 4 0 3.565.44 4 4.042 4 2.378 0 4.36-.83 4.816-2.017zm18.974 13.684c-.092-.917-.243-5.567-.333-10.334l-.166-8.666-4.333-.418c-3.253-.314-4.333-1.061-4.333-3 0-2.363 1.02-2.582 12-2.582 11.11 0 12 .197 12 2.666 0 2.074-.89 2.667-4 2.667h-4v10.667c0 10.489-.056 10.666-3.334 10.666-1.833 0-3.409-.75-3.501-1.666zm61.424-11.334c4.968-12.788 5.126-13.006 9.732-13.404l4.682-.404 4.831 12.47c2.658 6.86 4.832 12.891 4.832 13.405 0 1.961-6.595.824-7.81-1.347-1.585-2.833-10.792-2.605-13.003.322-.815 1.077-3.018 1.958-4.897 1.958h-3.417zm13.41 1.82c0-.282-.816-2.455-1.813-4.827l-1.814-4.313-1.52 4.359c-1.952 5.602-2.057 5.295 1.814 5.295 1.834 0 3.334-.231 3.334-.514zm16-2.153c0-13.152.044-13.333 3.172-13.333 2.282 0 4.805 2.121 9 7.569l5.829 7.569.4-7.57c.371-7.034.63-7.568 3.666-7.568 3.25 0 3.267.072 3.267 13.333 0 13.287-.012 13.333-3.29 13.333-2.442 0-4.762-1.953-9-7.577l-5.71-7.576-.4 7.576c-.372 7.044-.63 7.577-3.667 7.577-3.249 0-3.266-.072-3.266-13.333zm33.334 0V1.117h8.102c7.178 0 8.548.445 12 3.897 3.057 3.057 3.898 5.092 3.898 9.436s-.84 6.38-3.898 9.436c-3.452 3.452-4.822 3.897-12 3.897h-8.102zm15.66 5.063c2.757-2.29 2.008-8.677-1.29-10.987-6.021-4.218-7.703-2.893-7.703 6.069v8.144l3.659-.918c2.012-.505 4.412-1.544 5.333-2.308zm83.007-5.063V1.117h6.666v26.666h-6.666zm14.666 0V1.117h10c9.111 0 10 .237 10 2.666 0 2.618-3.531 3.496-11 2.737-1.525-.155-2.333.688-2.333 2.436 0 2.192 1.02 2.748 5.655 3.084 4.125.3 5.775 1.041 6.098 2.743.37 1.951-.573 2.334-5.753 2.334-5.186 0-6.121.38-5.739 2.333.323 1.645 1.827 2.384 5.098 2.504 7.686.283 7.974.397 7.974 3.163 0 2.43-.889 2.666-10 2.666h-10zm26.667 0c0-13.037.068-13.333 3.077-13.333 2.202 0 4.666 2.165 8.667 7.614l5.59 7.614V8.731c0-7.233.166-7.614 3.333-7.614h3.333V14.45c0 12.957-.085 13.332-3 13.27-2.048-.045-4.8-2.452-8.667-7.584l-5.666-7.52V20.2c0 7.2-.169 7.583-3.334 7.583h-3.333zm60 0V1.117h10c9.111 0 10 .237 10 2.666 0 2.272-.889 2.667-6 2.667s-6 .395-6 2.667c0 2.222.889 2.666 5.333 2.666 4.445 0 5.334.445 5.334 2.667s-.89 2.667-5.334 2.667c-4.509 0-5.333.427-5.333 2.767 0 2.468.685 2.725 6.333 2.373 5.67-.353 6.378-.084 6.76 2.566.41 2.849.02 2.96-10.334 2.96h-10.76z" fill="#fff"/>
	<image src="<?php echo get_stylesheet_directory_uri() . '/assets/images/logos/icon-collegelogo.png'; ?>" xlink:href="">
</symbol>

<symbol id="search" viewBox="0 0 17 18">
	<circle fill="none" stroke="#FFF" stroke-width="2.292" cx="7" cy="7" r="5.8"/>
	<path fill="none" stroke="#FFF" stroke-width="2.292" d="M10.5 11.4l5.7 5.8"/>
</symbol>

<symbol id="icon-fivelines" viewBox="0 0 60 47">
	<rect x="5" y="19.8" width="48" height="6.4" rx="3" fill="#fff"/><rect x="5" y="38.6" width="48" height="6.4" rx="3" fill="#fff"/><rect x="5" y="1" width="48" height="6.4" rx="3" fill="#fff"/>
	<image src="<?php echo get_stylesheet_directory_uri() . '/assets/images/icons/icon-fivelines.png'; ?>" xlink:href="">
</symbol>
         
<symbol id="icon-close" viewBox="0 0 41.608 41.6">
	<path d="M35.514 6.09c-8.12-8.12-21.29-8.12-29.42 0-8.13 8.12-8.12 21.29 0 29.42 8.12 8.12 21.29 8.12 29.42 0 8.13-8.12 8.12-21.3 0-29.42zm-5.11 23.13l-1.18 1.18-8.44-8.42-8.4 8.38-1.18-1.18 8.4-8.38-8.4-8.38 1.18-1.18 8.4 8.38 8.44-8.42 1.18 1.18-8.44 8.42z" class="path1" fill="#4c87b5" fill-opacity=".941"/>
	<path d="M11.204 12.42l1.18-1.18 8.4 8.38 8.44-8.42 1.18 1.18-8.44 8.42 8.44 8.42-1.18 1.18-8.44-8.42-8.4 8.38-1.18-1.18 8.4-8.38z" fill="#fff"/>
	<image src="<?php echo get_stylesheet_directory_uri() . '/assets/images/icons/icon-close.png'; ?>" xlink:href="">
</symbol>
     
<symbol id="icon-search-close" viewBox="0 0 41.608 41.6">
	<path d="M35.514 6.09c-8.12-8.12-21.29-8.12-29.42 0-8.13 8.12-8.12 21.29 0 29.42 8.12 8.12 21.29 8.12 29.42 0 8.13-8.12 8.12-21.3 0-29.42zm-5.11 23.13l-1.18 1.18-8.44-8.42-8.4 8.38-1.18-1.18 8.4-8.38-8.4-8.38 1.18-1.18 8.4 8.38 8.44-8.42 1.18 1.18-8.44 8.42z" class="path1" fill="#00337a" fill-opacity=".941"/>
	<path d="M11.204 12.42l1.18-1.18 8.4 8.38 8.44-8.42 1.18 1.18-8.44 8.42 8.44 8.42-1.18 1.18-8.44-8.42-8.4 8.38-1.18-1.18 8.4-8.38z" fill="#fff"/>
	<image src="<?php echo get_stylesheet_directory_uri() . '/assets/images/icons/icon-close.png'; ?>" xlink:href="">
</symbol>

<symbol id="icon-angle-down" viewBox="0 0 21 32">
<path class="path1" d="M19.196 13.143q0 0.232-0.179 0.411l-8.321 8.321q-0.179 0.179-0.411 0.179t-0.411-0.179l-8.321-8.321q-0.179-0.179-0.179-0.411t0.179-0.411l0.893-0.893q0.179-0.179 0.411-0.179t0.411 0.179l7.018 7.018 7.018-7.018q0.179-0.179 0.411-0.179t0.411 0.179l0.893 0.893q0.179 0.179 0.179 0.411z"></path>
</symbol>

<symbol xmlns="http://www.w3.org/2000/svg" viewBox="0 0 40 40" id="facebook" width="40px" height="40px" >

<defs><style>.footer-icon-color{fill:#9ad2e1;}.cls-2{fill:#00285e;}</style></defs><g data-name="Layer 2"><g data-name="Layer 1"><rect class="footer-icon-color" width="40" height="40" rx="2.21" ry="2.21"/><path id="f" class="cls-2" d="M27.6,40V24.51h5.2l.78-6h-6V14.62c0-1.75.48-2.94,3-2.94h3.2V6.28A43.65,43.65,0,0,0,29.13,6c-4.61,0-7.76,2.81-7.76,8v4.45H16.15v6h5.22V40Z"/></g></g>

</symbol>

<symbol xmlns="http://www.w3.org/2000/svg" viewBox="0 0 40 40" id="instagram" width="40px" height="40px">
<defs><style>.footer-icon-color{fill:#9ad2e1;}.cls-2{fill:#00285e;}</style></defs><g data-name="Layer 2"><g data-name="Layer 1"><rect class="footer-icon-color" width="40" height="40" rx="2.21" ry="2.21"/><path class="cls-2" d="M20,9.07c3.56,0,4,0,5.39.08a7.16,7.16,0,0,1,2.47.46,4.31,4.31,0,0,1,2.53,2.53,7.16,7.16,0,0,1,.46,2.47c.07,1.41.08,1.83.08,5.39s0,4-.08,5.39a7.16,7.16,0,0,1-.46,2.47,4.31,4.31,0,0,1-2.53,2.53,7.16,7.16,0,0,1-2.47.46c-1.41.07-1.83.08-5.39.08s-4,0-5.39-.08a7.16,7.16,0,0,1-2.47-.46,4.31,4.31,0,0,1-2.53-2.53,7.16,7.16,0,0,1-.46-2.47C9.08,24,9.07,23.56,9.07,20s0-4,.08-5.39a7.16,7.16,0,0,1,.46-2.47,4.31,4.31,0,0,1,2.53-2.53,7.16,7.16,0,0,1,2.47-.46C16,9.08,16.44,9.07,20,9.07m0-2.4c-3.62,0-4.08,0-5.5.08a9.57,9.57,0,0,0-3.23.62,6.7,6.7,0,0,0-3.9,3.9,9.57,9.57,0,0,0-.62,3.23c-.07,1.42-.08,1.88-.08,5.5s0,4.08.08,5.5a9.57,9.57,0,0,0,.62,3.23,6.7,6.7,0,0,0,3.9,3.9,9.57,9.57,0,0,0,3.23.62c1.42.07,1.88.08,5.5.08s4.08,0,5.5-.08a9.57,9.57,0,0,0,3.23-.62,6.7,6.7,0,0,0,3.9-3.9,9.57,9.57,0,0,0,.62-3.23c.07-1.42.08-1.88.08-5.5s0-4.08-.08-5.5a9.57,9.57,0,0,0-.62-3.23,6.7,6.7,0,0,0-3.9-3.9,9.57,9.57,0,0,0-3.23-.62c-1.42-.07-1.88-.08-5.5-.08Z"/><path class="cls-2" d="M20,13.15A6.85,6.85,0,1,0,26.85,20,6.85,6.85,0,0,0,20,13.15Zm0,11.29A4.44,4.44,0,1,1,24.44,20,4.44,4.44,0,0,1,20,24.44Z"/><circle class="cls-2" cx="27.12" cy="12.88" r="1.6"/></g></g>
</symbol>

<symbol xmlns="http://www.w3.org/2000/svg" viewBox="0 0 40 40" id="twitter" width="40px" height="40px">
<defs><style>.footer-icon-color{fill:#9ad2e1;}.cls-2{fill:#00285e;}</style></defs><g data-name="Layer 2"><g data-name="Layer 1"><rect class="footer-icon-color" width="40" height="40" rx="2.21" ry="2.21"/><path class="cls-2" d="M33,11.94a10.84,10.84,0,0,1-3.06.84,5.37,5.37,0,0,0,2.34-2.95,10.69,10.69,0,0,1-3.39,1.29,5.33,5.33,0,0,0-9.22,3.65A5.34,5.34,0,0,0,19.8,16a15.12,15.12,0,0,1-11-5.57,5.35,5.35,0,0,0,1.65,7.12A5.24,5.24,0,0,1,8,16.87v.06a5.33,5.33,0,0,0,4.28,5.23,5,5,0,0,1-1.4.19,5.58,5.58,0,0,1-1-.09,5.35,5.35,0,0,0,5,3.7A10.89,10.89,0,0,1,7,28.17,15.16,15.16,0,0,0,30.35,15.39c0-.23,0-.46,0-.69A10.91,10.91,0,0,0,33,11.94Z"/></g></g>
</symbol>

<symbol xmlns="http://www.w3.org/2000/svg" viewBox="0 0 40 40" id="youtube" width="40" height="40">
<defs><style>.footer-icon-color{fill:#9ad2e1;}.cls-2{fill:#00285e;}</style></defs><g data-name="Layer 2"><g data-name="Layer 1"><rect class="footer-icon-color" width="40" height="40" rx="2.21" ry="2.21"/><g id="_Group_" data-name="&lt;Group&gt;"><path id="_Path_" data-name="&lt;Path&gt;" class="cls-2" d="M33.84,13a3.64,3.64,0,0,0-2.55-2.57C29,9.82,20,9.82,20,9.82s-9,0-11.29.61A3.64,3.64,0,0,0,6.16,13a38.33,38.33,0,0,0-.6,7,38.33,38.33,0,0,0,.6,7,3.64,3.64,0,0,0,2.55,2.57c2.26.61,11.29.61,11.29.61s9,0,11.29-.61A3.64,3.64,0,0,0,33.84,27a38.33,38.33,0,0,0,.6-7A38.33,38.33,0,0,0,33.84,13Z"/><polygon id="_Path_2" data-name="&lt;Path&gt;" class="footer-icon-color" points="17.05 24.3 24.6 20 17.05 15.71 17.05 24.3"/></g></g></g>

</symbol>

<symbol id="icon-email" class="icon-email" viewBox="0 0 1528 1024">
	
	<path d="M766.048 613.486h0.348c11.476 0 22.819-3.332 31.995-9.393l2.487-1.601c0.542-0.348 1.109-0.676 1.676-1.054l28.991-23.985 691.967-571.011c-1.432-1.974-3.874-3.327-6.471-3.327h-1505.388c-1.87 0-3.601 0.676-4.981 1.815l723.947 596.724c9.124 7.554 22.142 11.859 35.842 11.859zM3.108 83.805v846.445l518.64-418.95-518.64-427.475zM1006.916 514.12l518.093 416.319v-843.809l-518.093 427.5zM842.203 650.007c-20.653 16.945-47.666 26.285-76.035 26.285-28.476 0-55.465-9.286-76.065-26.151l-118.778-97.964-568.226 458.957v1.457c0 4.357 3.735 8.068 8.147 8.068h1505.736c4.327 0 8.037-3.705 8.037-8.095v-1.353l-567.728-456.167-115.043 94.955z"></path>
</symbol>



<symbol id="icon-footer-email" class="icon-footer-email" viewBox="0 0 40 40"  width="40" height="40">
<defs><style>.footer-icon-color{fill:#9ad2e1;}.cls-2{fill:#00285e;}</style></defs><g data-name="Layer 2"><g data-name="Layer 1"><rect class="footer-icon-color" width="40" height="40" rx="2.21" ry="2.21"/><path class="cls-2" d="M26.24,23c0,1.78.48,2.26,1.37,2.26,1.47,0,3.67-1.37,3.73-6.47,0-6.18-4.14-10.26-10.86-10.26-7,0-11.82,4.68-11.82,11.69,0,6.82,4.46,11.12,11.18,11.12a17.16,17.16,0,0,0,7.77-1.72l.61,1.28A17,17,0,0,1,19.84,33C12.13,33,7,27.87,7,20.22,7,12.29,12.67,7,20.48,7,28.09,7,33,11.78,33,18.79,33,25.54,29.18,27,26.82,27c-1.53,0-2.9-.35-3.44-2.16A6.74,6.74,0,0,1,18.21,27C15,27,13,25,13,20.13s2.07-6.88,5.48-6.88a7.33,7.33,0,0,1,4.65,1.68V13.5h3.12Zm-3.12-5.49a5.06,5.06,0,0,0-3.57-1.62c-2.1,0-3.5,1.08-3.5,4.24,0,3.41,1.24,4.43,3.25,4.43,1.56,0,2.61-.77,3.82-1.88Z"/></g></g>
</symbol>




<symbol id="icon-footer-linkedin" class="icon-footer-linkedin" viewBox="0 0 40 40" width="40px" height="40px">

<defs><style>.footer-icon-color{fill:#9ad2e1;}.cls-2{fill:#00285e;}</style></defs><g data-name="Layer 2"><g data-name="Layer 1"><rect class="footer-icon-color" width="40" height="40" rx="2.21" ry="2.21"/><path class="cls-2" d="M6.16,15.2h5.93V34.29H6.16Zm3-9.49A3.44,3.44,0,1,1,5.69,9.15,3.45,3.45,0,0,1,9.13,5.71"/><path class="cls-2" d="M15.82,15.2H21.5v2.61h.08a6.25,6.25,0,0,1,5.62-3.08c6,0,7.11,3.95,7.11,9.09V34.29H28.38V25c0-2.22,0-5.07-3.08-5.07s-3.56,2.42-3.56,4.91v9.44H15.82Z"/></g></g>

</symbol>





<symbol id="rss" xmlns="http://www.w3.org/2000/svg" version="1.1" viewBox="0 0 40 40">

<defs><style>.footer-icon-color{fill:#9ad2e1;}.cls-2{fill:#00285e;}</style></defs><g data-name="Layer 2"><g data-name="Layer 1"><rect class="footer-icon-color" width="40" height="40" rx="2.21" ry="2.21"/><path class="cls-2" d="M29.06,34.44a23.44,23.44,0,0,0-6.88-16.62h0A23.44,23.44,0,0,0,5.56,10.94h0V5.56A28.87,28.87,0,0,1,34.44,34.44H29.06Zm-9.95,0H24.5A18.94,18.94,0,0,0,5.56,15.5v5.39h0a13.47,13.47,0,0,1,9.58,4h0a13.47,13.47,0,0,1,4,9.58Zm-9.7-7.71a3.86,3.86,0,1,0,3.86,3.86A3.85,3.85,0,0,0,9.41,26.73Z"/></g></g>

</symbol>


<symbol id="footer-icon-uf" class="footer-icon-uf"  viewBox="0 0 194.8 35.8">
	<title>UF Watermark Logo</title>
<path fill="#f45a1d" d="M56.1 1.2v33.9h1.5V1.2h-1.5"/><path fill="#ffffff" d="M169.1 10c.1.4.4.6.7.8.3.2.8.3 1.4.3.5 0 .9-.1 1.3-.2s.8-.4 1.2-.7c.4-.3.7-.5.9-.8.3-.3.5-.8.7-1.5.2-.6.3-1.3.3-1.9 0-.3 0-.6-.1-.9-.1-.3-.2-.5-.4-.7-.2-.2-.4-.4-.8-.5-.3-.1-.7-.2-1.2-.2s-1 .1-1.4.3c-.4.2-.9.4-1.2.7-.4.3-.6.5-.8.7-.2.3-.5.8-.7 1.4-.2.7-.3 1.3-.3 1.9.2.5.3.9.4 1.3zm1.8-3.5c.2-.8.5-1.4.7-1.7.3-.3.6-.4 1-.4s.7.1.9.4c.2.3.4.7.4 1.3 0 .7-.1 1.4-.3 2.2-.1.5-.3.9-.5 1.2-.2.3-.4.5-.6.7-.2.1-.4.2-.7.2-.4 0-.7-.1-1-.4-.2-.3-.3-.7-.3-1.3.1-.6.2-1.4.4-2.2zm6.8-1.7h1l-1.1 5.5c-.3 1.5-.5 2.5-.7 3-.1.2-.2.4-.3.5-.1.1-.2.1-.4.1-.1 0-.3-.1-.4-.2-.1-.1-.2-.3-.3-.5h-.2c-.1.3-.1.5-.2.7-.1.2-.2.5-.3.9.2.1.4.1.6.1.2 0 .5-.1.7-.2.5-.2.9-.6 1.4-1.2.5-.5.8-1.2 1.1-1.9.3-.7.6-1.8 1-3.4l.8-3.5h1.8c0-.2.1-.5.2-.8l-.1-.1c-.1.2-.3.2-.7.2h-1.2c.1-.6.3-1.3.4-1.9.1-.2.1-.4.2-.5l.3-.3c.1-.1.2-.1.4-.1s.3.1.5.2.4.3.6.7h.2c.1-.6.2-1.2.4-1.9-.1-.2-.3-.2-.5-.2-.3 0-.5 0-.7.1-.2.1-.5.3-1 .7-.5.4-1 .8-1.4 1.2-.3.3-.5.5-.6.8-.1.2-.2.4-.3.9 0 .2-.1.3-.1.4-.2.1-.5.2-.8.3-.3.1-.6.2-.7.2l-.1.4c.1-.2.3-.2.5-.2zM76.1 21.3h-1.3c0 .9-.1 1.5-.2 1.7-.1.2-.2.3-.3.3-.3.1-1.2.2-2.5.2-.5 0-1.3 0-2.6-.1v-2.1c0-2.6.1-4.4.2-5.4.3 0 .8 0 1.6-.1h1.4c.9 0 1.7.1 2.3.2.7.1 1.1.2 1.3.4.1 0 .1.1.1.1 0 .1.1.4.1.8.1.8.1 1.4.1 1.6h1.2c0-.7.1-1.4.1-2.3.1-.9.2-1.6.3-2.2l-.1-.2c-.9-.1-1.9-.2-2.9-.2l-7.3.1-5.4-.1v1.3c1 .1 1.6.1 1.8.2.2.1.4.1.4.2.1.1.1.1.1.2.1.3.1.9.2 1.7.1 2.7.1 4.1.1 4.2V28c0 .5 0 1.4-.1 2.6-.1 1.2-.1 2-.1 2.2-.1.4-.1.7-.2.8l-.2.2c-.2.1-.9.1-2 .1v1.2c1.9-.1 3.2-.1 4.1-.1l5.9.1V34c-1.4-.1-2.2-.2-2.4-.2-.2-.1-.3-.2-.4-.3-.1-.2-.2-.7-.2-1.7-.1-1-.1-2.6-.1-5v-1.7h1.2c1.6 0 2.8.1 3.5.2.3.1.5.2.5.3.1.3.2 1 .3 2.3h1.3c.2-2.7.2-4.9.2-6.6zm8.4 13.8c.7 0 1.8 0 3.5.1 2.2.1 3.4.1 3.6.1 1.3 0 2.2 0 2.9-.1.3 0 .6-.1.9-.2 0-.2.1-.8.1-1.7l.4-3.1v-.5h-1.2c-.2 1-.4 1.9-.6 2.6-.1.3-.2.5-.3.6-.2.1-.4.1-.8.2-1.1.2-2.5.3-4 .3-.5 0-1.5 0-2.8-.1v-2.6-4.3V22c0-1.7 0-3.1.1-4.2 0-1.1.1-1.7.1-1.9 0-.1.1-.2.2-.3.3-.1.9-.2 2.1-.3V14c-1.6.1-3.4.1-5.2.1-1.6 0-3.1 0-4.4-.1v1.3c1.3.1 2.1.2 2.3.3.1.1.2.2.2.3.1.3.2 1.4.2 3.3v5.9c0 2.2 0 4-.1 5.6 0 1.6-.1 2.5-.1 2.7 0 .1 0 .1-.1.2s-.2.2-.4.3c-.5.3-.8.5-1.1.6v.8c2-.2 3.5-.2 4.5-.2zm13-4.2c.9 1.6 2.2 2.8 3.8 3.6 1.6.8 3.6 1.2 5.8 1.2 2.1 0 4-.3 5.6-1 1.2-.5 2.3-1.2 3.2-2.2.9-.9 1.6-2 2.1-3.2.7-1.6 1-3.4 1-5.3 0-1.1-.1-2.1-.3-3.1-.2-.9-.6-1.8-1-2.6s-1.1-1.5-1.9-2.3c-.9-.7-1.8-1.3-2.9-1.7-1.5-.5-3.2-.8-5-.8-1.8 0-3.5.3-5.1.8-1.2.4-2.3 1.1-3.4 2.1-1 1-1.8 2.1-2.4 3.5-.6 1.4-.8 3-.8 4.8 0 2.6.4 4.6 1.3 6.2zm4-11.4c.5-1.4 1.2-2.4 2.3-3.1 1-.7 2.3-1 3.8-1 1.3 0 2.3.2 3.1.7.8.4 1.5 1.1 2 1.9.6.8 1 1.8 1.3 3 .3 1.2.5 2.5.5 3.9 0 2.1-.3 3.8-.9 5.3-.6 1.4-1.4 2.5-2.4 3.1-1 .6-2.1.9-3.4.9-1.4 0-2.6-.3-3.6-1-1-.6-1.8-1.7-2.5-3.3-.6-1.5-1-3.5-1-5.8.1-1.8.3-3.3.8-4.6zm19.8-3.9c.1.1.2.1.2.3.1.3.2 1 .2 2.3l.1 3.2V27l-.1 4.4c0 .8-.1 1.4-.2 1.8 0 .2-.1.4-.1.4-.1.1-.1.1-.3.2-.2.1-.9.1-2 .2v1.3c1.3-.1 2.8-.1 4.4-.1 1.8 0 3.5 0 5.2.1V34c-1 0-1.6 0-1.8-.1-.2 0-.3-.1-.4-.2-.1-.1-.2-.1-.2-.2-.1-.2-.1-.5-.2-1.1 0-.3-.1-1.5-.1-3.5v-4.8c0-1 0-2.9.1-5.7 0-1.3.1-2.1.1-2.5.5-.1 1-.1 1.4-.1 1.1 0 1.8.1 2.3.2.7.2 1.2.7 1.7 1.3.4.6.7 1.4.7 2.3 0 .9-.2 1.7-.6 2.5-.4.7-.9 1.3-1.6 1.5-.6.3-1.5.4-2.7.4l-.2.5c.3.2.6.6.9 1l2.4 3.6 3.2 5.3c.2.4.3.6.4.9.8 0 1.6-.1 2.4-.1.7 0 1.8 0 3.4.1V34c-.5 0-.8 0-1-.1-.2-.1-.3-.2-.5-.4s-.6-.8-1.4-1.8c-.1-.1-.4-.6-1-1.5l-2.3-3.5c-.1-.1-.1-.2-.2-.3-.1-.1-.2-.4-.6-.9-.3-.5-.6-.9-.9-1.4 1.6-.6 2.7-1.4 3.5-2.4.8-1 1.1-2.1 1.1-3.3 0-1-.3-1.9-.8-2.6-.6-.7-1.2-1.2-2-1.4-.8-.2-2-.3-3.6-.3-.8 0-1.9 0-3.1.1-.8 0-1.7.1-2.7.1h-2.9c-1.4 0-2.2-.1-2.4-.1v1.2c1.2 0 2 .1 2.2.2zm24.2-1.5c-1.6 0-3.1 0-4.4-.1v1.3c1.1 0 1.7.1 1.9.1.2 0 .3.1.4.2.1.1.1.2.1.3.1.3.1 1.1.2 2.4v10.2c0 1 0 2.2-.1 3.4-.1.8-.1 1.3-.1 1.4 0 .1-.1.2-.1.2-.1.1-.2.1-.4.2-.2 0-.8.1-1.8.1v1.3c1.3-.1 2.7-.1 4.4-.1 1.9 0 3.6 0 5.3.1v-1.3c-1 0-1.6-.1-1.8-.1-.2 0-.4-.1-.5-.2-.1-.1-.2-.2-.2-.3-.1-.3-.2-1-.2-2V22.3c0-.2 0-1.5.1-4v-1.5c0-.5.1-.8.2-1 0-.1.1-.2.2-.2.1-.1.2-.1.4-.2.2 0 .8-.1 1.8-.1V14c-1.8.1-3.6.1-5.4.1zm11.7 21l4.5.1c2 0 3.8-.2 5.2-.7 1.4-.5 2.8-1.2 4-2.2 1.2-1 2.2-2.3 2.9-3.8.7-1.5 1.1-3.2 1.1-5.2 0-1.5-.2-2.9-.7-4.2-.3-.8-.7-1.5-1.2-2.1-.5-.7-1.2-1.2-2-1.7s-1.7-.8-2.8-1c-1.1-.2-2.5-.3-4.3-.3-.8 0-1.8 0-3.1.1-1.8.1-3 .1-3.6.1l-5.5-.1v1.2c1.1.1 1.7.2 1.9.3s.3.1.4.2c.1.1.1.1.1.2.1.4.2 1.3.2 2.7.1 2.6.1 4.5.1 5.9V27c0 3-.1 5.2-.2 6.6-.3.2-.7.5-1 .7-.2.1-.3.2-.4.2v.7l4.4-.1zm1.3-7.7v-3.5c0-4 .1-6.7.2-8.1.9-.1 1.8-.2 2.6-.2 2.1 0 3.6.2 4.6.5 1 .4 1.9.9 2.5 1.8.7.8 1.1 1.7 1.4 2.8.3 1.1.4 2.2.4 3.3 0 1.3-.1 2.4-.4 3.5-.3 1.1-.7 2-1.2 2.8-.5.8-1.1 1.4-1.7 1.8-.6.4-1.2.7-2 .9-1 .3-2.2.4-3.6.4-.9 0-1.8-.1-2.7-.2-.1-.8-.1-2.8-.1-5.8zm17.2 7.7l3.5.1V34c-1.2 0-1.9-.1-2.2-.3-.2-.1-.2-.3-.2-.5 0-.3.3-1.2.8-2.6l.7-1.8h7.8l1.3 3.3c.2.6.3 1 .3 1.2 0 .2-.1.3-.2.4-.2.1-.8.2-2.1.2v1.2l5.3-.1 4.2.1V34c-.3 0-.5-.1-.7-.1-.5 0-.8-.1-.9-.1-.1 0-.2-.1-.3-.2-.1-.1-.2-.2-.3-.4l-.6-1.4-.9-2.1-6.8-15.8h-2.2l-1.3 3.4-3.9 9.8c-.7 1.8-1.3 3.1-1.5 3.7-.6 1.3-.9 2.1-1 2.3-.1.2-.2.4-.3.5-.1.1-.2.2-.4.2s-.6.1-1.5.2v1.2l3.4-.1zm6.3-15.9l3.2 7.8H178.9l3.1-7.8zM63.1 1.8l.2.2c0 .1.1.2.1.4V8c0 .2.1.5.2.8.1.3.3.5.6.7.3.2.6.4 1 .5.6.2 1.2.3 1.8.3.6 0 1-.1 1.5-.2.4-.1.8-.3 1.1-.5.3-.2.5-.5.7-.8.2-.3.3-.6.3-1 .1-.4.1-.8.1-1.2V5.1 3.3c0-.8.1-1.2.1-1.3 0-.1.1-.2.1-.2.1-.1.3-.1.7-.1v-.5h-3v.5c.5 0 .8.1.9.1.1 0 .1.1.1.2s.1.4.1 1v3.3c0 .9-.1 1.5-.2 1.8-.1.3-.4.6-.7.8-.3.2-.8.3-1.4.3-.5 0-.9-.1-1.3-.2-.3-.2-.6-.3-.7-.6-.2-.2-.3-.6-.3-1V3.8c0-.9 0-1.5.1-1.7 0-.1.1-.2.1-.2.1-.1.4-.1.9-.1v-.6h-4.1v.5l1 .1zm11.3 8.3H77.5v-.6h-.1c-.1 0-.3 0-.6-.1-.1 0-.2 0-.2-.1l-.1-.1c0-.1-.1-.4-.1-.9V3.2c2.5 3.1 4.4 5.4 5.8 6.9.4.1.7.1 1.1.2l.1-.1c-.1-.6-.1-2.3-.1-5.1V3.4c0-.8.1-1.2.1-1.5 0 0 0-.1.1-.1.1-.1.4-.1.9-.1v-.5h-3v.5c.6 0 .9.1 1 .1.1 0 .1.1.1.3.1.4.1 1.7.1 4v1.5c-.6-.6-1.3-1.4-2.2-2.5-1.2-1.5-2.3-2.8-3.2-3.9h-2.7v.5c.4 0 .7.1.8.1.1 0 .2.1.2.1s.1.1.1.2V7.9c0 .6-.1 1-.1 1.2 0 .1 0 .2-.1.2l-.1.1c-.1 0-.4 0-.9.1v.6zM89 1.2h-1.8v.6c.5 0 .7 0 .8.1.1 0 .1 0 .2.1 0 0 0 .1.1.1 0 .1.1.5.1 1V7.4c0 .4 0 .9-.1 1.4v.6s0 .1-.1.1c0 0-.1.1-.2.1h-.8v.6h4v-.7h-.8c-.1 0-.2 0-.2-.1l-.1-.1c0-.1-.1-.4-.1-.9V4.7 3v-.6c0-.2 0-.3.1-.4 0 0 0-.1.1-.1 0 0 .1-.1.2-.1h.8v-.6H89zm10.1 8.9c.3-.7.8-2 1.5-3.7l.9-2 .5-1.1c.4-.9.6-1.4.7-1.4.1-.1.3-.1.7-.1v-.6h-3v.6H101.3s.1 0 .1.1v.4c0 .2-.2.5-.3 1-.3.7-.4 1.1-.5 1.2L99.2 8l-1.6-4v-.1l-.3-.6c-.3-.7-.4-1.1-.4-1.2 0-.1 0-.1.1-.2 0 0 .1-.1.2-.1.2 0 .4-.1.8-.1v-.5H93.8v.6c.4 0 .7 0 .8.1.1 0 .2.2.4.6.2.3.6 1.3 1.3 3l.9 2.2c.3.8.7 1.6 1 2.5h.9v-.1zm9.2-.1h4.3l.1-.1c0-.5 0-1.2.1-2.1h-.5c-.1.6-.2.9-.2 1.2 0 .1-.1.1-.1.1-.1.1-.3.1-.7.1h-2.5V5.8h1c.5 0 .8 0 1.1.1.1 0 .2.1.3.2.1.1.1.4.1.9h.5V4.2h-.5c0 .4 0 .6-.1.8 0 .1-.1.1-.1.1h-2.3V3.8c0-.7 0-1.4.1-1.8h1.2c.4 0 .8 0 1.2.1.3 0 .5.1.5.1l.1.1c0 .1 0 .4.1.9h.5c0-.5.1-.9.1-.9l.1-.9v-.1H106.1v.5c.5 0 .8.1.9.1l.1.1c0 .1.1.4.1.9V7c0 .3 0 .9-.1 1.6 0 .4 0 .7-.1.9-.2.1-.4.2-.6.4v.3c1.1-.2 1.8-.2 1.9-.2zm8.4-8.2l.1.1c0 .1.1.4.1 1v3.7l-.1 1.9c0 .3 0 .6-.1.7 0 .1 0 .1-.1.2l-.1.1c-.1 0-.4.1-.9.1v.6h4v-.7h-.7c-.1 0-.1 0-.2-.1l-.1-.1c0-.1-.1-.2-.1-.5V7.3v-2-2.4-1c.2 0 .4-.1.6-.1.5 0 .8 0 1 .1.3.1.5.3.7.5.2.3.3.6.3 1s-.1.7-.3 1c-.2.3-.4.5-.7.6-.3.1-.6.2-1.1.2l-.1.2c.1.1.3.2.4.4.3.4.6.9 1 1.5l1.4 2.2c.1.1.1.3.2.4h2.4v-.4c-.2 0-.3 0-.4-.1-.1 0-.1-.1-.2-.2s-.3-.3-.6-.7c0 0-.2-.2-.4-.6l-1-1.5s0-.1-.1-.1l-.2-.4c-.1-.2-.3-.4-.4-.6.7-.2 1.1-.6 1.5-1 .3-.4.5-.9.5-1.4 0-.4-.1-.8-.3-1.1-.2-.3-.5-.5-.8-.6-.3-.1-.8-.1-1.5-.1H115.8v.5c.5.2.8.2.9.2zm16.4.7c0-.3.1-.5.1-.8l-.1-.2c-.3-.2-.7-.3-1.1-.3-.4-.1-.9-.1-1.3-.1s-.9 0-1.3.1-.8.3-1.1.5c-.3.2-.6.5-.8.9-.2.4-.3.8-.3 1.3 0 .3.1.7.2.9.1.3.3.5.5.8.2.2.5.4.9.5.2.1.7.2 1.5.3.5.1.9.2 1.1.4.2.1.4.3.5.5.1.2.1.4.1.7 0 .3-.1.6-.2.9s-.4.4-.7.6c-.3.1-.7.2-1.1.2-.5 0-.9-.1-1.3-.3-.4-.2-.7-.4-.8-.7-.1-.5-.1-.8-.1-1.1h-.5c0 1-.1 1.7-.2 2.2.5.2.9.4 1.3.5.4.1.9.1 1.4.1.7 0 1.3-.1 1.8-.3.3-.1.6-.3.9-.6.3-.3.5-.5.7-.8.2-.4.3-.9.3-1.4 0-.3 0-.6-.1-.8-.1-.2-.2-.5-.3-.6-.1-.2-.3-.3-.5-.4-.2-.1-.5-.2-.8-.3-.1 0-.4-.1-.9-.2-.4-.1-.8-.1-1-.2-.3-.1-.6-.2-.7-.3-.2-.1-.3-.2-.4-.4-.1-.2-.1-.4-.1-.7 0-.4.2-.7.5-1 .3-.3.8-.4 1.3-.4.4 0 .8.1 1.1.2.3.1.6.3.7.5 0 .2.1.5.1 1h.5c.1-.6.1-1 .2-1.2zm5.6-1.3h-1.8v.6c.5 0 .7 0 .8.1.1 0 .1 0 .2.1 0 0 0 .1.1.1 0 .1.1.5.1 1V7.4c0 .4 0 .9-.1 1.4v.6s0 .1-.1.1c0 0-.1.1-.2.1h-.8v.6h4v-.7h-.8c-.1 0-.2 0-.2-.1l-.1-.1c0-.1-.1-.4-.1-.9V4.7 3v-.6c0-.2 0-.3.1-.4 0 0 0-.1.1-.1 0 0 .1-.1.2-.1h.8v-.6h-2.2zm8.8 8.8c.6 0 1.3 0 2.1.1v-.5c-.5 0-.8-.1-.9-.1-.1-.1-.2-.1-.2-.2 0-.2-.1-.7-.1-1.6V3.8 2.1h.9c.5 0 .9 0 1.3.1h.2s.1.1.1.3c0 .3.1.6.1.9h.5V2c0-.2 0-.4.1-.7l-.1-.1h-8l-.1.1c0 .2 0 .4.1.6v1.5h.5c0-.4 0-.7.1-1 0-.1 0-.2.1-.2 0 0 .1 0 .2-.1h2.1v5.5c0 .9 0 1.5-.1 1.6 0 .1-.1.2-.2.3-.1.1-.4.1-.9.1v.5c.9-.1 1.6-.1 2.2-.1zm10.4-6.4c-.3-.6-.6-1.1-.9-1.6-.2-.3-.4-.5-.5-.6-.1-.1-.3-.2-.6-.4-.2.1-.5.1-.7.2l-1.3.3V2h.6c.1 0 .2.2.5.4.3.3.7.8 1 1.4.5.7.9 1.4 1.3 2.2.2.3.2.5.2.6V9c0 .2 0 .3-.1.4 0 0-.1.1-.2.1s-.4 0-.8.1v.6h4.1v-.7c-.5 0-.8 0-.8-.1-.1 0-.2-.1-.2-.1 0-.1-.1-.2-.1-.4V6.7v-.5c0-.1.1-.3.2-.5.1-.3.5-.9 1.1-1.8.6-.9 1.1-1.7 1.7-2.4v-.3h-1c-.1.1-.2.4-.4.8-.7 1.2-1.1 1.9-1.2 2.1l-.8 1.3c-.3-.2-.6-.8-1.1-1.8z"/><g fill="#ffffff"><path d="M36.2 29.4v-8.7h8V15h-8V6.9H45V10h5.8V1.2H27.6v5.7h2.2v22.5h-2.2v5.7h10.7v-5.7h-2.1M24.6 22.3V6.9h2.1V1.2H16v5.7h2.1v13.5c0 5.7-.7 8.4-4.7 8.4S8.7 26 8.7 20.4V6.9h2.1V1.2H0v5.7h2.1v15.4c0 3.4 0 6.1 1.6 8.6 1.8 2.8 5 4.6 9.7 4.6 8.2 0 11.2-4.3 11.2-13.2z"/></g><path fill="#ffffff" d="M169.1 10c.1.4.4.6.7.8.3.2.8.3 1.4.3.5 0 .9-.1 1.3-.2s.8-.4 1.2-.7c.4-.3.7-.5.9-.8.3-.3.5-.8.7-1.5.2-.6.3-1.3.3-1.9 0-.3 0-.6-.1-.9-.1-.3-.2-.5-.4-.7-.2-.2-.4-.4-.8-.5-.3-.1-.7-.2-1.2-.2s-1 .1-1.4.3c-.4.2-.9.4-1.2.7-.4.3-.6.5-.8.7-.2.3-.5.8-.7 1.4-.2.7-.3 1.3-.3 1.9.2.5.3.9.4 1.3zm1.8-3.5c.2-.8.5-1.4.7-1.7.3-.3.6-.4 1-.4s.7.1.9.4c.2.3.4.7.4 1.3 0 .7-.1 1.4-.3 2.2-.1.5-.3.9-.5 1.2-.2.3-.4.5-.6.7-.2.1-.4.2-.7.2-.4 0-.7-.1-1-.4-.2-.3-.3-.7-.3-1.3.1-.6.2-1.4.4-2.2zm6.8-1.7h1l-1.1 5.5c-.3 1.5-.5 2.5-.7 3-.1.2-.2.4-.3.5-.1.1-.2.1-.4.1-.1 0-.3-.1-.4-.2-.1-.1-.2-.3-.3-.5h-.2c-.1.3-.1.5-.2.7-.1.2-.2.5-.3.9.2.1.4.1.6.1.2 0 .5-.1.7-.2.5-.2.9-.6 1.4-1.2.5-.5.8-1.2 1.1-1.9.3-.7.6-1.8 1-3.4l.8-3.5h1.8c0-.2.1-.5.2-.8l-.1-.1c-.1.2-.3.2-.7.2h-1.2c.1-.6.3-1.3.4-1.9.1-.2.1-.4.2-.5l.3-.3c.1-.1.2-.1.4-.1s.3.1.5.2.4.3.6.7h.2c.1-.6.2-1.2.4-1.9-.1-.2-.3-.2-.5-.2-.3 0-.5 0-.7.1-.2.1-.5.3-1 .7-.5.4-1 .8-1.4 1.2-.3.3-.5.5-.6.8-.1.2-.2.4-.3.9 0 .2-.1.3-.1.4-.2.1-.5.2-.8.3-.3.1-.6.2-.7.2l-.1.4c.1-.2.3-.2.5-.2z"/></symbol>
   <image src="<?php echo get_stylesheet_directory_uri() . '/assets/images/logos/UFlogoFooter.png'; ?>" xlink:href="">
</symbol>



<symbol id="icon-arrow-left" viewBox="0 0 75 75">
<style>.cls-1{fill:#bc581a;}</style><g data-name="Layer 2"><g data-name="Layer 1"><path class="cls-1" d="M37.5,0A37.5,37.5,0,1,1,0,37.5,37.72,37.72,0,0,1,37.5,0Zm0,5.2A32.39,32.39,0,1,0,69.8,37.5,32.28,32.28,0,0,0,37.5,5.2Zm2.87,48.09L27.63,40.55H57.06V34.63H27.63L40.37,22.07l-4.13-4.31L17,37.5l19.2,20.1Z"/></g></g>
</symbol>


<symbol xmlns="http://www.w3.org/2000/svg" viewBox="0 0 34 53.5" id="caret" class="icon-caret"><path fill="none" stroke="currentColor" stroke-width="10" stroke-linecap="round" stroke-miterlimit="10" d="M5 5l21.9 21.7L5 48.5"/></symbol>

<symbol id="header-line" class="icon-header-line" viewBox="0 0 9.3327619 5.4591612">
  <rect
     y="4.5054784"
     x="1.0463169"
     height="0.90736622"
     width="199.90736"
     id="rect3140"
     style="fill:#bc581a;fill-opacity:1;fill-rule:evenodd;stroke:none;stroke-width:0.09263377px;stroke-linecap:butt;stroke-linejoin:miter;stroke-opacity:1" />


</symbol>

<symbol id="icon-arrow-right" viewBox="0 0 75 75">
<style>.cls-1{fill:#f45a1d;}</style>
<g data-name="Layer 2"><g data-name="Layer 1"><path class="cls-1" d="M75,37.5A37.5,37.5,0,1,1,37.5,0,37.6,37.6,0,0,1,75,37.5Zm-69.8,0A32.3,32.3,0,1,0,37.5,5.2,32.31,32.31,0,0,0,5.2,37.5ZM38.76,57.6,58,37.5,38.76,17.76l-4.13,4.31L47.37,34.63H17.94v5.92H47.37L34.63,53.29Z"/></g></g>
</symbol>

<symbol id="icon-search" viewBox="0 0 30 32">
<path class="path1" d="M20.571 14.857q0-3.304-2.348-5.652t-5.652-2.348-5.652 2.348-2.348 5.652 2.348 5.652 5.652 2.348 5.652-2.348 2.348-5.652zM29.714 29.714q0 0.929-0.679 1.607t-1.607 0.679q-0.964 0-1.607-0.679l-6.125-6.107q-3.196 2.214-7.125 2.214-2.554 0-4.884-0.991t-4.018-2.679-2.679-4.018-0.991-4.884 0.991-4.884 2.679-4.018 4.018-2.679 4.884-0.991 4.884 0.991 4.018 2.679 2.679 4.018 0.991 4.884q0 3.929-2.214 7.125l6.125 6.125q0.661 0.661 0.661 1.607z"></path>
</symbol>

<symbol id="icon-search-thin-open" viewBox="0 0 28 28">
  <path d="M10.5 19a8.437 8.437 0 1 1 0-16.875c2.25.02 4.402.917 6 2.5A8.437 8.437 0 0 1 10.5 19zM28 26.625l-9.5-9.5a10.356 10.356 0 0 0-.625-13.875C13.836-.789 7.289-.789 3.25 3.25s-4.039 10.586 0 14.625a10.012 10.012 0 0 0 7.25 3 10.476 10.476 0 0 0 6.625-2.375l9.5 9.5L28 26.625z" fill-rule="nonzero" fill="#FFF"/>
</symbol>

<symbol id="journeys-begin" viewBox="0 0 334 66">
  	<title>Journeys Begin Here</title>
	<g fill="none" fill-rule="evenodd">
    <path d="M.667 40.617H334V.777H.667v39.84zm2.299-2.3H331.7V3.077H2.966v35.242z" fill="#FF5A0E"/>
    <path d="M23.685 22.083c0 3.774-1.332 5.476-4.518 5.476-1.46 0-3.056-.48-4.471-1.179l.804-2.574c1.07.329 1.88.525 2.838.525 1.179 0 1.79-.655 1.79-2.248v-8.028h3.557v8.028zM39.89 20.732c0-2.467-1.158-3.711-3.122-3.711-1.983 0-3.14 1.244-3.14 3.71 0 2.4 1.157 3.643 3.14 3.643 1.964 0 3.122-1.242 3.122-3.642m3.6 0c0 4.383-2.532 6.827-6.722 6.827-4.208 0-6.74-2.444-6.74-6.827 0-4.41 2.532-6.897 6.74-6.897 4.19 0 6.722 2.488 6.722 6.897M61.877 21.013c0 4.43-1.986 6.547-6.088 6.547-4.08 0-6.066-2.117-6.066-6.547v-6.959h3.558v6.96c0 2.268.849 3.36 2.508 3.36 1.68 0 2.53-1.092 2.53-3.36v-6.96h3.558v6.96zM74.11 20.883c1.486 0 2.315-.677 2.315-1.856 0-1.22-.83-1.918-2.315-1.918h-2.007v3.774h2.007zm6.262 6.48h-3.796l-2.66-3.709h-1.813v3.709h-3.555V14.054h5.519c3.754 0 5.87 1.788 5.87 4.973 0 1.944-.895 3.318-2.532 4.038l2.967 4.014v.284zM95.359 27.363l-5.63-7.504v7.504H86.17V14.054h3.228l5.63 7.594v-7.594h3.557v13.31zM105.67 27.363V14.054h9.82v3.23h-6.262v2.006h5.343v3.055h-5.343V24.2h6.436v3.164zM129.382 27.363h-3.536v-4.19l-4.993-9.119h3.73l2.225 4.19c.305.566.588 1.134.808 1.678.218-.544.503-1.112.805-1.678l2.225-4.19h3.733l-4.997 9.12v4.19zM148.51 17.697c-2.05-.764-3.162-1.003-4.32-1.003-.764 0-1.395.305-1.395.873 0 .611.5.85 3.357 1.81 2.708.917 3.58 1.92 3.58 4.147 0 2.421-1.766 4.035-4.885 4.035-1.726 0-4.452-.697-6.287-1.81l1.332-2.772c2.03 1.112 3.468 1.55 4.755 1.55.786 0 1.224-.329 1.224-.894 0-.568-.348-.786-2.923-1.55-2.575-.765-3.796-2.204-3.796-4.256 0-2.266 1.635-3.992 4.646-3.992 1.702 0 3.403.22 5.76 1.267l-1.048 2.595zM168.816 24.417h1.898c1.373 0 2.159-.478 2.159-1.31 0-.762-.7-1.2-1.92-1.2h-2.137v2.51zm0-5.257h2.138c.872 0 1.374-.371 1.374-1.049 0-.719-.655-1.112-1.789-1.112h-1.723v2.16zm1.723-5.106c3.295 0 5.148 1.353 5.148 3.73 0 1.267-.764 2.138-2.008 2.555 1.92.478 2.882 1.614 2.882 3.228 0 2.42-2.14 3.796-5.956 3.796h-5.349V14.054h5.283zM182.643 27.363V14.054h9.816v3.23H186.2v2.006h5.346v3.055H186.2V24.2h6.435v3.164zM211.35 25.9c-2.378 1.18-4.278 1.66-6.458 1.66-3.992 0-6.526-2.445-6.526-6.828 0-4.126 2.643-6.897 6.635-6.897 1.659 0 3.883.372 5.758 1.2l-.895 2.641c-1.678-.459-2.987-.743-4.537-.743-2.028 0-3.357 1.529-3.357 3.799 0 2.4 1.154 3.685 3.076 3.685 1.067 0 2.05-.064 3.228-.502v-1.33h-3.403v-2.793h6.48V25.9zM217.933 27.363h3.557V14.055h-3.557zM237.785 27.363l-5.63-7.504v7.504h-3.556V14.054h3.229l5.628 7.594v-7.594h3.556v13.31zM265.354 27.363V22.28h-5.018v5.083h-3.556V14.054h3.556v4.997h5.018v-4.997h3.558v13.31zM275.995 27.363V14.054h9.817v3.23h-6.26v2.006h5.346v3.055h-5.345V24.2h6.434v3.164zM297.918 20.883c1.484 0 2.312-.677 2.312-1.856 0-1.22-.828-1.918-2.312-1.918h-2.007v3.774h2.007zm6.262 6.48h-3.798l-2.661-3.709h-1.81v3.709h-3.557V14.054h5.52c3.753 0 5.868 1.788 5.868 4.973 0 1.944-.894 3.318-2.53 4.038l2.968 4.014v.284zM309.976 27.363V14.054h9.82v3.23h-6.26v2.006h5.343v3.055h-5.343V24.2h6.434v3.164zM46.458 63.383c1.449-.302 2.844-.513 3.886-.583 1.714-.106 2.315.636 2.438 1.803l-1.449.917c-.335-1.254-.724-1.519-1.8-1.553-.92-.037-1.856.051-3.129.211l.054-.795zm2.366-12.173c-1.747 0-2.896 1.08-3.126 2.81l-.565 3.957c-.248 1.819.547 2.669 2.297 2.669h1.253c1.75 0 2.88-.956 3.145-2.757l.565-3.974c.266-1.84-.548-2.705-2.296-2.705h-1.273zm1.626-1.643c2.88 0 4.222 1.786 3.815 4.63l-.493 3.622c-.407 2.808-2.191 4.486-5.053 4.486h-1.555c-2.914 0-4.293-1.767-3.904-4.576l.494-3.62c.407-2.862 2.191-4.542 5.124-4.542h1.572zM64.378 59.886c-.088.617.089.953.796.953h.794l-.159 1.201a5.415 5.415 0 0 1-1.572.23c-.76 0-1.661-.283-1.696-1.572l.035-.23c-1.253.777-2.72 1.642-4.169 1.642h-.212c-1.642 0-2.19-.6-1.926-2.507l.778-5.247a47.657 47.657 0 0 0-1.343-.106l.142-1.307h3.197l-.795 5.812c-.23 1.52-.123 1.8.99 1.8h.211c.99 0 2.067-.581 3.162-1.307l.76-4.892a42.244 42.244 0 0 0-1.342-.106l.141-1.307h3.198l-.99 6.943zM74.295 55.91c.176-1.29-.548-1.874-1.855-1.874h-.53c-1.361 0-2.314.743-2.491 2.087l-.142.937h4.859l.159-1.15zm-1.68-3.18c2.527 0 3.605 1.219 3.27 3.62l-.283 2.015h-6.5l-.107.671c-.177 1.363.512 1.927 1.802 1.927h.724c.884 0 1.625-.264 2.05-.972l.122-.23h1.45l-.16 1.255c-.918.9-2.296 1.29-3.62 1.29h-.602c-2.809 0-3.833-1.237-3.444-3.959l.264-1.925c.354-2.49 1.855-3.691 4.452-3.691h.583zM77.762 55.08c.248-1.643 1.484-2.35 3.817-2.35h.3c.9 0 2.543.195 3.586.69l-.265 2.1h-1.485l.054-1.2c-.6-.264-1.36-.335-2.05-.335-1.43 0-2.19.389-2.314 1.218v.124c-.14.937.407.9 2.774 1.396 2.226.423 2.932.972 2.737 2.384l-.052.461c-.283 1.977-1.501 2.737-3.763 2.737h-.69c-.918 0-2.49-.158-3.48-1.272l.249-1.766h1.377l-.035 1.148c.477.548 1.431.582 1.979.582h.582c1.201 0 1.909-.422 2.049-1.465l.037-.23c.123-.884-.39-.988-2.652-1.45-2.436-.44-2.985-1.04-2.79-2.401l.035-.371zM90.063 60.75c.635 0 1.06 0 1.695-.051l-.087 1.077c-.777.335-1.748.529-2.65.529h-.194c-1.379 0-1.962-.795-1.714-2.508l.776-5.477h-1.164l.176-1.378h.884c.334 0 .477-.14.511-.44l.318-2.103c.743-.107 1.061-.142 1.661-.159l-.352 2.702h2.684l-.176 1.378h-2.704l-.67 4.717c-.178 1.414-.072 1.713.847 1.713h.159zM97.609 50.558c-.07.547-.566.882-1.148.882-.635 0-1.077-.441-.99-1.077.072-.565.585-.9 1.149-.9.637 0 1.078.441.989 1.095zm-1.466 9.328c-.087.617.09.954.795.954h.742l-.159 1.148c-.637.264-1.094.283-1.554.283-1.007 0-1.944-.513-1.696-2.103l.866-5.794c-.39-.036-.778-.09-1.15-.124l.143-1.308h3.002l-.989 6.944zM103.39 60.927c1.378 0 2.261-.742 2.456-2.048l.37-2.792c.195-1.326-.422-1.978-1.801-1.978h-.848c-1.378 0-2.226.74-2.42 2.085l-.407 2.79c-.176 1.307.425 1.943 1.802 1.943h.848zm-.919 1.378c-2.755 0-3.833-1.308-3.46-3.94l.228-1.73c.388-2.67 1.731-3.904 4.505-3.904h.847c2.721 0 3.746 1.325 3.375 4.008l-.23 1.732c-.388 2.633-1.714 3.834-4.416 3.834h-.849zM112.299 54.444c1.29-.883 2.685-1.713 4.134-1.713h.195c1.536 0 2.172.723 1.907 2.509l-.672 4.645c-.07.618.089.955.796.955h.76l-.16 1.2a5.42 5.42 0 0 1-1.571.23c-.76 0-1.892-.3-1.697-1.891l.601-4.275c.211-1.553.088-1.82-1.026-1.82h-.212c-.97 0-2.03.566-3.16 1.308l-.99 6.519h-1.838l1.166-7.737c-.389-.036-.778-.09-1.149-.124l.142-1.308h3.004l-.23 1.502z" fill="#FFF"/>
    <path d="M126.44 55.24c1.271 0 2.12.917 2.12 2.118 0 1.202-.849 2.12-2.12 2.12-1.273 0-2.12-.918-2.12-2.12 0-1.2.847-2.118 2.12-2.118" fill="#FF5A0E"/>
    <path d="M142.979 53.719c.23-1.59-.494-2.402-2.12-2.402h-3.303l-1.308 9.222h3.251c1.626 0 2.65-.9 2.879-2.472l.601-4.348zm-1.802-3.975c2.898.017 4.08 1.38 3.675 4.242l-.565 4.044c-.407 2.827-1.91 4.081-4.752 4.081h-6.89l.158-1.379c.636-.07 1.148-.105 1.484-.14l1.378-9.363c-.353-.036-.813-.053-1.484-.123l.16-1.362h6.836zM150.053 50.558c-.072.547-.566.882-1.15.882-.635 0-1.076-.441-.988-1.077.07-.565.583-.9 1.148-.9.636 0 1.077.441.99 1.095zm-1.467 9.328c-.088.617.089.954.795.954h.742l-.16 1.148c-.635.264-1.094.283-1.554.283-1.006 0-1.943-.513-1.695-2.103l.865-5.794c-.389-.036-.778-.09-1.149-.124l.143-1.308h3.002l-.99 6.944zM152.104 55.08c.248-1.643 1.485-2.35 3.817-2.35h.3c.901 0 2.543.195 3.587.69l-.266 2.1h-1.484l.053-1.2c-.6-.264-1.36-.335-2.049-.335-1.431 0-2.191.389-2.314 1.218v.124c-.141.937.406.9 2.773 1.396 2.227.423 2.932.972 2.738 2.384l-.052.461c-.284 1.977-1.502 2.737-3.764 2.737h-.689c-.919 0-2.49-.158-3.48-1.272l.248-1.766h1.378l-.036 1.148c.477.548 1.431.582 1.98.582h.581c1.202 0 1.91-.422 2.05-1.465l.036-.23c.123-.884-.389-.988-2.651-1.45-2.437-.44-2.986-1.04-2.791-2.401l.035-.371zM168.521 60.998c-.918.812-2.26 1.307-3.55 1.307h-.972c-2.473 0-3.41-1.217-3.074-3.64l.353-2.455c.318-2.296 1.838-3.48 4.099-3.48h.724c1.237 0 2.208.23 3.304.636l-.318 2.58h-1.378l.052-1.502c-.688-.248-1.183-.318-2.225-.318-1.378 0-2.226.69-2.456 2.296l-.353 2.421c-.194 1.536.459 2.013 1.749 2.013h.583c.866 0 1.625-.317 2.05-1.023l.105-.178h1.466l-.159 1.343zM174.744 60.927c1.378 0 2.261-.742 2.456-2.048l.371-2.792c.194-1.326-.423-1.978-1.802-1.978h-.848c-1.378 0-2.226.74-2.42 2.085l-.407 2.79c-.176 1.307.425 1.943 1.803 1.943h.847zm-.919 1.378c-2.755 0-3.833-1.308-3.462-3.94l.23-1.73c.388-2.67 1.731-3.904 4.505-3.904h.849c2.72 0 3.744 1.325 3.373 4.008l-.229 1.732c-.389 2.633-1.714 3.834-4.417 3.834h-.849zM191.109 54.267c-.512.053-.972.09-1.396.123l-4.24 7.721h-1.925l-1.98-7.754c-.37-.02-.76-.072-1.2-.107l.14-1.308h4.329l-.16 1.308c-.458.017-.83.054-1.218.07l1.343 6.201h.017l3.374-6.164c-.352-.02-.742-.072-1.183-.107l.141-1.308h4.099l-.141 1.325zM198.181 55.91c.177-1.29-.547-1.874-1.854-1.874h-.53c-1.361 0-2.315.743-2.491 2.087l-.142.937h4.858l.16-1.15zm-1.677-3.18c2.525 0 3.602 1.219 3.267 3.62l-.282 2.015h-6.501l-.107.671c-.176 1.363.511 1.927 1.803 1.927h.724c.883 0 1.624-.264 2.049-.972l.123-.23h1.45l-.16 1.255c-.919.9-2.296 1.29-3.62 1.29h-.603c-2.808 0-3.832-1.237-3.443-3.959l.264-1.925c.353-2.49 1.854-3.691 4.452-3.691h.584zM204.263 54.621c1.06-1.15 1.908-1.767 3.163-1.767h.829l-.211 1.697a21.99 21.99 0 0 0-1.325.07c-.936.017-1.679.318-2.596 1.236l-.937 6.254h-1.839l1.168-7.738c-.39-.035-.778-.089-1.15-.123l.143-1.308h3.002l-.247 1.68z" fill="#FFF"/>
    <path d="M214.162 55.24c1.272 0 2.12.917 2.12 2.118 0 1.202-.848 2.12-2.12 2.12-1.273 0-2.12-.918-2.12-2.12 0-1.2.847-2.118 2.12-2.118" fill="#FF5A0E"/>
    <path d="M230.508 60.592c-1.131 1.13-2.738 1.713-4.31 1.713h-1.201c-2.864 0-4.065-1.361-3.676-4.258l.566-4.044c.405-2.95 2.048-4.436 4.928-4.436h.743c1.272 0 2.685.144 4.222.69l-.425 3.197h-1.572l.071-1.997c-.9-.334-1.872-.318-3.074-.318-1.661 0-2.72 1.007-2.968 2.846l-.6 4.292c-.248 1.68.493 2.421 2.119 2.421h.901c1.308 0 2.243-.566 2.862-1.644l1.59.053-.176 1.485zM236.98 60.927c1.377 0 2.26-.742 2.455-2.048l.37-2.792c.195-1.326-.423-1.978-1.801-1.978h-.848c-1.378 0-2.226.74-2.42 2.085l-.407 2.79c-.177 1.307.425 1.943 1.802 1.943h.848zm-.92 1.378c-2.755 0-3.833-1.308-3.462-3.94l.23-1.73c.388-2.67 1.731-3.904 4.504-3.904h.85c2.72 0 3.744 1.325 3.373 4.008l-.23 1.732c-.388 2.633-1.714 3.834-4.416 3.834h-.849zM245.888 54.444c1.29-.883 2.686-1.713 4.134-1.713h.195c1.537 0 2.172.723 1.908 2.509l-.673 4.645c-.07.618.09.955.796.955h.76l-.159 1.2a5.42 5.42 0 0 1-1.572.23c-.76 0-1.891-.3-1.697-1.891l.601-4.275c.211-1.553.088-1.82-1.025-1.82h-.212c-.972 0-2.032.566-3.162 1.308l-.99 6.519h-1.836l1.165-7.737c-.389-.036-.777-.09-1.149-.124l.143-1.308h3.003l-.23 1.502zM257.43 54.444c1.29-.883 2.686-1.713 4.135-1.713h.194c1.537 0 2.173.723 1.908 2.509l-.672 4.645c-.07.618.089.955.795.955h.76l-.158 1.2a5.42 5.42 0 0 1-1.573.23c-.76 0-1.89-.3-1.696-1.891l.6-4.275c.212-1.553.089-1.82-1.025-1.82h-.212c-.971 0-2.031.566-3.161 1.308l-.99 6.519h-1.837l1.166-7.737c-.39-.036-.778-.09-1.15-.124l.143-1.308h3.003l-.23 1.502zM272.965 55.91c.177-1.29-.548-1.874-1.855-1.874h-.53c-1.36 0-2.314.743-2.49 2.087l-.143.937h4.859l.159-1.15zm-1.678-3.18c2.526 0 3.603 1.219 3.268 3.62l-.282 2.015h-6.501l-.107.671c-.176 1.363.512 1.927 1.802 1.927h.725c.883 0 1.624-.264 2.048-.972l.124-.23h1.449l-.16 1.255c-.918.9-2.296 1.29-3.62 1.29h-.601c-2.81 0-3.834-1.237-3.445-3.959l.265-1.925c.353-2.49 1.854-3.691 4.452-3.691h.583zM283.41 60.998c-.917.812-2.26 1.307-3.55 1.307h-.971c-2.474 0-3.41-1.217-3.074-3.64l.352-2.455c.318-2.296 1.838-3.48 4.1-3.48h.724c1.236 0 2.208.23 3.303.636l-.318 2.58H282.6l.053-1.502c-.689-.248-1.185-.318-2.227-.318-1.378 0-2.225.69-2.454 2.296l-.355 2.421c-.194 1.536.46 2.013 1.75 2.013h.583c.865 0 1.624-.317 2.05-1.023l.104-.178h1.467l-.16 1.343zM288.927 60.75c.636 0 1.061 0 1.696-.051l-.088 1.077c-.777.335-1.748.529-2.649.529h-.194c-1.38 0-1.962-.795-1.715-2.508l.778-5.477h-1.165l.175-1.378h.885c.334 0 .476-.14.512-.44l.318-2.103c.742-.107 1.06-.142 1.66-.159l-.353 2.702h2.685l-.178 1.378h-2.702l-.671 4.717c-.177 1.414-.07 1.713.847 1.713h.16z" fill="#FFF"/>
  </g>
   <image src="<?php echo get_stylesheet_directory_uri() . '/assets/images/logos/Journeys_White.png'; ?>" xlink:href="">
</symbol>

<symbol id="gatorgood-svg" viewBox="0 0 309.13 104">
	<title>Gator Good</title>
	<path class="gatorgood-1" d="M179.74,54.5H0V0H179.74ZM5,49.5H174.74V5H5Z"/><path class="gatorgood-1" d="M309.13,104H49.5V49.5H309.13ZM54.5,99H304.13V54.5H54.5Z"/><path class="gatorgood-2" d="M88.35,81h-2.5l-.56,3.38h-3L82.88,81H79.64l-.58,3.38h-3L76.65,81H75V78.08h2.18l.58-3.33h-2V71.87h2.48l.56-3.29h3l-.56,3.29h3.26L85,68.58h3l-.56,3.29h1.71v2.88H86.93l-.59,3.33h2ZM80,78.17h3.4L84,74.66h-3.4Z"/><path class="gatorgood-2" d="M95.17,76.51v0a8.09,8.09,0,0,1,8.26-8.15,8.65,8.65,0,0,1,6.19,2.16l-2.18,2.63a5.8,5.8,0,0,0-4.12-1.6,4.73,4.73,0,0,0-4.52,4.91v0a4.72,4.72,0,0,0,4.77,5,5.53,5.53,0,0,0,3.26-.95V78.26h-3.49v-3h6.84v6.84a10.22,10.22,0,0,1-6.73,2.5A7.88,7.88,0,0,1,95.17,76.51Z"/><path class="gatorgood-2" d="M123,68.47h3.2l6.75,15.87h-3.62l-1.44-3.53h-6.66l-1.44,3.53H116.2Zm3.65,9.27-2.09-5.11-2.09,5.11Z"/><path class="gatorgood-2" d="M141,71.78h-4.79v-3.2h13.05v3.2h-4.79V84.34H141Z"/><path class="gatorgood-2" d="M154.61,76.51v0a8.38,8.38,0,0,1,16.75,0v0a8.38,8.38,0,0,1-16.75,0Zm13.12,0v0a4.79,4.79,0,0,0-4.77-5,4.71,4.71,0,0,0-4.73,4.91v0a4.79,4.79,0,0,0,4.77,5A4.71,4.71,0,0,0,167.73,76.51Z"/><path class="gatorgood-2" d="M178.48,68.58h7.2a6.28,6.28,0,0,1,4.59,1.6,4.94,4.94,0,0,1,1.35,3.6v0a4.89,4.89,0,0,1-3.38,4.88l3.85,5.63H188l-3.38-5h-2.72v5h-3.47Zm7,7.65c1.69,0,2.66-.9,2.66-2.23v0c0-1.49-1-2.25-2.72-2.25h-3.44v4.52Z"/><path class="gatorgood-2" d="M198.1,76.51v0a8.09,8.09,0,0,1,8.26-8.15,8.65,8.65,0,0,1,6.19,2.16l-2.18,2.63a5.8,5.8,0,0,0-4.12-1.6,4.73,4.73,0,0,0-4.52,4.91v0a4.72,4.72,0,0,0,4.77,5,5.53,5.53,0,0,0,3.26-.95V78.26h-3.49v-3h6.84v6.84a10.22,10.22,0,0,1-6.73,2.5A7.88,7.88,0,0,1,198.1,76.51Z"/><path class="gatorgood-2" d="M219.79,76.51v0a8.38,8.38,0,0,1,16.75,0v0a8.38,8.38,0,0,1-16.75,0Zm13.12,0v0a4.79,4.79,0,0,0-4.77-5,4.71,4.71,0,0,0-4.73,4.91v0a4.79,4.79,0,0,0,4.77,5A4.71,4.71,0,0,0,232.92,76.51Z"/><path class="gatorgood-2" d="M243,76.51v0a8.38,8.38,0,0,1,16.75,0v0a8.38,8.38,0,0,1-16.75,0Zm13.12,0v0a4.79,4.79,0,0,0-4.77-5,4.71,4.71,0,0,0-4.73,4.91v0a4.79,4.79,0,0,0,4.77,5A4.71,4.71,0,0,0,256.09,76.51Z"/><path class="gatorgood-2" d="M266.84,68.58H273c5,0,8.37,3.4,8.37,7.83v0c0,4.43-3.42,7.88-8.37,7.88h-6.14Zm3.47,3.13v9.5H273a4.49,4.49,0,0,0,4.75-4.7v0A4.52,4.52,0,0,0,273,71.71Z"/><path class="gatorgood-2" d="M26.62,19h12v3.15H30.09v3.35H37.6v3.15H30.09v6.1H26.62Z"/><path class="gatorgood-2" d="M44.73,26.92v0a8.38,8.38,0,0,1,16.75,0v0a8.38,8.38,0,0,1-16.75,0Zm13.12,0v0a4.79,4.79,0,0,0-4.77-5,4.71,4.71,0,0,0-4.73,4.91v0a4.79,4.79,0,0,0,4.77,5A4.71,4.71,0,0,0,57.85,26.92Z"/><path class="gatorgood-2" d="M68.61,19h7.2a6.28,6.28,0,0,1,4.59,1.6,4.94,4.94,0,0,1,1.35,3.6v0a4.89,4.89,0,0,1-3.38,4.88l3.85,5.63H78.17l-3.38-5H72.07v5H68.61Zm7,7.65c1.69,0,2.66-.9,2.66-2.23v0c0-1.49-1-2.25-2.72-2.25H72.07v4.52Z"/><path class="gatorgood-2" d="M103.39,22.2H98.6V19h13.05v3.2h-4.79V34.76h-3.47Z"/><path class="gatorgood-2" d="M118.35,19h3.47v6.23h6.39V19h3.47V34.76h-3.47V28.43h-6.39v6.32h-3.47Z"/><path class="gatorgood-2" d="M139.5,19h11.88v3.08h-8.44v3.2h7.43v3.08h-7.43v3.31h8.55v3.08h-12Z"/>
   <image src="<?php echo get_stylesheet_directory_uri() . '/assets/images/logos/gatorgood.png'; ?>" xlink:href="">
</symbol>

</svg>