<svg xmlns="http://www.w3.org/2000/svg" viewBox="0 0 50.5 40.38"><defs><style>.cls-1{fill:#000000;stroke: #000000; stroke-width: 1px;}</style></defs><title>Asset 56</title><g id="Layer_2" data-name="Layer 2"><g id="Layer_1-2" data-name="Layer 1"><path class="cls-1" d="M48.34,6.18H34.67V1a1,1,0,0,0-1-1H16.85a1,1,0,0,0-1,1V6.18H2.16A2.16,2.16,0,0,0,0,8.34V38.22a2.16,2.16,0,0,0,2.16,2.16H48.34a2.16,2.16,0,0,0,2.16-2.16V8.34A2.16,2.16,0,0,0,48.34,6.18Zm.11,32.06a.11.11,0,0,1-.11.1H2.16A.11.11,0,0,1,2,38.22V8.34a.11.11,0,0,1,.11-.11H16.85a1,1,0,0,0,1-1V2H32.63V7.2a1,1,0,0,0,1,1H48.34a.11.11,0,0,1,.11.11ZM25.25,11.59A11.16,11.16,0,1,0,36.41,22.75,11.17,11.17,0,0,0,25.25,11.59Zm0,20.27a9.11,9.11,0,1,1,9.11-9.11A9.12,9.12,0,0,1,25.25,31.86Z"/></g></g></svg>
