<?xml version="1.0" encoding="UTF-8"?>
<svg xmlns="http://www.w3.org/2000/svg" xmlns:xlink="http://www.w3.org/1999/xlink" width="518.143" height="33.652" viewBox="0 0 518.143 33.652">
  <defs>
    <clipPath id="clip-path">
      <path id="Clip_6" data-name="Clip 6" d="M0,0H24.407V33.628H0Z" transform="translate(0.259 0.946)" fill="none"/>
    </clipPath>
    <clipPath id="clip-path-2">
      <path id="Clip_45" data-name="Clip 45" d="M0,0H17.3V22.109H0Z" transform="translate(0.841 0.213)" fill="none"/>
    </clipPath>
  </defs>
  <g id="Page_1_Copy_3" data-name="Page 1 Copy 3" transform="translate(0 -1.117)">
    <path id="Fill_1" data-name="Fill 1" d="M7.971.1h7.415c.154,0,.154.926,0,.926-4.171,0-4.583.051-4.738.206-.206.205-.258,1.6-.308,8.651,0,4.222-.052,6.333-.052,14.212,0,4.685.052,5.715.206,5.869.205.205,1.03.309,4.531.309,4.479,0,5.871-.309,6.9-1.287.979-.979,1.956-3.244,3.554-9.836.1-.205.824-.154.824,0-.051,3.5-.206,8.908-.412,11.9,0,.258-.1.413-.567.413-3.964-.155-7.724-.1-13.027-.1-5.717,0-9.011,0-12.2.051-.154,0-.1-.978.051-.978,3.914-.052,4.48-.052,4.635-.206s.205-.875.205-4.119c.051-6.179.155-12.667.155-18.383,0-4.737-.051-6.282-.258-6.488S4.006.978.453.926C.3.926.351,0,.5,0,2.77.051,6.066.1,7.971.1" transform="translate(0 2.61)" fill="#fff"/>
    <path id="Fill_3" data-name="Fill 3" d="M12.988,32.234c-.55,0-3.861-.014-7.062-.028h-.02C3.192,32.194.63,32.183.269,32.183c-.081,0-.135-.25-.135-.483,0-.189.036-.391.135-.391L.785,31.3c2.485-.043,3.153-.055,3.347-.248s.256-.742.31-2.164c.051-1.75.051-2.916.051-4.531,0-1.9-.1-6.952-.205-9.526,0-.912-.1-1.436-.31-1.648S3.393,12.977.4,12.931l-.283,0C.036,12.927,0,12.7,0,12.488s.036-.438.115-.438L2.425,12H2.48c2.426-.05,5.175-.106,5.977-.106.381,0,.516.121.516.464-.036,1.967-.023,5.427-.011,8.479.006,1.457.011,2.833.011,3.981,0,3.915.134,5.953.41,6.231.209.209.883.257,3.6.257.133,0,.194.24.194.463S13.121,32.234,12.988,32.234ZM6.5,5.974a2.731,2.731,0,0,1-2.015-.927,3.023,3.023,0,0,1-.818-2.008A2.8,2.8,0,0,1,4.493.979,3.1,3.1,0,0,1,6.912,0,2.793,2.793,0,0,1,9.694,2.73,3.438,3.438,0,0,1,6.5,5.974Z" transform="translate(28.295 1.784)" fill="#fff"/>
    <g id="Group_7" data-name="Group 7" transform="translate(40.179 0.17)">
      <path id="Clip_6-2" data-name="Clip 6" d="M0,0H24.407V33.628H0Z" transform="translate(0.259 0.946)" fill="none"/>
      <g id="Group_7-2" data-name="Group 7" clip-path="url(#clip-path)">
        <path id="Fill_5" data-name="Fill 5" d="M4.218,33.628a.61.61,0,0,1-.312-.082.275.275,0,0,1-.146-.232c.095-2.464.205-7.746.205-14.52,0-3.653-.092-8.324-.189-13.269L3.76,4.686c-.055-2.549-.108-3.248-.258-3.4S2.984,1.133.155,1.133C.049,1.133,0,.906,0,.695S.049.256.155.256C2.475.213,5.734.093,7.485.029L8.29,0C8.636,0,8.7.181,8.7.516c0,.544-.035,4.034-.073,7.729-.04,4.008-.082,8.152-.082,8.85l.052.053a11.926,11.926,0,0,1,2.787-3.76,6.131,6.131,0,0,1,4.061-1.6,8.884,8.884,0,0,1,6.179,2.833,9.9,9.9,0,0,1,2.781,7.156,12.051,12.051,0,0,1-3.708,8.5,9.384,9.384,0,0,1-6.692,3.09,9.217,9.217,0,0,1-5.6-2.216,2.207,2.207,0,0,0-.736-.462c-.27,0-1.151.794-3.141,2.831A.443.443,0,0,1,4.218,33.628ZM14.727,13.182A4.736,4.736,0,0,0,11.541,14.6,10.875,10.875,0,0,0,9.32,17.61,9.427,9.427,0,0,0,8.5,22.244c0,5.667.166,6.973.516,7.62.451.956,2.73,2.42,4.684,2.42a4.121,4.121,0,0,0,2.37-.676,5.4,5.4,0,0,0,1.751-2.1A16.147,16.147,0,0,0,19.052,22.4a17.471,17.471,0,0,0-1.133-7.157A3.2,3.2,0,0,0,14.727,13.182Z" transform="translate(0.259 0.946)" fill="#fff"/>
      </g>
    </g>
    <path id="Fill_8" data-name="Fill 8" d="M11.586,21.781a12.215,12.215,0,0,1-8.6-3.5A9.915,9.915,0,0,1,0,10.814,10.863,10.863,0,0,1,3.039,3.552,10.921,10.921,0,0,1,10.865,0a10.148,10.148,0,0,1,7.21,2.986,8.981,8.981,0,0,1,1.886,2.935,11.619,11.619,0,0,1,.843,4.171.36.36,0,0,1-.308.412c-1.47-.009-2.877-.014-4.181-.014-5.851,0-8.93.09-10.959.168a15.828,15.828,0,0,0,1.133,6.745,5.349,5.349,0,0,0,2.072,2.3,6.952,6.952,0,0,0,3.54.791c3.353,0,5.9-1.923,7.363-5.56a.268.268,0,0,1,.195-.061,1.134,1.134,0,0,1,.732.322.185.185,0,0,1,.053.151A9.364,9.364,0,0,1,11.586,21.781ZM10.5,1.031A4.256,4.256,0,0,0,6.592,3.3a15.233,15.233,0,0,0-1.236,6.23l10.453-.051c-.159-3.057-.627-5.111-1.475-6.462A4.122,4.122,0,0,0,10.5,1.031Z" transform="translate(67.534 12.908)" fill="#fff"/>
    <path id="Fill_10" data-name="Fill 10" d="M4.049,19.618a15.163,15.163,0,0,0,.309-3.192c0-1.854,0-6.747-.051-9.012,0-3.863-.258-5.406-.464-5.613S3.226,1.6.394,1.545C.188,1.545.188.618.445.618,2.5.618,6.984.463,8.117.463c.721,0,.824.1.824.771-.051,1.289-.1,3.914-.1,5.819h.1C10.588,3.192,12.443,0,15.429,0c2.679,0,4.377,1.646,4.377,3.655A3.148,3.148,0,0,1,16.819,7a2.356,2.356,0,0,1-2.574-2.368c0-1.751,1.39-2.421,1.39-2.833,0-.205-.258-.412-.875-.412-1.6,0-3.244,2.06-4.48,4.634A10.442,10.442,0,0,0,8.941,11.07v4.685c.052,2.369.154,3.6.36,3.81.1.155.927.155,3.965.259.257,0,.257.978.051.978H.136c-.155,0-.206-.927,0-.927,3.347-.05,3.759-.1,3.913-.257" transform="translate(88.889 13.217)" fill="#fff"/>
    <path id="Fill_12" data-name="Fill 12" d="M17.353,21.371a5.071,5.071,0,0,1-3.141-.953,4.423,4.423,0,0,1-1.6-2.5,10.921,10.921,0,0,1-2.891,2.414,7.541,7.541,0,0,1-3.546.985h-.11a6.8,6.8,0,0,1-4.161-1.431,4.654,4.654,0,0,1-.364-7.221c1.948-2.008,5.442-3.088,11.329-3.5.033-.434.023-1.2.012-2.093-.006-.493-.012-1-.012-1.511,0-1.952-.251-2.93-.927-3.606A4.51,4.51,0,0,0,8.806.979C6.395.979,4.945,2.2,4.945,2.524c0,.2.246.346.557.536a2.436,2.436,0,0,1,.69,4,2.763,2.763,0,0,1-1.917.721A2.594,2.594,0,0,1,1.6,5.15,3.543,3.543,0,0,1,2.831,2.472,9.1,9.1,0,0,1,9.32,0c2.862,0,4.984.758,6.487,2.317,1.3,1.3,1.8,2.783,1.8,5.3,0,1.189-.033,2.8-.068,4.5-.04,1.955-.086,4.17-.086,6.055,0,1.223.346,1.7,1.236,1.7.723,0,2.031-.482,2.677-3.708.031-.047.121-.074.245-.074.22,0,.527.087.527.229a7.115,7.115,0,0,1-1.545,3.6A4.16,4.16,0,0,1,17.353,21.371ZM12.874,10.093c-3.606.3-5.441.74-6.547,1.558-.892.661-1.487,1.638-1.487,4.261a5.335,5.335,0,0,0,.643,2.9,2.279,2.279,0,0,0,2.034,1.01,6.777,6.777,0,0,0,4.945-3.038c.212-.373.258-.711.308-2.265.034-.99.045-1.575.065-2.543C12.844,11.484,12.856,10.89,12.874,10.093Z" transform="translate(110.273 13.113)" fill="#fff"/>
    <path id="Fill_14" data-name="Fill 14" d="M8.13,0c.412,0,.515.206.515.618-.051,5.355-.1,9.782-.1,15.345,0,5.148-.051,9.422-.1,13.542,0,1.287.154,1.8.412,2.059.206.154.412.258,3.5.309.154,0,.206.927,0,.927-4.531-.155-7.415-.155-12.2-.155-.155,0-.1-.927.051-.927,2.78,0,3.192-.051,3.347-.206S3.7,31.1,3.7,30.278c.051-2.472.155-7.261.155-10.5,0-7.055,0-11.69-.1-17.25,0-.926,0-1.184-.154-1.338S3.134,1.03.149.875C-.058.824-.058,0,.2,0,3.134.051,5.04.051,8.13,0" transform="translate(133.336 1.271)" fill="#fff"/>
    <path id="Fill_16" data-name="Fill 16" d="M35.04,32.441h0c-1.214-.022-2.315-.053-3.286-.081-1.383-.04-2.576-.074-3.767-.074-.613,0-1.159,0-1.688-.007-.5,0-.968-.006-1.46-.006-1.227,0-2.318.019-3.649.064-.056,0-.1-.265-.1-.5a1.229,1.229,0,0,1,.023-.26c.017-.075.043-.113.075-.113,2.466-.155,3.091-.261,3.346-.567.327-.263.242-.864,0-1.75-.459-1.38-1.434-4.152-2.317-6.591-.858-.051-3.579-.1-7.723-.1-1.954,0-3.245,0-4.686.051-.2,0-.411,0-.515.258-.836,1.829-1.3,3.03-2.059,4.994a7.663,7.663,0,0,0-.516,2.215c0,1.117.439,1.285,3.914,1.493.018,0,.033.029.043.083a1.236,1.236,0,0,1,.013.2c0,.273-.047.59-.108.59-1.344-.05-3.148-.077-5.078-.077s-3.857.027-5.426.077c-.051,0-.078-.207-.078-.412s.027-.412.078-.412c2.629-.151,3.178-.3,3.913-1.029a12.468,12.468,0,0,0,2.06-3.347C9.71,19.246,14.345,9.053,17.739.206A1.52,1.52,0,0,1,18.717,0c.86,0,1.029.1,1.082.31,1.258,3.773,3.363,10.087,9.423,26.672.865,2.441,1.274,3.282,1.905,3.913.461.463.921.515,3.912.67.08,0,.117.227.117.438S35.12,32.44,35.04,32.441ZM16.452,6.385c-1.487,3.5-3,6.948-4.325,9.987l0,.005c-.753,1.72-1.464,3.344-2.109,4.836,3.07.152,8.706.259,11.843.259-1.232-3.741-3.18-9.17-4.6-13.134-.249-.694-.484-1.349-.7-1.954h-.1Z" transform="translate(157.296 1.682)" fill="#fff"/>
    <path id="Fill_18" data-name="Fill 18" d="M4.05,19.618a15.163,15.163,0,0,0,.309-3.192c0-1.854,0-6.747-.051-9.012,0-3.863-.258-5.406-.464-5.613S3.226,1.6.393,1.545C.188,1.545.188.618.446.618,2.5.618,6.985.463,8.118.463c.721,0,.824.1.824.771-.051,1.289-.1,3.914-.1,5.819h.1C10.589,3.192,12.443,0,15.429,0c2.679,0,4.377,1.646,4.377,3.655A3.148,3.148,0,0,1,16.82,7a2.357,2.357,0,0,1-2.575-2.368c0-1.751,1.39-2.421,1.39-2.833,0-.205-.257-.412-.874-.412-1.6,0-3.244,2.06-4.48,4.634A10.442,10.442,0,0,0,8.941,11.07v4.685c.051,2.369.154,3.6.36,3.81.1.155.926.155,3.965.259.257,0,.257.978.05.978H.135c-.154,0-.205-.927,0-.927,3.348-.05,3.76-.1,3.914-.257" transform="translate(193.746 13.217)" fill="#fff"/>
    <path id="Fill_20" data-name="Fill 20" d="M9.912,28.153a6.485,6.485,0,0,1-4.84-1.8c-.926-.926-1.391-2.059-1.391-4.325,0-3.347.051-9.218.155-13.286C3.527,8.69.747,8.69.18,8.69c-.258,0-.205-.979-.051-.979C3.218,7.556,4.146,7.3,4.866,6.579A14.778,14.778,0,0,0,7.8.193c.051-.257.825-.257.876,0-.155,1.752-.155,5.715-.206,7.364,2.06.052,5.459.052,6.281.052.31,0,.206,1.081-.05,1.081-4.068,0-5.664.05-6.231.1-.1,1.905-.205,7.621-.205,11.792,0,3.552.1,4.119.412,4.789a2.588,2.588,0,0,0,2.368,1.287c1.647,0,3.09-1.7,3.964-5.1.052-.206.927-.052.876.205-.876,4.223-2.987,6.385-5.973,6.385" transform="translate(215.058 6.226)" fill="#fff"/>
    <path id="Fill_22" data-name="Fill 22" d="M15.448,19.352a9.468,9.468,0,0,1-6.385,2.317c-4.119,0-6.077-1.442-6.643-1.442-.258,0-.618.566-1.081,1.751-.1.205-.824.154-.824-.051-.1-2.368-.309-5.3-.515-7.57,0-.205.824-.308.875-.1a11.932,11.932,0,0,0,2.368,4.581A8.156,8.156,0,0,0,8.908,20.69a5.7,5.7,0,0,0,3.964-1.132,3.788,3.788,0,0,0,.876-2.523c0-1.752-1.288-2.627-5.819-3.81-3.451-.927-5.046-1.6-6.076-2.627A4.543,4.543,0,0,1,.567,7.3C.567,3.44,4.067.609,8.135.609c3.142,0,5.356,1.648,5.871,1.648.258,0,.412-.413,1.133-2.164.051-.154.772-.1.824.052-.154,2.317-.154,4.531-.1,6.9,0,.36-.772.36-.927.1A10.152,10.152,0,0,0,12.82,3.492,6.2,6.2,0,0,0,7.981,1.586,4.61,4.61,0,0,0,4.635,2.771a3.067,3.067,0,0,0-.876,2.162c0,1.958,1.492,2.729,5.972,3.863,3.554.926,5.151,1.647,6.18,2.729a4.655,4.655,0,0,1,1.391,3.45,6.253,6.253,0,0,1-1.854,4.377" transform="translate(233.471 12.66)" fill="#fff"/>
    <path id="Fill_24" data-name="Fill 24" d="M4.676,17.462A4.456,4.456,0,0,1,1.518,15.9,5.944,5.944,0,0,1,0,11.884c0-2.507,1.1-4.8,3.476-7.207C6.4,1.792,9.774,0,12.272,0a3.424,3.424,0,0,1,3.218,2.06l.016-.035A7.846,7.846,0,0,1,16.69,0a13.648,13.648,0,0,1,2.146.387,1.884,1.884,0,0,1,.169.858c-.534,1.206-3.014,7.2-4.418,10.855a9.471,9.471,0,0,0-.643,2.917,1.116,1.116,0,0,0,1.072,1.244c.935,0,2.165-.463,4.805-3.819a.053.053,0,0,1,.038-.012,1.139,1.139,0,0,1,.552.354c.012.019.015.035.01.045-2.529,3.39-4.123,4.591-6.091,4.591a2.906,2.906,0,0,1-3.047-2.7,10.338,10.338,0,0,1,.3-2.23,17.532,17.532,0,0,1-3.39,3.486A6.258,6.258,0,0,1,4.676,17.462Zm7.6-16.69A6.182,6.182,0,0,0,7.707,3.207,25.571,25.571,0,0,0,4.076,8.924a12.318,12.318,0,0,0-1.545,5.148,2.3,2.3,0,0,0,2.4,2.445c2.194,0,5.622-3.047,7.338-6.521,1.643-3.285,2.66-6.12,2.66-6.863A2.62,2.62,0,0,0,12.272.772Z" transform="translate(265.1 16.935)" fill="#f45a1d"/>
    <path id="Fill_26" data-name="Fill 26" d="M9.209.6c.129,0,.214.086.172.214-.3.9-1.8,5.064-2.231,6.135-.042.087.086.258.172.172C11.012,2.273,13.028,0,15.346,0A3.844,3.844,0,0,1,18.22,1.157,3.247,3.247,0,0,1,19.25,3.6c0,1.5-.516,2.49-2.1,5.794-1.545,3.26-2.059,4.5-2.059,5.406a1.267,1.267,0,0,0,1.244,1.329c1.287,0,2.831-1.244,4.761-3.432.087-.086.688.386.6.472-1.416,1.715-4.118,4.247-6.179,4.247a2.893,2.893,0,0,1-2.231-.943,3.072,3.072,0,0,1-.9-2.318c0-.857.429-2.317,2.016-5.577,1.632-3.347,2.06-4.42,2.06-5.449a1.647,1.647,0,0,0-1.673-1.76c-1.073,0-1.8.43-3.475,2.1a33.134,33.134,0,0,0-6.179,8.5c-.644,1.628-1.5,3.518-2.1,5.019a16.673,16.673,0,0,1-2.96.044c-.086,0-.086-.087-.042-.215.557-1.244,3.56-8.022,4.2-9.567C5.82,3.26,6.12,1.673,6.034,1.587S2.088,1.545,1.53,1.5c-.128,0-.044-.772.086-.772C4.061.729,9,.6,9.209.6" transform="translate(286.066 16.892)" fill="#f45a1d"/>
    <path id="Fill_28" data-name="Fill 28" d="M5.491,27.76a5.858,5.858,0,0,1-3.9-1.716A5.509,5.509,0,0,1,0,22.1a11.439,11.439,0,0,1,3.648-7.809c1.264-1.264,4.655-4.2,8.838-4.2a4.25,4.25,0,0,1,3.9,2.875.043.043,0,0,0,.014.03.067.067,0,0,0,.047.019.076.076,0,0,0,.067-.049c1.695-4.152,2.815-6.906,4.419-11.027.234-.653.108-.878.043-.944A34.576,34.576,0,0,0,16.218.772c-.063,0-.092-.178-.092-.344a1.172,1.172,0,0,1,.033-.291c.017-.062.049-.137.1-.137.893,0,1.914.012,2.994.025,1.221.015,2.484.03,3.732.03.631,0,1.2,0,1.724-.012a.239.239,0,0,1,.186.1A.174.174,0,0,1,24.927.3C24,2.478,23.2,4.366,22.43,6.192l-.009.02c-2.247,5.309-4.023,9.5-6.933,16.185a6.531,6.531,0,0,0-.687,2.7,1.152,1.152,0,0,0,1.073,1.287c1.035,0,2.042-.584,3.476-2.016l.016-.016a15.3,15.3,0,0,0,1.571-1.744.047.047,0,0,1,.034-.011,1,1,0,0,1,.526.39c.009.023.009.04,0,.051-2.42,3.059-4.4,4.547-6.05,4.547a3.643,3.643,0,0,1-2.38-.837,2.618,2.618,0,0,1-.965-1.995,6.116,6.116,0,0,1,.086-1.2C9.862,26.424,7.734,27.76,5.491,27.76Zm6.737-16.9c-1.244,0-4.48.69-7.637,7.079A13.2,13.2,0,0,0,3,23.64a3.968,3.968,0,0,0,.628,2.424,2.457,2.457,0,0,0,2.076.88c1.543,0,2.984-.754,4.675-2.445a14.286,14.286,0,0,0,3.563-5.535c.21-.5.415-.988.607-1.445l0-.009c.7-1.66,1.252-2.971,1.319-3.309a4.395,4.395,0,0,0-1.18-2.381A3.437,3.437,0,0,0,12.227,10.855Z" transform="translate(309.087 6.766)" fill="#f45a1d"/>
    <path id="Fill_30" data-name="Fill 30" d="M21.214.077c.051-.155.772-.052.772.1a65.426,65.426,0,0,0-.1,10.144c0,.154-.721.257-.824.051C19.67,6.77,18.485,4.71,17.2,3.424A7.751,7.751,0,0,0,11.328,1.21c-2.781,0-4.429.772-5.613,1.956A5.836,5.836,0,0,0,4.068,7.286c0,3.4,2.266,4.48,8.135,6.023,5.355,1.442,7.93,2.73,9.475,4.276a6.875,6.875,0,0,1,2.007,5.354c0,5.459-4.84,9.475-10.915,9.475-5.561,0-8.343-2.73-9.424-2.73-.669,0-1.493.926-2.213,2.317-.1.206-.772.1-.772-.1A79.1,79.1,0,0,0,0,20.673c0-.205.669-.308.772-.1,2.008,4.584,3.243,6.694,4.685,8.135a10.156,10.156,0,0,0,7.209,2.627c2.575,0,4.48-.67,5.613-1.8a5.356,5.356,0,0,0,1.6-4.119c0-3.3-2.059-4.893-8.135-6.436-5.355-1.39-7.827-2.523-9.32-4.068A6.689,6.689,0,0,1,.463,9.654c0-5,4.531-9.422,10.968-9.422C16.786.232,19.1,2.5,19.567,2.5c.412,0,1.081-1.184,1.647-2.42" transform="translate(345.308 2.172)" fill="#fff"/>
    <path id="Fill_32" data-name="Fill 32" d="M2.985,18.28A9.838,9.838,0,0,1,0,11.07,10.8,10.8,0,0,1,3.192,3.554,11.206,11.206,0,0,1,11.327,0c4.634,0,8.239,2.78,8.239,5.613a2.914,2.914,0,0,1-2.884,3.141,2.553,2.553,0,0,1-2.008-4.222c.824-.825,1.958-.721,2.163-.926.412-.413-1.647-2.523-5.252-2.523A5.163,5.163,0,0,0,6.59,3.965,14.008,14.008,0,0,0,5.406,10.5c0,3.5.257,5.459,1.029,6.9.825,1.647,2.163,2.884,5,2.884,2.985,0,5.869-2.06,7.208-6.127.1-.413,1.083.05.979.412-1.441,4.273-4.634,6.951-8.908,6.951A10.908,10.908,0,0,1,2.985,18.28" transform="translate(372.447 13.062)" fill="#fff"/>
    <path id="Fill_34" data-name="Fill 34" d="M12.988,32.234c-.552,0-3.874-.014-7.086-.028H5.885c-2.7-.012-5.258-.023-5.616-.023-.081,0-.135-.25-.135-.483,0-.189.036-.391.135-.391L.785,31.3c2.485-.043,3.153-.055,3.347-.248s.256-.741.31-2.164c.051-1.75.051-2.916.051-4.531,0-1.905-.1-6.963-.206-9.526,0-.913-.1-1.437-.31-1.648S3.393,12.977.4,12.931l-.283,0C.036,12.927,0,12.7,0,12.488s.036-.438.115-.438L2.425,12H2.48c2.426-.05,5.175-.106,5.977-.106.381,0,.516.121.516.464-.036,1.967-.023,5.427-.011,8.479.006,1.457.011,2.833.011,3.981,0,3.915.134,5.953.41,6.231.209.209.883.257,3.6.257.133,0,.194.24.194.463S13.121,32.234,12.988,32.234ZM6.5,5.974a2.731,2.731,0,0,1-2.015-.927,3.023,3.023,0,0,1-.818-2.008A2.8,2.8,0,0,1,4.493.979,3.1,3.1,0,0,1,6.912,0,2.793,2.793,0,0,1,9.694,2.73,3.438,3.438,0,0,1,6.5,5.974Z" transform="translate(393.29 1.784)" fill="#fff"/>
    <path id="Fill_36" data-name="Fill 36" d="M11.585,21.781a12.217,12.217,0,0,1-8.6-3.5A9.915,9.915,0,0,1,0,10.814,10.869,10.869,0,0,1,3.038,3.552,10.923,10.923,0,0,1,10.865,0a10.152,10.152,0,0,1,7.209,2.986A8.981,8.981,0,0,1,19.96,5.921a11.619,11.619,0,0,1,.843,4.171.36.36,0,0,1-.308.412c-1.47-.009-2.877-.014-4.181-.014-5.851,0-8.93.09-10.959.168a15.828,15.828,0,0,0,1.133,6.745A5.353,5.353,0,0,0,8.56,19.7a6.951,6.951,0,0,0,3.54.791c3.353,0,5.9-1.923,7.364-5.56a.266.266,0,0,1,.194-.061,1.131,1.131,0,0,1,.731.322.184.184,0,0,1,.052.151A9.361,9.361,0,0,1,11.585,21.781ZM10.5,1.031A4.253,4.253,0,0,0,6.591,3.3a15.222,15.222,0,0,0-1.236,6.23l10.453-.051c-.158-3.057-.627-5.111-1.474-6.462A4.123,4.123,0,0,0,10.5,1.031Z" transform="translate(406.668 12.908)" fill="#fff"/>
    <path id="Fill_38" data-name="Fill 38" d="M.162,20.184c2.677-.051,3.192-.051,3.4-.206.205-.205.309-.978.309-4.067V5.715c0-2.214-.155-3.451-.412-3.656C3.3,1.853,2.788,1.8.111,1.75c-.155,0-.155-.875.051-.875C2.479.875,6.238.823,8.348.823c.31,0,.362.155.362.516-.051,1.288-.155,3.81-.205,5.1l.154.051C10.461,2.934,12.674,0,16.33,0c4.017,0,6.334,2.575,6.334,7.465,0,1.956-.051,4.429-.051,6.952,0,4.377.154,5.3.412,5.56.154.206.618.206,3.089.309.155,0,.155.825-.051.825-4.119-.1-7.518-.052-10.711-.052-.257,0-.205-.824-.051-.824a7.107,7.107,0,0,0,2.369-.308c.205-.206.205-.876.205-2.112,0-1.648-.051-10.3-.051-11.379,0-2.73-.824-4.326-2.935-4.326-2.522,0-4.634,2.729-5.715,4.943a6.31,6.31,0,0,0-.721,3.554c0,1.545.052,4.84.1,6.693.051,1.8.1,2.421.258,2.576s.515.257,3.089.359c.154,0,.154.876-.1.876-3.295-.1-8.393-.1-11.586,0-.258-.052-.206-.927-.051-.927" transform="translate(428.403 12.96)" fill="#fff"/>
    <path id="Fill_40" data-name="Fill 40" d="M2.987,18.28A9.839,9.839,0,0,1,0,11.07,10.8,10.8,0,0,1,3.193,3.554,11.206,11.206,0,0,1,11.328,0c4.634,0,8.239,2.78,8.239,5.613a2.914,2.914,0,0,1-2.884,3.141,2.553,2.553,0,0,1-2.008-4.222c.824-.825,1.958-.721,2.163-.926.412-.413-1.647-2.523-5.252-2.523A5.163,5.163,0,0,0,6.592,3.965,14.008,14.008,0,0,0,5.407,10.5c0,3.5.257,5.459,1.029,6.9.825,1.647,2.163,2.884,5,2.884,2.985,0,5.869-2.06,7.208-6.127.1-.413,1.083.05.979.412-1.441,4.273-4.634,6.951-8.908,6.951A10.908,10.908,0,0,1,2.987,18.28" transform="translate(454.946 13.062)" fill="#fff"/>
    <path id="Fill_42" data-name="Fill 42" d="M11.585,21.781a12.217,12.217,0,0,1-8.6-3.5A9.915,9.915,0,0,1,0,10.814,10.869,10.869,0,0,1,3.038,3.552,10.923,10.923,0,0,1,10.865,0a10.156,10.156,0,0,1,7.209,2.986A8.981,8.981,0,0,1,19.96,5.921a11.619,11.619,0,0,1,.843,4.171.36.36,0,0,1-.308.412c-1.47-.009-2.877-.014-4.181-.014-5.851,0-8.93.09-10.959.168a15.828,15.828,0,0,0,1.133,6.745A5.353,5.353,0,0,0,8.56,19.7a6.951,6.951,0,0,0,3.54.791c3.353,0,5.9-1.923,7.364-5.56a.266.266,0,0,1,.194-.061,1.131,1.131,0,0,1,.731.322.184.184,0,0,1,.052.151A9.361,9.361,0,0,1,11.585,21.781ZM10.5,1.031A4.255,4.255,0,0,0,6.591,3.3a15.222,15.222,0,0,0-1.236,6.23l10.453-.051c-.158-3.057-.626-5.11-1.474-6.462A4.121,4.121,0,0,0,10.5,1.031Z" transform="translate(477.04 12.908)" fill="#fff"/>
    <g id="Group_46" data-name="Group 46" transform="translate(500 12.447)">
      <path id="Clip_45-2" data-name="Clip 45" d="M0,0H17.3V22.109H0Z" transform="translate(0.841 0.213)" fill="none"/>
      <g id="Group_46-2" data-name="Group 46" clip-path="url(#clip-path-2)">
        <path id="Fill_44" data-name="Fill 44" d="M15.449,19.352a9.468,9.468,0,0,1-6.385,2.317c-4.119,0-6.077-1.442-6.643-1.442-.258,0-.618.566-1.081,1.751-.1.205-.824.154-.824-.051-.1-2.368-.309-5.3-.516-7.57,0-.205.824-.308.876-.1a11.932,11.932,0,0,0,2.368,4.581A8.156,8.156,0,0,0,8.91,20.69a5.7,5.7,0,0,0,3.964-1.132,3.788,3.788,0,0,0,.876-2.523c0-1.752-1.288-2.627-5.819-3.81C4.48,12.3,2.885,11.628,1.855,10.6A4.538,4.538,0,0,1,.568,7.3C.568,3.44,4.068.609,8.136.609c3.141,0,5.356,1.648,5.871,1.648.257,0,.412-.413,1.133-2.164.051-.154.772-.1.824.052-.154,2.317-.154,4.531-.1,6.9,0,.36-.772.36-.927.1a10.184,10.184,0,0,0-2.112-3.655A6.2,6.2,0,0,0,7.982,1.586,4.615,4.615,0,0,0,4.635,2.771a3.072,3.072,0,0,0-.876,2.162c0,1.958,1.493,2.729,5.973,3.863,3.554.926,5.15,1.647,6.18,2.729a4.655,4.655,0,0,1,1.391,3.45,6.253,6.253,0,0,1-1.854,4.377" transform="translate(0.841 0.213)" fill="#fff"/>
      </g>
    </g>
  </g>
</svg>
