<?xml version="1.0" encoding="UTF-8"?>
<svg width="726px" height="48px" viewBox="0 0 726 48" version="1.1" xmlns="http://www.w3.org/2000/svg" xmlns:xlink="http://www.w3.org/1999/xlink">
    <!-- Generator: Sketch 49 (51002) - http://www.bohemiancoding.com/sketch -->
    <title>Page 1 Copy</title>
    <desc>Created with Sketch.</desc>
    <defs>
        <polygon id="path-1" points="0.362734375 1.325 34.5326563 1.325 34.5326563 48.4037914 0.362734375 48.4037914"></polygon>
        <polygon id="path-3" points="1.1775 0.297733542 25.4 0.297733542 25.4 31.2498973 1.1775 31.2498973"></polygon>
    </defs>
    <g id="Page-1" stroke="none" stroke-width="1" fill="none" fill-rule="evenodd">
        <g id="Homepage-–-College" transform="translate(-151.000000, -39.000000)">
            <g id="Page-1-Copy" transform="translate(151.000000, 38.000000)">
                <path d="M11.16,3.7975 L21.54125,3.7975 C21.756875,3.7975 21.756875,5.094375 21.54125,5.094375 C15.7021875,5.094375 15.125625,5.16625 14.9084375,5.3834375 C14.619375,5.6709375 14.5475,7.6178125 14.4771875,17.494375 C14.4771875,23.4053125 14.40375,26.36 14.40375,37.39125 C14.40375,43.950625 14.4771875,45.3928125 14.6928125,45.6084375 C14.9803125,45.8959375 16.135,46.04125 21.0365625,46.04125 C27.306875,46.04125 29.2553125,45.6084375 30.6959375,44.2396875 C32.06625,42.869375 33.435,39.6975 35.6709375,30.469375 C35.8146875,30.181875 36.8240625,30.25375 36.8240625,30.469375 C36.7521875,35.3725 36.535,42.94125 36.2475,47.1225 C36.2475,47.4834375 36.1021875,47.700625 35.45375,47.700625 C29.90375,47.4834375 24.6396875,47.5553125 17.21625,47.5553125 C9.213125,47.5553125 4.600625,47.5553125 0.1303125,47.6271875 C-0.0853125,47.6271875 -0.0134375,46.2584375 0.2021875,46.2584375 C5.681875,46.185 6.4740625,46.185 6.69125,45.969375 C6.906875,45.75375 6.97875,44.744375 6.97875,40.2021875 C7.050625,31.5521875 7.1959375,22.4678125 7.1959375,14.46625 C7.1959375,7.835 7.1240625,5.6709375 6.835,5.3834375 C6.5459375,5.094375 5.6084375,5.0225 0.635,4.950625 C0.4178125,4.950625 0.49125,3.65375 0.706875,3.65375 C3.87875,3.725625 8.4928125,3.7975 11.16,3.7975" id="Fill-1" fill="#FFFFFF"></path>
                <path d="M48.7142187,10.8623437 C46.4798437,10.8623437 44.7485937,8.77171875 44.7485937,6.75296875 C44.7485937,5.52796875 45.1814062,4.59046875 45.9032812,3.86859375 C46.6954687,3.00453125 47.7767187,2.49828125 49.2907812,2.49828125 C51.3829687,2.49828125 53.1845312,4.22953125 53.1845312,6.32015625 C53.1845312,8.69828125 50.8767187,10.8623437 48.7142187,10.8623437 M39.9907812,47.5545312 C39.7751562,47.5545312 39.7032812,46.3295312 39.9907812,46.3295312 C44.0282812,46.2576562 45.1095312,46.2576562 45.3985937,45.9701562 C45.6860937,45.6810937 45.7579687,44.8873437 45.8314062,42.9404687 C45.9032812,40.4904687 45.9032812,38.8310937 45.9032812,36.5982812 C45.9032812,33.8592187 45.7579687,26.7935937 45.6157812,23.2623437 C45.6157812,21.9623437 45.4704687,21.2435937 45.1814062,20.9545312 C44.8939062,20.6654687 44.3173437,20.6654687 39.7751562,20.5951562 C39.5595312,20.5951562 39.5595312,19.3685937 39.7751562,19.3685937 C43.5235937,19.2951562 49.9407812,19.1529687 51.4532812,19.1529687 C51.9579687,19.1529687 52.1751562,19.2951562 52.1751562,19.8014062 C52.1017187,23.8389062 52.1751562,32.1998437 52.1751562,37.2467187 C52.1751562,44.0232812 52.4626562,45.6810937 52.7501562,45.9701562 C53.0392187,46.2576562 53.9048437,46.3295312 57.7970312,46.3295312 C58.1579687,46.3295312 58.1579687,47.6264062 57.7970312,47.6264062 C56.3564062,47.6264062 41.0735937,47.5545312 39.9907812,47.5545312" id="Fill-3" fill="#FFFFFF"></path>
                <g id="Group-7" transform="translate(56.250000, 0.238281)">
                    <mask id="mask-2" fill="white">
                        <use xlink:href="#path-1"></use>
                    </mask>
                    <g id="Clip-6"></g>
                    <path d="M13.4107813,25.9789062 C12.5451563,27.7804687 12.2576563,29.2945312 12.2576563,32.4664062 C12.2576563,40.1804687 12.4732813,42.1992187 12.9795313,43.1351562 C13.6264063,44.5054687 16.8701563,46.5226562 19.5373438,46.5226562 C22.0623438,46.5226562 23.9357813,45.2976562 25.3060938,42.6304687 C26.3873438,40.4679687 27.0357813,37.2960937 27.0357813,32.6835937 C27.0357813,27.8523437 26.3873438,24.5367187 25.4498438,22.6632813 C24.5123438,20.7882813 23.2873438,19.7789063 20.9795313,19.7789063 C17.6639063,19.7789063 14.9248438,23.0226563 13.4107813,25.9789062 M11.1029688,44.2898437 C10.7435938,44.2898437 9.66234375,45.2257812 6.70609375,48.2539062 C6.41859375,48.5414062 5.62640625,48.3992187 5.62640625,47.9648437 C5.76859375,44.2898437 5.91390625,36.8648437 5.91390625,27.6367187 C5.91390625,22.2304687 5.76859375,15.0929687 5.62640625,7.88515625 C5.55296875,4.42421875 5.48109375,3.34296875 5.26546875,3.12734375 C5.04828125,2.91015625 4.54515625,2.91015625 0.57953125,2.91015625 C0.29046875,2.91015625 0.29046875,1.68359375 0.57953125,1.68359375 C4.39984375,1.61171875 9.95140625,1.39609375 11.9685938,1.32421875 C12.4732813,1.32421875 12.5451563,1.61171875 12.5451563,2.04609375 C12.5451563,3.63046875 12.3295313,23.3835937 12.3295313,25.2570312 L12.4014063,25.3304687 C14.4201563,21.2929687 17.5920313,17.8320312 21.9889063,17.8320312 C25.3779688,17.8320312 28.3326563,19.4914062 30.6389063,21.7976562 C33.0904688,24.3195312 34.5326563,27.6367187 34.5326563,31.8164062 C34.5326563,36.7195312 32.2264063,40.8289062 29.3420313,43.7132812 C26.6029688,46.4523437 23.5029688,48.0382812 19.9717188,48.0382812 C14.9248438,48.0382812 11.7529688,44.2898437 11.1029688,44.2898437" id="Fill-5" fill="#FFFFFF" mask="url(#mask-2)"></path>
                </g>
                <path d="M103.776406,22.6848437 C102.623281,24.9926562 102.190469,27.8739062 102.046719,31.4067187 L116.681094,31.3348437 C116.246719,22.9739062 114.085781,19.5129687 109.254531,19.5129687 C106.515469,19.5129687 104.568594,21.0254687 103.776406,22.6848437 M123.168594,39.5535937 C120.860781,45.8254687 115.599844,48.5645312 110.768594,48.5645312 C106.010781,48.5645312 101.685781,46.6176562 98.7310937,43.6629687 C96.1342187,41.0676562 94.5482812,37.8223437 94.5482812,33.2098437 C94.5482812,29.3895312 96.3514062,25.5692187 98.8029687,23.0442187 C101.757656,20.0895312 105.362344,18.0707812 109.759219,18.0707812 C114.085781,18.0707812 117.546719,19.9442187 119.852969,22.2520312 C121.871719,24.2707812 123.601406,27.8739062 123.673281,32.2004687 C123.673281,32.5598437 123.527969,32.7051562 123.242031,32.7770312 C111.562344,32.7051562 105.795156,32.8489062 102.046719,32.9942187 C102.046719,37.6067187 102.695156,40.4910937 103.632656,42.4379687 C105.073281,45.2473437 107.309219,46.7614062 111.490469,46.7614062 C116.104531,46.7614062 119.709219,44.1676562 121.798281,38.9770312 C122.087344,38.6879687 123.242031,39.1926562 123.168594,39.5535937" id="Fill-8" fill="#FFFFFF"></path>
                <path d="M130.11375,45.9696875 C130.329375,45.7525 130.474687,43.3025 130.546562,41.5009375 C130.546562,38.905625 130.546562,32.055625 130.474687,28.88375 C130.474687,23.4759375 130.11375,21.315 129.824687,21.0259375 C129.537187,20.7384375 128.960625,20.7384375 124.996562,20.6665625 C124.7075,20.6665625 124.7075,19.3696875 125.068437,19.3696875 C127.95125,19.3696875 134.223125,19.1525 135.809062,19.1525 C136.818437,19.1525 136.962187,19.29625 136.962187,20.2321875 C136.890312,22.036875 136.818437,25.711875 136.818437,28.3790625 L136.962187,28.3790625 C139.268437,22.9728125 141.865312,18.5040625 146.045,18.5040625 C149.795,18.5040625 152.173125,20.80875 152.173125,23.62125 C152.173125,26.5775 150.010625,28.3071875 147.991875,28.3071875 C145.90125,28.3071875 144.38875,27.00875 144.38875,24.9915625 C144.38875,22.54 146.334062,21.6025 146.334062,21.0259375 C146.334062,20.7384375 145.973125,20.449375 145.109062,20.449375 C142.874687,20.449375 140.566875,23.33375 138.837187,26.936875 C137.466875,29.6775 136.962187,31.6228125 136.962187,34.0025 L136.962187,40.561875 C137.035625,43.8790625 137.177812,45.60875 137.466875,45.89625 C137.612187,46.1134375 138.765312,46.1134375 143.018437,46.25875 C143.377812,46.25875 143.377812,47.6275 143.090312,47.6275 L124.635625,47.6275 C124.418437,47.6275 124.346562,46.3290625 124.635625,46.3290625 C129.321562,46.25875 129.898125,46.1853125 130.11375,45.9696875" id="Fill-10" fill="#FFFFFF"></path>
                <path d="M161.159375,40.6351562 C161.159375,44.1679687 162.3125,46.1132812 164.907812,46.1132812 C167.792187,46.1132812 171.179687,43.3023437 171.829687,41.8601562 C172.117187,41.3554687 172.189062,40.9242187 172.260937,38.6882812 C172.332812,36.5976562 172.332812,35.8039062 172.40625,32.4882812 C162.960937,33.2820312 161.159375,34.7960937 161.159375,40.6351562 M161.304687,21.8914062 C161.304687,22.6851562 164.115625,22.9007812 164.115625,25.7117187 C164.115625,27.7304687 162.528125,29.2445312 160.367187,29.2445312 C158.276562,29.2445312 156.61875,27.7304687 156.61875,25.5679687 C156.61875,24.1273437 157.195312,22.9007812 158.346875,21.8195312 C160.221875,20.0179687 163.178125,18.3585937 167.43125,18.3585937 C171.829687,18.3585937 174.639062,19.6570312 176.514062,21.6023437 C178.389062,23.4773437 179.0375,25.6398437 179.0375,29.0273437 C179.0375,32.6335937 178.821875,38.9054687 178.821875,43.8054687 C178.821875,45.5367187 179.325,46.1851562 180.551562,46.1851562 C182.1375,46.1851562 183.578125,44.5992187 184.3,40.9945312 C184.44375,40.7789062 185.38125,40.9242187 185.38125,41.2117187 C184.73125,45.2476562 182.496875,48.2773437 178.676562,48.2773437 C175.071875,48.2773437 172.765625,46.3304687 172.045312,43.4460937 C169.665625,46.1851562 166.6375,48.1320312 163.034375,48.2039062 C158.78125,48.2773437 154.382812,45.3195312 154.382812,40.9945312 C154.382812,39.1929687 155.032812,37.5351562 156.545312,36.0929687 C158.923437,33.6414062 163.178125,31.8398437 172.40625,31.1914062 C172.476562,30.2523437 172.40625,28.1632812 172.40625,26.1460937 C172.40625,23.4054687 172.045312,22.0367187 171.107812,21.0976562 C170.314062,20.3054687 168.801562,19.7289062 166.710937,19.7289062 C163.467187,19.7289062 161.304687,21.3867187 161.304687,21.8914062" id="Fill-12" fill="#FFFFFF"></path>
                <path d="M198.052031,1.77875 C198.628594,1.77875 198.772344,2.0678125 198.772344,2.644375 C198.700469,10.14125 198.628594,16.3396875 198.628594,24.1271875 C198.628594,31.335 198.556719,37.3178125 198.484844,43.0865625 C198.484844,44.888125 198.700469,45.6084375 199.061406,45.969375 C199.350469,46.185 199.637969,46.3303125 203.962969,46.4021875 C204.178594,46.4021875 204.252031,47.700625 203.962969,47.700625 C197.619219,47.4834375 193.581719,47.4834375 186.878594,47.4834375 C186.661406,47.4834375 186.733281,46.185 186.950469,46.185 C190.842656,46.185 191.419219,46.113125 191.636406,45.8959375 C191.852031,45.681875 191.852031,45.319375 191.852031,44.1678125 C191.923906,40.706875 192.069219,34.0021875 192.069219,29.4615625 C192.069219,19.585 192.069219,13.0959375 191.923906,5.3115625 C191.923906,4.0146875 191.923906,3.65375 191.708281,3.438125 C191.491094,3.2209375 191.058281,3.2209375 186.878594,3.00375 C186.589531,2.931875 186.589531,1.77875 186.950469,1.77875 C191.058281,1.850625 193.725469,1.850625 198.052031,1.77875" id="Fill-14" fill="#FFFFFF"></path>
                <path d="M243.24625,11.2940625 C240.0025,18.93625 236.75875,26.2175 234.235312,32.055 C238.632187,32.2721875 246.49,32.4175 250.815,32.4175 C248.797812,26.289375 245.482187,17.133125 243.391562,11.2940625 L243.24625,11.2940625 Z M225.800937,45.033125 C226.593125,44.239375 227.530625,42.7971875 228.685312,40.3471875 C234.668125,27.4425 240.650937,14.1065625 245.047812,2.6440625 C245.193125,2.49875 245.554062,2.355 246.418125,2.355 C247.643125,2.355 247.860312,2.49875 247.932187,2.7878125 C249.879062,8.626875 252.907187,17.639375 261.124375,40.13 C262.350937,43.5909375 262.9275,44.7440625 263.791562,45.608125 C264.44,46.258125 265.09,46.33 269.269687,46.545625 C269.486875,46.545625 269.486875,47.7721875 269.269687,47.7721875 C265.23375,47.7003125 262.2775,47.555 259.394687,47.555 C256.0775,47.555 254.132187,47.483125 249.879062,47.626875 C249.73375,47.626875 249.661875,46.401875 249.879062,46.401875 C253.338437,46.1846875 254.204062,46.0409375 254.563437,45.608125 C254.924375,45.3190625 254.997812,44.7440625 254.563437,43.158125 C253.916562,41.21125 252.54625,37.3175 251.319687,33.93 C250.094687,33.858125 246.2025,33.78625 240.507187,33.78625 C237.768125,33.78625 235.965,33.78625 233.94625,33.858125 C233.65875,33.858125 233.37125,33.858125 233.225937,34.2190625 C232.072812,36.7425 231.424375,38.4003125 230.343125,41.21125 C229.910312,42.4378125 229.62125,43.5909375 229.62125,44.31125 C229.62125,45.8971875 230.27125,46.1128125 235.100937,46.401875 C235.244687,46.401875 235.172812,47.626875 235.0275,47.626875 C231.136875,47.483125 224.863437,47.483125 220.322812,47.626875 C220.1775,47.626875 220.1775,46.47375 220.322812,46.47375 C224.07125,46.258125 224.791562,46.0409375 225.800937,45.033125 Z" id="Fill-16" fill="#FFFFFF"></path>
                <path d="M276.914062,45.9696875 C277.129687,45.7525 277.275,43.3025 277.346875,41.5009375 C277.346875,38.905625 277.346875,32.055625 277.275,28.88375 C277.275,23.4759375 276.914062,21.315 276.625,21.0259375 C276.3375,20.7384375 275.760937,20.7384375 271.795312,20.6665625 C271.507812,20.6665625 271.507812,19.3696875 271.86875,19.3696875 C274.751562,19.3696875 281.023437,19.1525 282.609375,19.1525 C283.61875,19.1525 283.7625,19.29625 283.7625,20.2321875 C283.690625,22.036875 283.61875,25.711875 283.61875,28.3790625 L283.7625,28.3790625 C286.06875,22.9728125 288.665625,18.5040625 292.845312,18.5040625 C296.595312,18.5040625 298.973437,20.80875 298.973437,23.62125 C298.973437,26.5775 296.810937,28.3071875 294.792187,28.3071875 C292.701562,28.3071875 291.1875,27.00875 291.1875,24.9915625 C291.1875,22.54 293.132812,21.6025 293.132812,21.0259375 C293.132812,20.7384375 292.773437,20.449375 291.909375,20.449375 C289.673437,20.449375 287.367187,23.33375 285.6375,26.936875 C284.267187,29.6775 283.7625,31.6228125 283.7625,34.0025 L283.7625,40.561875 C283.834375,43.8790625 283.978125,45.60875 284.267187,45.89625 C284.410937,46.1134375 285.564062,46.1134375 289.81875,46.25875 C290.178125,46.25875 290.178125,47.6275 289.889062,47.6275 L271.434375,47.6275 C271.21875,47.6275 271.146875,46.3290625 271.434375,46.3290625 C276.121875,46.25875 276.698437,46.1853125 276.914062,45.9696875" id="Fill-18" fill="#FFFFFF"></path>
                <path d="M314.95875,48.131875 C311.930625,48.131875 309.768125,47.194375 308.182187,45.6084375 C306.885312,44.3115625 306.235312,42.725625 306.235312,39.55375 C306.235312,34.8678125 306.307187,26.6490625 306.4525,20.95375 C306.019687,20.8834375 302.1275,20.8834375 301.33375,20.8834375 C300.972812,20.8834375 301.04625,19.513125 301.261875,19.513125 C305.586875,19.2959375 306.885312,18.935 307.894687,17.9271875 C309.335312,16.556875 311.282187,12.519375 312.0025,8.9865625 C312.074375,8.6271875 313.157187,8.6271875 313.229062,8.9865625 C313.011875,11.4396875 313.011875,16.988125 312.94,19.2959375 C315.824375,19.369375 320.582187,19.369375 321.73375,19.369375 C322.168125,19.369375 322.022812,20.8834375 321.663437,20.8834375 C315.968125,20.8834375 313.73375,20.95375 312.94,21.025625 C312.79625,23.6928125 312.6525,31.694375 312.6525,37.535 C312.6525,42.5084375 312.79625,43.3021875 313.229062,44.2396875 C313.73375,45.2475 314.95875,46.04125 316.544687,46.04125 C318.850937,46.04125 320.87125,43.663125 322.094687,38.9053125 C322.168125,38.61625 323.393125,38.831875 323.32125,39.1928125 C322.094687,45.1053125 319.14,48.131875 314.95875,48.131875" id="Fill-20" fill="#FFFFFF"></path>
                <path d="M348.486094,44.8160937 C346.250156,46.9785937 342.718906,48.0598437 339.547031,48.0598437 C333.779844,48.0598437 331.039219,46.0410937 330.247031,46.0410937 C329.886094,46.0410937 329.381406,46.8332812 328.732969,48.4926562 C328.589219,48.7801562 327.579844,48.7082812 327.579844,48.4207812 C327.436094,45.1051562 327.147031,40.9957812 326.859531,37.8223437 C326.859531,37.5348437 328.012656,37.3910937 328.084531,37.6801562 C328.950156,40.3473437 330.031406,42.7254687 331.400156,44.0942187 C333.129844,45.8254687 336.157969,46.6895312 339.331406,46.6895312 C341.998594,46.6895312 343.800156,46.1129687 344.881406,45.1051562 C345.529844,44.3832812 346.107969,43.1567187 346.107969,41.5723437 C346.107969,39.1192187 344.304844,37.8942187 337.961094,36.2379687 C333.129844,34.9395312 330.897031,34.0020312 329.454844,32.5598437 C328.301719,31.4067187 327.653281,29.8207812 327.653281,27.9473437 C327.653281,22.5395312 332.553281,18.5754687 338.248594,18.5754687 C342.647031,18.5754687 345.747031,20.8832812 346.467344,20.8832812 C346.828281,20.8832812 347.043906,20.3051562 348.053281,17.8535937 C348.125156,17.6379687 349.134531,17.7098437 349.206406,17.9270312 C348.990781,21.1707812 348.990781,24.2707812 349.062656,27.5864062 C349.062656,28.0910937 347.981406,28.0910937 347.764219,27.7301562 C346.828281,25.3520312 345.890781,23.6223437 344.807969,22.6129687 C343.295469,21.0254687 341.276719,19.9442187 338.032969,19.9442187 C335.942344,19.9442187 334.356406,20.5942187 333.348594,21.6035937 C332.626719,22.3239062 332.122031,23.4051562 332.122031,24.6301562 C332.122031,27.3707812 334.211094,28.4504687 340.482969,30.0379687 C345.457969,31.3348437 347.693906,32.3442187 349.134531,33.8582812 C350.432969,35.1551562 351.081406,36.7426562 351.081406,38.6879687 C351.081406,41.2832812 349.926719,43.3020312 348.486094,44.8160937" id="Fill-22" fill="#FFFFFF"></path>
                <path d="M376.846875,36.2025 C375.165625,39.6259375 374.684375,41.8478125 374.684375,43.4103125 C374.684375,45.5728125 376.126562,46.83375 378.048437,46.83375 C381.171875,46.83375 385.976562,42.449375 388.320312,37.7040625 C390.6625,33.0196875 392.04375,29.115 392.04375,28.0946875 C392.04375,26.6525 390.542187,24.79 388.320312,24.79 C383.514062,24.79 379.910937,30.0759375 376.846875,36.2025 M392.825,26.593125 C393.484375,25.2696875 394.265625,23.70875 394.50625,23.70875 C394.865625,23.70875 397.389062,24.1290625 397.510937,24.2509375 C397.629687,24.3696875 397.810937,25.2696875 397.748437,25.4509375 C397.029687,27.0728125 393.545312,35.4821875 391.5625,40.6478125 C391.021875,41.968125 390.6625,43.830625 390.6625,44.7321875 C390.6625,45.7525 391.2625,46.4728125 392.164062,46.4728125 C393.604687,46.4728125 395.346875,45.6321875 398.890625,41.1275 C399.0125,41.0071875 399.792187,41.549375 399.73125,41.668125 C396.36875,46.174375 394.085937,48.0946875 391.203125,48.0946875 C389.160937,48.0946875 386.9375,46.6540625 386.9375,44.3103125 C386.9375,43.29 387.11875,42.2696875 387.359375,41.186875 C384.595312,44.911875 380.690625,48.155625 377.6875,48.155625 C374.625,48.155625 371.140625,44.911875 371.140625,40.34625 C371.140625,37.2228125 372.342187,33.9790625 376.00625,30.255625 C379.970312,26.3509375 384.715625,23.70875 388.320312,23.70875 C390.421875,23.70875 392.103125,24.90875 392.825,26.593125" id="Fill-24" fill="#FF700E"></path>
                <path d="M413.385469,24.4898437 C413.566719,24.4898437 413.685469,24.6101562 413.626094,24.7898437 C413.205781,26.0507812 411.104219,31.8789062 410.502656,33.3789062 C410.443281,33.5007812 410.622969,33.7398437 410.743281,33.6195312 C415.908906,26.8320312 418.730781,23.6492187 421.976094,23.6492187 C423.716719,23.6492187 424.979219,24.2507812 425.999531,25.2695312 C427.021406,26.2914062 427.441719,27.3726562 427.441719,28.6929687 C427.441719,30.7960937 426.719844,32.1789062 424.497969,36.8039062 C422.335469,41.3679687 421.615156,43.1101562 421.615156,44.3726562 C421.615156,45.4523437 422.396406,46.2335937 423.357344,46.2335937 C425.158906,46.2335937 427.321406,44.4914062 430.022969,41.4289062 C430.144844,41.3085937 430.985469,41.9695312 430.865156,42.0898437 C428.882344,44.4914062 425.099531,48.0351562 422.215156,48.0351562 C420.894844,48.0351562 419.993281,47.6148437 419.091719,46.7148437 C418.251094,45.8742187 417.830781,44.8523437 417.830781,43.4695312 C417.830781,42.2695312 418.430781,40.2257812 420.652656,35.6617187 C422.937031,30.9757812 423.537031,29.4742187 423.537031,28.0335937 C423.537031,26.5929687 422.576094,25.5695312 421.194844,25.5695312 C419.693281,25.5695312 418.671406,26.1710937 416.329219,28.5132812 C412.244844,32.5976562 408.699531,37.9445312 407.679219,40.4085937 C406.777656,42.6882812 405.576094,45.3335937 404.735469,47.4351562 C404.676094,47.6757812 400.952656,47.4960937 400.591719,47.4960937 C400.471406,47.4960937 400.471406,47.3742187 400.532344,47.1945312 C401.312031,45.4523437 405.516719,35.9632812 406.418281,33.8007812 C408.640156,28.2132812 409.060469,25.9914062 408.940156,25.8710937 C408.821406,25.7507812 403.415156,25.8117187 402.633906,25.7507812 C402.454219,25.7507812 402.572969,24.6695312 402.754219,24.6695312 C406.177656,24.6695312 413.085469,24.4898437 413.385469,24.4898437" id="Fill-26" fill="#FF700E"></path>
                <path d="M439.148438,34.5804687 C437.828125,37.1632812 436.926562,39.9867187 436.926562,42.5695312 C436.926562,45.4523437 438.007812,47.1945312 440.710938,47.1945312 C442.632813,47.1945312 444.615625,46.4132812 447.25625,43.7710937 C449.420313,41.6085937 450.68125,39.8664062 452.24375,36.0226562 C453.625,32.7195312 454.826563,29.9554687 454.945313,29.3539062 C454.465625,26.7117187 452.723438,24.6695312 449.840625,24.6695312 C445.515625,24.6695312 441.671875,29.4742187 439.148438,34.5804687 M455.667188,27.6132812 C455.667188,27.6726562 455.785938,27.7320312 455.846875,27.6132812 C458.25,21.7257812 459.8125,17.8820312 462.032813,12.1757812 C462.334375,11.3351562 462.214063,10.9757812 462.09375,10.8539062 C461.914063,10.6742187 458.009375,10.5539062 455.426563,10.5539062 C455.246875,10.5539062 455.246875,9.47265625 455.4875,9.47265625 C458.790625,9.47265625 463.35625,9.59296875 467.31875,9.53359375 C467.5,9.53359375 467.679688,9.71328125 467.620313,9.89296875 C462.515625,21.9070312 459.871875,28.2742187 454.404688,40.8273437 C453.684375,42.5101562 453.44375,43.5304687 453.44375,44.6117187 C453.44375,45.5726562 453.984375,46.4132812 454.945313,46.4132812 C456.3875,46.4132812 457.76875,45.6320312 459.8125,43.5914062 C460.7125,42.6882812 461.253125,42.1492187 462.032813,41.1273437 C462.154688,41.0070312 462.935938,41.6085937 462.814063,41.7289062 C459.63125,45.7523437 456.807813,48.0945312 454.345313,48.0945312 C451.703125,48.0945312 449.660938,46.2929687 449.660938,44.1304687 C449.660938,43.4695312 449.660938,43.2304687 449.78125,42.4492187 C446.717188,46.2335937 443.714063,48.3367187 440.409375,48.3367187 C438.367188,48.3367187 436.265625,47.2539062 434.945312,45.9335937 C433.74375,44.7320312 432.721875,42.8710937 432.721875,40.4070312 C432.721875,36.5632812 434.703125,32.5976562 437.828125,29.4742187 C440.770313,26.5320312 445.275,23.5882812 450.201563,23.5882812 C452.84375,23.5882812 454.885938,25.4507812 455.667188,27.6132812" id="Fill-28" fill="#FF700E"></path>
                <path d="M513.130781,3.14890625 C513.202656,2.93171875 514.212031,3.07546875 514.212031,3.29265625 C513.851094,7.83484375 513.707344,11.8707812 514.068281,17.4942187 C514.068281,17.7098437 513.058906,17.8535937 512.915156,17.5660937 C510.968281,12.5192187 509.310469,9.63484375 507.507344,7.83484375 C505.562031,5.88796875 503.038594,4.73484375 499.290156,4.73484375 C495.396406,4.73484375 493.090156,5.81609375 491.432344,7.47390625 C489.990156,8.91453125 489.126094,11.0051562 489.126094,13.2410937 C489.126094,17.9989062 492.297969,19.5129687 500.515156,21.6739062 C508.012031,23.6926562 511.616719,25.4957812 513.780781,27.6598437 C515.654219,29.5332812 516.590156,31.6957812 516.590156,35.1551562 C516.590156,42.7973437 509.813594,48.4207812 501.308906,48.4207812 C493.522969,48.4207812 489.629219,44.5989062 488.115156,44.5989062 C487.179219,44.5989062 486.024531,45.8957812 485.016719,47.8426562 C484.871406,48.1317187 483.935469,47.9879687 483.935469,47.7004687 C484.079219,42.6520312 484.079219,38.6160937 483.430781,31.9832812 C483.430781,31.6957812 484.366719,31.5520312 484.512031,31.8395312 C487.322969,38.2567187 489.052656,41.2114062 491.071406,43.2285937 C493.305781,45.4645312 496.910469,46.9067187 501.163594,46.9067187 C504.768281,46.9067187 507.435469,45.9692187 509.021406,44.3832812 C510.535469,42.8692187 511.255781,41.1379687 511.255781,38.6160937 C511.255781,34.0020312 508.372969,31.7660937 499.866719,29.6051562 C492.369844,27.6598437 488.908906,26.0723437 486.818281,23.9098437 C484.943281,22.0364062 484.079219,19.9442187 484.079219,16.5567187 C484.079219,9.56296875 490.422969,3.36609375 499.433906,3.36609375 C506.930781,3.36609375 510.174531,6.53640625 510.824531,6.53640625 C511.401094,6.53640625 512.338594,4.87859375 513.130781,3.14890625" id="Fill-30" fill="#FFFFFF"></path>
                <path d="M525.604844,43.8792187 C523.226719,41.5010937 521.425156,38.2557812 521.425156,33.7854687 C521.425156,29.9667187 523.009531,26.2167187 525.893906,23.2620312 C528.704844,20.4495312 532.381406,18.2870312 537.282969,18.2870312 C543.770469,18.2870312 548.817344,22.1792187 548.817344,26.1448437 C548.817344,28.9557812 546.872031,30.5417187 544.779844,30.5417187 C542.690781,30.5417187 541.103281,28.9557812 541.103281,27.1542187 C541.103281,26.0729687 541.392344,25.2807812 541.968906,24.6307812 C543.122031,23.4760937 544.709531,23.6214062 544.997031,23.3339062 C545.573594,22.7557812 542.690781,19.8010937 537.643906,19.8010937 C533.823594,19.8010937 531.732969,21.6745312 530.651719,23.8385937 C529.425156,26.2885937 528.993906,29.0276562 528.993906,32.9932812 C528.993906,37.8948437 529.353281,40.6354687 530.434531,42.6526562 C531.589219,44.9589062 533.462656,46.6901562 537.428281,46.6901562 C541.607969,46.6901562 545.645469,43.8057812 547.518906,38.1120312 C547.664219,37.5339062 549.034531,38.1823437 548.889219,38.6885937 C546.872031,44.6714062 542.401719,48.4198437 536.417344,48.4198437 C532.237656,48.4198437 528.417344,46.6901562 525.604844,43.8792187" id="Fill-32" fill="#FFFFFF"></path>
                <path d="M559.706562,10.8623437 C557.472187,10.8623437 555.740937,8.77171875 555.740937,6.75296875 C555.740937,5.52796875 556.17375,4.59046875 556.895625,3.86859375 C557.687812,3.00453125 558.769062,2.49828125 560.283125,2.49828125 C562.375312,2.49828125 564.176875,4.22953125 564.176875,6.32015625 C564.176875,8.69828125 561.869062,10.8623437 559.706562,10.8623437 M550.983125,47.5545312 C550.7675,47.5545312 550.695625,46.3295312 550.983125,46.3295312 C555.020625,46.2576562 556.101875,46.2576562 556.390937,45.9701562 C556.68,45.6810937 556.750312,44.8873437 556.82375,42.9404687 C556.895625,40.4904687 556.895625,38.8310937 556.895625,36.5982812 C556.895625,33.8592187 556.750312,26.7935937 556.606562,23.2623437 C556.606562,21.9623437 556.462812,21.2435937 556.17375,20.9545312 C555.88625,20.6654687 555.309687,20.6654687 550.7675,20.5951562 C550.551875,20.5951562 550.551875,19.3685937 550.7675,19.3685937 C554.515938,19.2951562 560.933125,19.1529687 562.445625,19.1529687 C562.950312,19.1529687 563.1675,19.2951562 563.1675,19.8014062 C563.094062,23.8389062 563.1675,32.1998437 563.1675,37.2467187 C563.1675,44.0232812 563.455,45.6810937 563.7425,45.9701562 C564.031562,46.2576562 564.897187,46.3295312 568.789375,46.3295312 C569.150312,46.3295312 569.150312,47.6264062 568.789375,47.6264062 C567.34875,47.6264062 552.064375,47.5545312 550.983125,47.5545312" id="Fill-34" fill="#FFFFFF"></path>
                <path d="M578.561875,22.6848437 C577.40875,24.9926562 576.975937,27.8739062 576.832187,31.4067187 L591.466562,31.3348437 C591.032187,22.9739062 588.87125,19.5129687 584.04,19.5129687 C581.300937,19.5129687 579.354062,21.0254687 578.561875,22.6848437 M597.954062,39.5535937 C595.647812,45.8254687 590.385312,48.5645312 585.554062,48.5645312 C580.79625,48.5645312 576.47125,46.6176562 573.516562,43.6629687 C570.919688,41.0676562 569.335313,37.8223437 569.335313,33.2098437 C569.335313,29.3895312 571.138438,25.5692187 573.588437,23.0442187 C576.543125,20.0895312 580.147812,18.0707812 584.54625,18.0707812 C588.87125,18.0707812 592.332187,19.9442187 594.638437,22.2520312 C596.657187,24.2707812 598.386875,27.8739062 598.45875,32.2004687 C598.45875,32.5598437 598.313437,32.7051562 598.0275,32.7770312 C586.347812,32.7051562 580.580625,32.8489062 576.832187,32.9942187 C576.832187,37.6067187 577.480625,40.4910937 578.418125,42.4379687 C579.860312,45.2473437 582.094687,46.7614062 586.275937,46.7614062 C590.89,46.7614062 594.494687,44.1676562 596.585312,38.9770312 C596.872812,38.6879687 598.0275,39.1926562 597.954062,39.5535937" id="Fill-36" fill="#FFFFFF"></path>
                <path d="M599.991406,46.4015625 C603.739844,46.3296875 604.460156,46.3296875 604.749219,46.1125 C605.036719,45.825 605.182031,44.74375 605.182031,40.41875 L605.182031,26.1453125 C605.182031,23.0453125 604.964844,21.3140625 604.605469,21.0265625 C604.388281,20.7375 603.667969,20.665625 599.919531,20.59375 C599.702344,20.59375 599.702344,19.36875 599.991406,19.36875 C603.235156,19.36875 608.497656,19.2953125 611.452344,19.2953125 C611.886719,19.2953125 611.958594,19.5125 611.958594,20.0171875 C611.886719,21.8203125 611.741406,25.3515625 611.671094,27.1546875 L611.886719,27.2265625 C614.410156,22.2515625 617.508594,18.14375 622.627344,18.14375 C628.250781,18.14375 631.494531,21.7484375 631.494531,28.5953125 C631.494531,31.334375 631.422656,34.7953125 631.422656,38.328125 C631.422656,44.45625 631.638281,45.753125 631.999219,46.1125 C632.214844,46.4015625 632.864844,46.4015625 636.324219,46.5453125 C636.541406,46.5453125 636.541406,47.7 636.252344,47.7 C630.485156,47.5546875 625.727344,47.6265625 621.257031,47.6265625 C620.897656,47.6265625 620.969531,46.4734375 621.185156,46.4734375 C623.349219,46.3296875 624.213281,46.2578125 624.502344,46.0421875 C624.789844,45.753125 624.789844,44.815625 624.789844,43.0859375 C624.789844,40.778125 624.717969,28.6671875 624.717969,27.1546875 C624.717969,23.3328125 623.564844,21.0984375 620.608594,21.0984375 C617.077344,21.0984375 614.121094,24.91875 612.607031,28.01875 C611.813281,29.5328125 611.597656,30.4703125 611.597656,32.99375 C611.597656,35.15625 611.671094,39.7703125 611.741406,42.3640625 C611.813281,44.8875 611.886719,45.753125 612.102344,45.9703125 C612.317969,46.184375 612.822656,46.3296875 616.427344,46.4734375 C616.642969,46.4734375 616.642969,47.7 616.283594,47.7 C611.671094,47.5546875 604.533594,47.5546875 600.063281,47.7 C599.702344,47.6265625 599.774219,46.4015625 599.991406,46.4015625" id="Fill-38" fill="#FFFFFF"></path>
                <path d="M641.10625,43.8792187 C638.728125,41.5010937 636.925,38.2557812 636.925,33.7854687 C636.925,29.9667187 638.510937,26.2167187 641.395312,23.2620312 C644.20625,20.4495312 647.882812,18.2870312 652.784375,18.2870312 C659.271875,18.2870312 664.31875,22.1792187 664.31875,26.1448437 C664.31875,28.9557812 662.373437,30.5417187 660.28125,30.5417187 C658.192187,30.5417187 656.604687,28.9557812 656.604687,27.1542187 C656.604687,26.0729687 656.89375,25.2807812 657.470312,24.6307812 C658.623437,23.4760937 660.210937,23.6214062 660.498437,23.3339062 C661.075,22.7557812 658.192187,19.8010937 653.145312,19.8010937 C649.325,19.8010937 647.234375,21.6745312 646.153125,23.8385937 C644.926562,26.2885937 644.495312,29.0276562 644.495312,32.9932812 C644.495312,37.8948437 644.854687,40.6354687 645.935937,42.6526562 C647.090625,44.9589062 648.964062,46.6901562 652.929687,46.6901562 C657.109375,46.6901562 661.146875,43.8057812 663.020312,38.1120312 C663.165625,37.5339062 664.535937,38.1823437 664.390625,38.6885937 C662.373437,44.6714062 657.903125,48.4198437 651.91875,48.4198437 C647.739062,48.4198437 643.91875,46.6901562 641.10625,43.8792187" id="Fill-40" fill="#FFFFFF"></path>
                <path d="M677.081875,22.6848437 C675.92875,24.9926562 675.495937,27.8739062 675.352187,31.4067187 L689.986562,31.3348437 C689.55375,22.9739062 687.39125,19.5129687 682.561562,19.5129687 C679.820937,19.5129687 677.874062,21.0254687 677.081875,22.6848437 M696.474062,39.5535937 C694.167812,45.8254687 688.905312,48.5645312 684.074062,48.5645312 C679.317812,48.5645312 674.99125,46.6176562 672.036562,43.6629687 C669.439687,41.0676562 667.855312,37.8223437 667.855312,33.2098437 C667.855312,29.3895312 669.658437,25.5692187 672.108437,23.0442187 C675.063125,20.0895312 678.667812,18.0707812 683.06625,18.0707812 C687.39125,18.0707812 690.850625,19.9442187 693.158437,22.2520312 C695.177187,24.2707812 696.906875,27.8739062 696.97875,32.2004687 C696.97875,32.5598437 696.835,32.7051562 696.5475,32.7770312 C684.867812,32.7051562 679.100625,32.8489062 675.352187,32.9942187 C675.352187,37.6067187 676.000625,40.4910937 676.938125,42.4379687 C678.380312,45.2473437 680.614687,46.7614062 684.795937,46.7614062 C689.41,46.7614062 693.014687,44.1676562 695.105312,38.9770312 C695.392812,38.6879687 696.5475,39.1926562 696.474062,39.5535937" id="Fill-42" fill="#FFFFFF"></path>
                <g id="Group-46" transform="translate(700.000000, 17.425781)">
                    <mask id="mask-4" fill="white">
                        <use xlink:href="#path-3"></use>
                    </mask>
                    <g id="Clip-45"></g>
                    <path d="M22.805625,27.3903125 C20.5696875,29.5528125 17.0384375,30.6340625 13.8665625,30.6340625 C8.099375,30.6340625 5.35875,28.6153125 4.5665625,28.6153125 C4.205625,28.6153125 3.7009375,29.4075 3.0525,31.066875 C2.90875,31.354375 1.899375,31.2825 1.899375,30.995 C1.7540625,27.679375 1.4665625,23.57 1.1775,20.3965625 C1.1775,20.1090625 2.330625,19.9653125 2.4040625,20.254375 C3.2696875,22.9215625 4.3509375,25.2996875 5.7196875,26.6684375 C7.449375,28.3996875 10.4775,29.26375 13.6509375,29.26375 C16.318125,29.26375 18.118125,28.6871875 19.2009375,27.679375 C19.849375,26.9575 20.4275,25.7309375 20.4275,24.1465625 C20.4275,21.6934375 18.624375,20.4684375 12.280625,18.8121875 C7.449375,17.51375 5.2165625,16.57625 3.774375,15.1340625 C2.6196875,13.9809375 1.9728125,12.395 1.9728125,10.5215625 C1.9728125,5.11375 6.8728125,1.1496875 12.568125,1.1496875 C16.965,1.1496875 20.0665625,3.4575 20.786875,3.4575 C21.14625,3.4575 21.3634375,2.879375 22.3728125,0.4278125 C22.4446875,0.2121875 23.4540625,0.2840625 23.5259375,0.50125 C23.3103125,3.745 23.3103125,6.845 23.3821875,10.160625 C23.3821875,10.6653125 22.3009375,10.6653125 22.08375,10.304375 C21.14625,7.92625 20.20875,6.1965625 19.1275,5.1871875 C17.615,3.5996875 15.59625,2.5184375 12.3525,2.5184375 C10.261875,2.5184375 8.6759375,3.1684375 7.6665625,4.1778125 C6.94625,4.898125 6.44,5.979375 6.44,7.204375 C6.44,9.945 8.530625,11.0246875 14.8025,12.6121875 C19.7775,13.9090625 22.011875,14.9184375 23.4540625,16.4325 C24.7525,17.729375 25.4009375,19.316875 25.4009375,21.2621875 C25.4009375,23.8575 24.24625,25.87625 22.805625,27.3903125" id="Fill-44" fill="#FFFFFF" mask="url(#mask-4)"></path>
                </g>
            </g>
        </g>
    </g>
</svg>