<?xml version="1.0" encoding="UTF-8"?>
<svg width="135px" height="135px" viewBox="0 0 135 135" version="1.1" xmlns="http://www.w3.org/2000/svg" xmlns:xlink="http://www.w3.org/1999/xlink">
    <!-- Generator: Sketch 50.2 (55047) - http://www.bohemiancoding.com/sketch -->
    <title>Group 2</title>
    <desc>Created with Sketch.</desc>
    <defs></defs>
    <g id="Page-1" stroke="none" stroke-width="1" fill="none" fill-rule="evenodd">
        <g id="Desktop-HD" transform="translate(-1203.000000, -1635.000000)" fill="#99D0DF">
            <g id="Group-2" transform="translate(1203.000000, 1635.000000)">
                <path d="M73.0016748,119.322157 L73.0016748,113.674815 L67.2467098,110.004325 L61.4926888,113.674815 L61.4926888,119.322157 L60.9772343,119.260794 C59.5366049,119.087087 58.087479,118.850129 56.670451,118.557472 C45.1001014,116.167122 34.5663252,109.78908 27.0091573,100.598696 C23.2461503,96.0219126 20.3110804,90.8900245 18.2879685,85.3446399 C16.1940524,79.6057238 15.1319895,73.5694301 15.1319895,67.4019126 C15.1319895,53.4497098 20.5527587,40.3320524 30.3964301,30.4657238 C40.2391573,20.6003392 53.3266049,15.1663531 67.2467098,15.1663531 C81.1677587,15.1663531 94.2552063,20.6003392 104.097934,30.4657238 C113.941605,40.3320524 119.362374,53.4497098 119.362374,67.4019126 C119.362374,73.584535 118.295591,79.6359336 116.190346,85.3880664 C114.15685,90.9457238 111.208563,96.0870524 107.426675,100.6695 C99.8317448,109.873101 89.2526538,116.239815 77.6398217,118.595234 C76.2813252,118.870899 74.894507,119.09464 73.5171294,119.260794 L73.0016748,119.322157 Z M67.2467098,16.0896399 C53.5730035,16.0896399 40.7168497,21.4273322 31.0478287,31.1190105 C21.3778636,40.8106888 16.0533881,53.6961084 16.0533881,67.4019126 C16.0533881,73.4599196 17.0965699,79.390479 19.1527238,85.0274371 C21.1409056,90.4736958 24.0231084,95.5158986 27.7209755,100.011493 C35.1440874,109.0395 45.4909406,115.305199 56.8564301,117.653066 C58.0789825,117.906073 59.3260804,118.115654 60.5712902,118.278976 L60.5712902,113.167857 L67.2467098,108.910164 L73.9230734,113.167857 L73.9230734,118.278976 C75.1059755,118.12415 76.2917098,117.926843 77.4566748,117.689885 C88.8637028,115.376948 99.2558706,109.122577 106.716745,100.080409 C110.431605,95.5791503 113.327969,90.528451 115.325591,85.0699196 C117.392129,79.4206888 118.440976,73.4759685 118.440976,67.4019126 C118.440976,53.6961084 113.1165,40.8106888 103.446535,31.1190105 C93.777514,21.4273322 80.9213601,16.0896399 67.2467098,16.0896399 Z" id="Fill-1"></path>
                <path d="M21.3975944,33.7832308 C21.3975944,34.6753636 20.6744476,35.3975664 19.7832587,35.3975664 C18.8911259,35.3975664 18.167979,34.6753636 18.167979,33.7832308 C18.167979,32.8910979 18.8911259,32.167951 19.7832587,32.167951 C20.6744476,32.167951 21.3975944,32.8910979 21.3975944,33.7832308" id="Fill-3"></path>
                <path d="M14.0391503,47.8574056 C14.0391503,48.7164965 13.3424371,49.4122657 12.4842902,49.4122657 C11.6251993,49.4122657 10.928486,48.7164965 10.928486,47.8574056 C10.928486,46.9983147 11.6251993,46.3025455 12.4842902,46.3025455 C13.3424371,46.3025455 14.0391503,46.9983147 14.0391503,47.8574056" id="Fill-5"></path>
                <path d="M10.7626154,63.3854266 C10.7626154,64.2114755 10.0932797,64.8808112 9.26723077,64.8808112 C8.44212587,64.8808112 7.77184615,64.2114755 7.77184615,63.3854266 C7.77184615,62.5593776 8.44212587,61.890042 9.26723077,61.890042 C10.0932797,61.890042 10.7626154,62.5593776 10.7626154,63.3854266" id="Fill-7"></path>
                <path d="M11.761521,79.2071434 C11.761521,80.0001503 11.1186189,80.6430524 10.3256119,80.6430524 C9.53354895,80.6430524 8.89064685,80.0001503 8.89064685,79.2071434 C8.89064685,78.4141364 9.53354895,77.7712343 10.3256119,77.7712343 C11.1186189,77.7712343 11.761521,78.4141364 11.761521,79.2071434" id="Fill-9"></path>
                <path d="M16.9856434,94.1557972 C16.9856434,94.9157622 16.3701189,95.5312867 15.6101538,95.5312867 C14.8501888,95.5312867 14.2337203,94.9157622 14.2337203,94.1557972 C14.2337203,93.3958322 14.8501888,92.7803077 15.6101538,92.7803077 C16.3701189,92.7803077 16.9856434,93.3958322 16.9856434,94.1557972" id="Fill-11"></path>
                <path d="M26.0468811,107.179427 C26.0468811,107.90635 25.4577902,108.495441 24.7308671,108.495441 C24.0039441,108.495441 23.4148531,107.90635 23.4148531,107.179427 C23.4148531,106.452503 24.0039441,105.863413 24.7308671,105.863413 C25.4577902,105.863413 26.0468811,106.452503 26.0468811,107.179427" id="Fill-13"></path>
                <path d="M38.2471993,117.157909 C38.2471993,117.85179 37.684542,118.414448 36.9906608,118.414448 C36.2977238,118.414448 35.7350664,117.85179 35.7350664,117.157909 C35.7350664,116.464028 36.2977238,115.901371 36.9906608,115.901371 C37.684542,115.901371 38.2471993,116.464028 38.2471993,117.157909" id="Fill-15"></path>
                <path d="M52.6924825,123.493374 C52.6924825,124.154213 52.1572028,124.689493 51.4963636,124.689493 C50.8355245,124.689493 50.3002448,124.154213 50.3002448,123.493374 C50.3002448,122.832535 50.8355245,122.297255 51.4963636,122.297255 C52.1572028,122.297255 52.6924825,122.832535 52.6924825,123.493374" id="Fill-17"></path>
                <path d="M113.095448,33.7832308 C113.095448,34.6753636 113.818594,35.3975664 114.710727,35.3975664 C115.60286,35.3975664 116.325063,34.6753636 116.325063,33.7832308 C116.325063,32.8910979 115.60286,32.167951 114.710727,32.167951 C113.818594,32.167951 113.095448,32.8910979 113.095448,33.7832308" id="Fill-19"></path>
                <path d="M120.454269,47.8574056 C120.454269,48.7164965 121.150038,49.4122657 122.009129,49.4122657 C122.86822,49.4122657 123.56399,48.7164965 123.56399,47.8574056 C123.56399,46.9983147 122.86822,46.3025455 122.009129,46.3025455 C121.150038,46.3025455 120.454269,46.9983147 120.454269,47.8574056" id="Fill-21"></path>
                <path d="M123.730332,63.3854266 C123.730332,64.2114755 124.399668,64.8808112 125.225717,64.8808112 C126.051766,64.8808112 126.721101,64.2114755 126.721101,63.3854266 C126.721101,62.5593776 126.051766,61.890042 125.225717,61.890042 C124.399668,61.890042 123.730332,62.5593776 123.730332,63.3854266" id="Fill-23"></path>
                <path d="M122.731427,79.2071434 C122.731427,80.0001503 123.374329,80.6430524 124.167336,80.6430524 C124.959399,80.6430524 125.603245,80.0001503 125.603245,79.2071434 C125.603245,78.4141364 124.959399,77.7712343 124.167336,77.7712343 C123.374329,77.7712343 122.731427,78.4141364 122.731427,79.2071434" id="Fill-25"></path>
                <path d="M117.507304,94.1557972 C117.507304,94.9157622 118.122829,95.5312867 118.883738,95.5312867 C119.642759,95.5312867 120.259227,94.9157622 120.259227,94.1557972 C120.259227,93.3958322 119.642759,92.7803077 118.883738,92.7803077 C118.122829,92.7803077 117.507304,93.3958322 117.507304,94.1557972" id="Fill-27"></path>
                <path d="M108.446161,107.179427 C108.446161,107.90635 109.035252,108.495441 109.762175,108.495441 C110.489098,108.495441 111.078189,107.90635 111.078189,107.179427 C111.078189,106.452503 110.489098,105.863413 109.762175,105.863413 C109.035252,105.863413 108.446161,106.452503 108.446161,107.179427" id="Fill-29"></path>
                <path d="M96.2458427,117.157909 C96.2458427,117.85179 96.8085,118.414448 97.5023811,118.414448 C98.1953182,118.414448 98.7579755,117.85179 98.7579755,117.157909 C98.7579755,116.464028 98.1953182,115.901371 97.5023811,115.901371 C96.8085,115.901371 96.2458427,116.464028 96.2458427,117.157909" id="Fill-31"></path>
                <path d="M81.8010315,123.493374 C81.8010315,124.154213 82.3363112,124.689493 82.9971503,124.689493 C83.6579895,124.689493 84.1932692,124.154213 84.1932692,123.493374 C84.1932692,122.832535 83.6579895,122.297255 82.9971503,122.297255 C82.3363112,122.297255 81.8010315,122.832535 81.8010315,123.493374" id="Fill-33"></path>
                <path d="M73.9226958,114.262584 L66.7865769,109.710346 L66.7865769,100.09608 L73.9226958,104.647374 L73.9226958,114.262584 Z M67.7079755,109.203388 L73.0012972,112.580276 L73.0012972,105.155276 L67.7079755,101.778388 L67.7079755,109.203388 Z" id="Fill-35"></path>
                <path d="M60.5712902,114.262584 L60.5712902,104.647374 L67.7083531,100.09608 L67.7083531,109.710346 L60.5712902,114.262584 Z M61.4926888,105.155276 L61.4926888,112.580276 L66.7860105,109.203388 L66.7860105,101.778388 L61.4926888,105.155276 Z" id="Fill-37"></path>
                <path d="M61.0318007,106.778769 C60.7769056,106.778769 60.5711014,106.572021 60.5711014,106.317126 L60.5711014,101.644993 C60.5711014,101.390098 60.7769056,101.18335 61.0318007,101.18335 C61.2866958,101.18335 61.4925,101.390098 61.4925,101.644993 L61.4925,106.317126 C61.4925,106.572021 61.2866958,106.778769 61.0318007,106.778769" id="Fill-39"></path>
                <path d="M67.246993,102.106448 C66.9920979,102.106448 66.7862937,101.899699 66.7862937,101.644804 L66.7862937,97.6807133 C66.7862937,97.4258182 66.9920979,97.2190699 67.246993,97.2190699 C67.5018881,97.2190699 67.7076923,97.4258182 67.7076923,97.6807133 L67.7076923,101.644804 C67.7076923,101.899699 67.5018881,102.106448 67.246993,102.106448" id="Fill-41"></path>
                <path d="M73.4621853,106.778769 C73.2072902,106.778769 73.001486,106.572021 73.001486,106.317126 L73.001486,101.644993 C73.001486,101.390098 73.2072902,101.18335 73.4621853,101.18335 C73.7170804,101.18335 73.9228846,101.390098 73.9228846,101.644993 L73.9228846,106.317126 C73.9228846,106.572021 73.7170804,106.778769 73.4621853,106.778769" id="Fill-43"></path>
                <path d="M71.390549,112.492479 C71.1356538,112.492479 70.9298497,112.285731 70.9298497,112.030836 L70.9298497,107.398353 C70.9298497,107.143458 71.1356538,106.937654 71.390549,106.937654 C71.6454441,106.937654 71.8512483,107.143458 71.8512483,107.398353 L71.8512483,112.030836 C71.8512483,112.285731 71.6454441,112.492479 71.390549,112.492479" id="Fill-45"></path>
                <path d="M69.318535,111.130773 C69.0645839,111.130773 68.8578357,110.924024 68.8578357,110.669129 L68.8578357,106.036647 C68.8578357,105.781752 69.0645839,105.575003 69.318535,105.575003 C69.5734301,105.575003 69.7792343,105.781752 69.7792343,106.036647 L69.7792343,110.669129 C69.7792343,110.924024 69.5734301,111.130773 69.318535,111.130773" id="Fill-47"></path>
                <path d="M65.1753566,111.130773 C64.9204615,111.130773 64.7146573,110.924024 64.7146573,110.669129 L64.7146573,106.036647 C64.7146573,105.781752 64.9204615,105.575003 65.1753566,105.575003 C65.4302517,105.575003 65.6360559,105.781752 65.6360559,106.036647 L65.6360559,110.669129 C65.6360559,110.924024 65.4302517,111.130773 65.1753566,111.130773" id="Fill-49"></path>
                <path d="M63.1038147,112.492479 C62.8489196,112.492479 62.6431154,112.285731 62.6431154,112.030836 L62.6431154,107.398353 C62.6431154,107.143458 62.8489196,106.937654 63.1038147,106.937654 C63.3577657,106.937654 63.564514,107.143458 63.564514,107.398353 L63.564514,112.030836 C63.564514,112.285731 63.3577657,112.492479 63.1038147,112.492479" id="Fill-51"></path>
                <path d="M67.246993,129.637573 C66.9920979,129.637573 66.7862937,129.430825 66.7862937,129.17593 L66.7862937,109.457434 C66.7862937,109.202538 66.9920979,108.99579 67.246993,108.99579 C67.5018881,108.99579 67.7076923,109.202538 67.7076923,109.457434 L67.7076923,129.17593 C67.7076923,129.430825 67.5018881,129.637573 67.246993,129.637573" id="Fill-53"></path>
                <path d="M67.246993,134.80458 C58.168951,134.80458 49.3618531,133.022203 41.0711538,129.507483 C33.0636713,126.112657 25.8718531,121.253601 19.6958392,115.062483 C13.5207692,108.873252 8.6720979,101.664441 5.28482517,93.6380769 C1.77765734,85.3284965 0,76.5015734 0,67.4027622 C0,58.303007 1.77765734,49.4760839 5.28482517,41.1655594 C8.6720979,33.1401399 13.5207692,25.9313287 19.6958392,19.7420979 C25.8718531,13.5519231 33.0636713,8.69192308 41.0711538,5.2970979 C49.3618531,1.78237762 58.168951,0 67.246993,0 C76.325035,0 85.1321329,1.78237762 93.4228322,5.2970979 C101.430315,8.69192308 108.622133,13.5519231 114.798147,19.7420979 C120.973217,25.9313287 125.821888,33.1401399 129.209161,41.1655594 C132.716329,49.4760839 134.493986,58.303007 134.493986,67.4027622 C134.493986,76.5015734 132.716329,85.3284965 129.209161,93.6380769 C125.821888,101.664441 120.973217,108.873252 114.798147,115.062483 C108.622133,121.253601 101.430315,126.112657 93.4228322,129.507483 C85.1321329,133.022203 76.325035,134.80458 67.246993,134.80458 M67.246993,0.924230769 C58.2926224,0.924230769 49.6063636,2.68111888 41.4298951,6.14769231 C33.5328671,9.49625874 26.4392308,14.2892308 20.3472378,20.3953846 C14.2561888,26.4996503 9.4736014,33.6102797 6.13353147,41.5261888 C2.67545455,49.7215385 0.921398601,58.4276224 0.921398601,67.4027622 C0.921398601,76.376958 2.67545455,85.083042 6.13353147,93.2783916 C9.4736014,101.194301 14.2561888,108.30493 20.3472378,114.41014 C26.4392308,120.51535 33.5328671,125.308322 41.4298951,128.656888 C49.6063636,132.123462 58.2926224,133.881294 67.246993,133.881294 C76.2013636,133.881294 84.8876224,132.123462 93.0640909,128.656888 C100.962063,125.308322 108.054755,120.51535 114.146748,114.41014 C120.237797,108.30493 125.020385,101.194301 128.360455,93.2783916 C131.818531,85.083042 133.572587,76.376958 133.572587,67.4027622 C133.572587,58.4276224 131.818531,49.7215385 128.360455,41.5261888 C125.020385,33.6102797 120.237797,26.4996503 114.146748,20.3953846 C108.054755,14.2892308 100.962063,9.49625874 93.0640909,6.14769231 C84.8876224,2.68111888 76.2013636,0.924230769 67.246993,0.924230769" id="Fill-55"></path>
                <path d="M73.4621853,132.726997 C73.3479545,132.726997 73.2375,132.684514 73.152535,132.607101 C73.0562413,132.519304 73.001486,132.394689 73.001486,132.265353 L73.001486,118.802171 L73.9228846,118.802171 L73.9228846,131.755563 C89.640472,130.136507 104.170437,122.797416 114.888304,111.052416 C125.789318,99.1063322 131.793514,83.6039895 131.793514,67.4021014 C131.793514,58.6686399 130.086661,50.1957378 126.721101,42.2203531 C123.470717,34.5168566 118.816521,27.5978706 112.88785,21.6559825 C106.960122,15.7140944 100.057185,11.049514 92.3716259,7.79157692 C84.4141783,4.41752098 75.9611014,2.70689161 67.247465,2.70689161 C58.5338287,2.70689161 50.0798077,4.41752098 42.1233042,7.79157692 C34.4368007,11.049514 27.5338636,15.7140944 21.6061364,21.6559825 C15.6784091,27.5978706 11.0242133,34.5168566 7.77288462,42.2203531 C4.40732517,50.1957378 2.70047203,58.6686399 2.70047203,67.4021014 C2.70047203,83.6039895 8.70466783,99.1063322 19.6056818,111.052416 C30.323549,122.797416 44.854458,130.136507 60.5711014,131.755563 L60.5711014,118.802171 L61.4925,118.802171 L61.4925,132.265353 C61.4925,132.394689 61.4377448,132.519304 61.3423951,132.607101 C61.2461014,132.693955 61.1177098,132.737381 60.9883741,132.725108 C44.8497378,131.191017 29.9128846,123.715038 18.9259615,111.675493 C7.86917832,99.558535 1.77907343,83.8352832 1.77907343,67.4021014 C1.77907343,58.5440245 3.51047203,49.9502832 6.92417832,41.8606678 C10.2217657,34.0467168 14.9420455,27.029549 20.9547378,21.0026958 C26.9674301,14.9767867 33.968549,10.2451783 41.7636189,6.94098252 C49.8352972,3.51877972 58.4092133,1.7836049 67.247465,1.7836049 C76.0847727,1.7836049 84.6586888,3.51877972 92.7303671,6.94098252 C100.525437,10.2451783 107.5275,14.9767867 113.540192,21.0026958 C119.551941,27.029549 124.27222,34.0467168 127.569808,41.8606678 C130.983514,49.9502832 132.714913,58.5440245 132.714913,67.4021014 C132.714913,83.8352832 126.624808,99.558535 115.568024,111.675493 C104.582045,123.715038 89.6442483,131.191017 73.5056119,132.725108 C73.491451,132.726052 73.4772902,132.726997 73.4621853,132.726997" id="Fill-57"></path>
                <path d="M29.1481993,50.8595979 L32.3579895,50.8624301 L32.3391084,74.1796678 C32.3353322,79.2719056 32.3325,83.4436888 34.7256818,87.1944231 C37.4001923,91.4398427 42.2601923,94.1426748 49.3075699,94.1483392 L49.3368357,94.1483392 C61.7908217,94.1483392 66.2269406,87.6352972 66.2382692,74.2070455 L66.2571503,50.8898077 L69.490542,50.8926399 L69.4971503,42.3130594 L53.3122552,42.2998427 L53.3056469,50.8794231 L56.4616259,50.8813112 L56.4446329,71.2993531 C56.4380245,79.8515559 55.4486538,83.9638636 49.3273951,83.9638636 L49.3170105,83.9638636 C43.1853671,83.9591434 42.2016608,79.8449476 42.2092133,71.2880245 L42.2262063,50.8699825 L45.3566958,50.8728147 L45.3642483,42.2932343 L29.1548077,42.2800175 L29.1481993,50.8595979 Z M96.5934441,55.6742832 L96.5972203,50.9171853 L83.3483392,50.9058566 L83.3379545,63.1663112 L95.4039336,63.1757517 L95.3973252,71.8299126 L83.3313462,71.819528 L83.3200175,84.9456818 L86.4797727,84.948514 L86.4731643,93.6017308 L70.3222552,93.588514 L70.3288636,84.9352972 L73.5943531,84.9381294 L73.6217308,50.8983042 L70.3458566,50.895472 L70.352465,42.3140035 L105.34201,42.3423252 L105.331626,55.6808916 L96.5934441,55.6742832 Z" id="Fill-59"></path>
                <path d="M32.669528,87.2421923 L19.3432343,87.2421923 L19.9483741,88.081458 L33.158549,88.081458 C32.9838986,87.8029615 32.821521,87.523521 32.669528,87.2421923" id="Fill-61"></path>
                <path d="M58.9412832,115.140273 C56.0826818,113.339958 52.7765979,110.960937 49.4818427,107.930517 C49.3005839,107.762476 49.116493,107.588769 48.9333462,107.416007 L57.3316678,107.416007 C57.8678916,108.449748 58.4069476,109.413629 58.9412832,110.313315 L58.9412832,108.658385 C58.7156538,108.256217 58.4900245,107.84272 58.2643951,107.416007 L58.9412832,107.416007 L58.9412832,106.577685 L57.8301294,106.577685 C56.287542,103.544434 54.7761084,99.9268112 53.4780315,95.6795035 C53.2042552,95.7172657 52.9219825,95.7465315 52.6397098,95.7757972 C53.9104091,99.9589091 55.3888007,103.545378 56.9040105,106.577685 L48.0610385,106.577685 C44.493451,103.07335 40.7615979,98.5126154 37.7613881,92.8218462 C37.2232762,92.464049 36.7163182,92.0750979 36.2320175,91.6606573 C39.2350594,97.8366713 43.1151294,102.780692 46.8743601,106.577685 L33.4838706,106.577685 L34.0890105,107.416007 L47.7211783,107.416007 C48.1290105,107.81251 48.5358986,108.199573 48.9371224,108.568699 C52.4348497,111.78321 55.950514,114.277406 58.9412832,116.129643 L58.9412832,115.140273 Z" id="Fill-63"></path>
                <path d="M118.88015,68.745965 L118.88015,67.9066993 L103.478822,67.9066993 C103.478822,67.867049 103.48071,67.8283427 103.48071,67.7886923 C103.48071,64.1200909 103.14085,60.6903357 102.547038,57.4786573 L101.691724,57.4786573 C102.294976,60.6856154 102.641444,64.1153706 102.641444,67.7886923 C102.641444,67.8283427 102.639556,67.867049 102.639556,67.9066993 L97.2008497,67.9066993 L97.1999056,68.745965 L102.627283,68.745965 C102.513997,75.7527483 101.173437,81.9042168 99.1201154,87.2419091 L88.2785769,87.2419091 L88.2776329,88.0811748 L98.7859196,88.0811748 C95.5638566,96.0395664 90.7869336,102.147608 86.2771783,106.577119 L77.4370385,106.577119 C78.9975629,103.455126 80.517493,99.7430979 81.8136818,95.3985524 L80.9413741,95.3976084 C79.6244161,99.7657552 78.0799406,103.476839 76.5043112,106.577119 L75.4620734,106.577119 L75.4620734,107.416385 L76.0691014,107.416385 C75.8670734,107.799671 75.6650455,108.169741 75.4620734,108.533203 L75.4620734,110.207958 C75.9765839,109.338483 76.4948706,108.410476 77.0103252,107.416385 L85.4048706,107.416385 C85.2217238,107.589147 85.0376329,107.762853 84.8563741,107.929951 C81.5871084,110.937713 78.3055699,113.303517 75.4620734,115.099112 L75.4620734,116.088483 C78.4396259,114.240965 81.9288566,111.759986 85.4010944,108.569077 C85.8023182,108.199951 86.2092063,107.811944 86.6170385,107.416385 L100.085885,107.416385 L101.297108,106.577119 L87.4638566,106.577119 C91.924521,102.072084 96.5598357,95.9602657 99.6903252,88.0811748 L114.373227,88.0811748 L114.979311,87.2419091 L100.018857,87.2419091 C102.04008,81.8872238 103.354206,75.7366993 103.465605,68.745965 L118.88015,68.745965 Z" id="Fill-65"></path>
                <polygon id="Fill-67" points="30.544458 67.9070769 15.6132692 67.9070769 15.6132692 68.7463427 30.543514 68.7463427"></polygon>
                <polygon id="Fill-69" points="115.002441 48.5718671 107.13751 48.5718671 107.136566 49.4111329 115.608524 49.4111329"></polygon>
                <polygon id="Fill-71" points="27.3495839 48.5718671 19.3430455 48.5718671 18.7369615 49.4111329 27.3495839 49.4111329"></polygon>
                <path d="M49.4795769,27.9183776 C55.6310455,22.3522238 61.8363252,19.0376434 65.0555559,17.5309301 C63.1126888,19.5021189 59.9387727,23.2632378 56.9074091,29.2362797 L48.0719895,29.2362797 C48.5449615,28.7803007 49.0151014,28.3384825 49.4795769,27.9183776 Z M66.7529685,17.0626783 L66.7529685,29.2362797 L57.8429685,29.2362797 C61.4728636,22.2115594 65.2538077,18.4041818 66.7529685,17.0626783 Z M67.5922343,17.0617343 C69.0913951,18.4004056 72.8770594,22.204951 76.5069545,29.2362797 L67.5922343,29.2362797 L67.5922343,17.0617343 Z M84.8354161,27.8976084 C85.3083881,28.3243217 85.7860804,28.7718042 86.2666049,29.2362797 L77.4340175,29.2362797 C74.405486,23.267014 71.2353462,19.5077832 69.292479,17.5347063 C72.5098217,19.0404755 78.6943322,22.3465594 84.8354161,27.8976084 Z M38.1121993,40.4865944 L39.0874091,40.4875385 C41.5731084,36.345965 44.4269895,32.8907203 47.2213951,30.0755455 L56.4901364,30.0755455 C55.049507,33.0257203 53.6579685,36.4856853 52.4637378,40.4988671 L53.3143322,40.4998112 L53.3351014,40.4998112 C54.5501014,36.4658601 55.9633531,33.0068392 57.4181434,30.0755455 L66.7529685,30.0755455 L66.7529685,40.5101958 L67.5922343,40.5111399 L67.5922343,30.0755455 L76.9317797,30.0755455 C78.388458,33.0115594 79.8026538,36.4771888 81.0176538,40.5224685 L81.8833531,40.5234126 C80.6881783,36.4998462 79.2938077,33.0313846 77.8522343,30.0755455 L87.1171993,30.0755455 C89.9229336,32.9011049 92.7862552,36.3733427 95.2776189,40.5337972 L96.2528287,40.5347413 C93.8332133,36.4063846 91.0473042,32.9332028 88.2887727,30.0755455 L102.790416,30.0755455 L102.184332,29.2362797 L87.4627238,29.2362797 C86.7688427,28.5461748 86.0777937,27.8891119 85.3980734,27.2754755 C77.3358357,19.9873636 69.1678636,16.5066294 67.5922343,15.8750559 L67.5922343,15.6239371 L66.7529685,15.6239371 L66.7529685,15.8722238 C65.1924441,16.4971888 57.0121993,19.976979 48.940521,27.2754755 C48.2608007,27.8891119 47.5706958,28.5461748 46.8758706,29.2362797 L32.1372692,29.2362797 L31.5311853,30.0755455 L46.0498217,30.0755455 C43.3016748,32.9228182 40.5261503,36.379007 38.1121993,40.4865944 Z" id="Fill-73"></path>
                <path d="M33.3268741,24.0831503 C32.818972,25.4822413 32.2553706,26.2761923 31.4557552,26.9861224 C29.9150559,28.3559476 28.1090769,28.3266818 26.659951,26.6962972 C25.1891119,25.0404231 25.275965,23.2995839 26.8978531,21.8580105 C27.5341469,21.292521 28.5225734,20.6477308 29.5714196,20.2852133 L30.2860699,21.9259825 C29.4864545,22.3885699 28.9747762,22.6831154 28.3875734,23.2051783 C27.7597762,23.7631154 27.7588322,24.4352832 28.3960699,25.1527657 C29.004986,25.8372063 29.7016993,25.9476608 30.2473636,25.4624161 C30.5249161,25.2160175 30.7647063,24.9601783 31.0904056,24.5381853 L30.8147413,24.228535 L29.8527483,25.0838497 L28.8312797,23.9339895 L31.2688322,21.7673811 L33.3268741,24.0831503 Z" id="Fill-75"></path>
                <path d="M38.7302727,17.5526434 C38.2346434,16.7313147 37.621007,16.5793217 36.996042,16.9569441 C36.3701329,17.3345664 36.2181399,17.9472587 36.7137692,18.7695315 C37.1876853,19.5530979 37.7956573,19.6956503 38.4206224,19.318972 C39.0455874,18.9413497 39.2032448,18.3371538 38.7302727,17.5526434 M40.7184545,16.3527483 C41.8447133,18.2200909 41.3368112,19.9524336 39.4789091,21.073028 C37.621951,22.1945664 35.8527902,21.8358252 34.7255874,19.9694266 C33.5823357,18.0737622 34.0789091,16.3225385 35.9368112,15.2019441 C37.7947133,14.0813497 39.5752028,14.458028 40.7184545,16.3527483" id="Fill-77"></path>
                <path d="M55.8035245,13.5182203 C54.732021,14.5529056 53.8757622,15.0173811 52.8448531,15.3043741 C50.8576154,15.8566469 49.2470559,15.0353182 48.6617413,12.9319615 C48.0679301,10.797451 48.9128601,9.27091259 51.0048881,8.68937413 C51.8252727,8.46185664 52.9977902,8.31647203 54.0995035,8.45241608 L54.0202028,10.2414021 C53.0969161,10.3055979 52.5078252,10.3452483 51.7506923,10.5557727 C50.9406923,10.780458 50.6442587,11.3846538 50.901986,12.3098287 C51.1474406,13.192521 51.7252028,13.598465 52.4294685,13.4030455 C52.7872657,13.3029755 53.1148531,13.1783601 53.5934895,12.9432902 L53.4820909,12.5439545 L52.2416014,12.888535 L51.829049,11.4063671 L54.9727552,10.5312273 L55.8035245,13.5182203 Z" id="Fill-79"></path>
                <path d="M62.0256084,10.1356678 C62.4929161,10.0922413 62.727986,9.79580769 62.6817273,9.30678671 C62.6411329,8.87252098 62.3362028,8.66010839 61.8358531,8.70731119 L61.1523566,8.77150699 L61.2873566,10.205528 L62.0256084,10.1356678 Z M61.6385455,6.84091259 C63.5936853,6.65682168 64.7765874,7.46587762 64.9304685,9.09531818 C65.0210979,10.0620315 64.7662028,10.7323112 64.1251888,11.2534301 L65.5167273,12.9961573 L65.5318322,13.158535 L63.1207133,13.3860524 L62.0709231,11.8953881 L61.4516224,11.9539196 L61.5998392,13.5286049 L59.319,13.7438497 L58.694979,7.11846503 L61.6385455,6.84091259 Z" id="Fill-81"></path>
                <polygon id="Fill-83" points="68.6003916 13.1776049 69.0573147 6.53428322 74.2411259 6.89113636 74.1117902 8.77452797 71.1823846 8.57344406 71.1399021 9.1833042 73.6123846 9.35323427 73.4990979 10.9977797 71.0266154 10.8278497 70.9841329 11.4480944 74.0013357 11.6557867 73.8710559 13.5401224"></polygon>
                <path d="M81.7576993,10.9534091 C81.7369301,10.6333741 81.7340979,10.3737587 81.7473147,10.1405769 C81.6491329,10.3520455 81.5245175,10.5795629 81.3555315,10.8533392 L80.6644825,11.9956469 L81.8285035,12.2873601 L81.7576993,10.9534091 Z M79.1521049,14.4870105 L76.8221748,13.9035839 L80.6625944,8.00134615 L83.7118951,8.76508741 L84.3189231,15.7803671 L81.9899371,15.1969406 L81.9361259,14.2387238 L79.6496224,13.6666259 L79.1521049,14.4870105 Z" id="Fill-85"></path>
                <polygon id="Fill-87" points="91.8099126 13.9390804 89.993549 18.133521 87.8911364 17.223451 89.7075 13.0280664 87.9751573 12.278486 88.8030944 10.3658287 94.3701923 12.7769476 93.5413112 14.6886608"></polygon>
                <polygon id="Fill-89" points="94.4461888 20.3806573 98.0402098 14.7833497 102.408357 17.5881399 101.388776 19.1750979 98.9200699 17.590028 98.5905944 18.1045385 100.673182 19.4413217 99.7838811 20.8271958 97.7012937 19.4904126 97.3652098 20.0124755 99.9066084 21.6447483 98.887972 23.2326503"></polygon>
                <path d="M105.945923,24.7168951 C106.295224,25.0312657 106.671902,25.0029441 107.000434,24.6385385 C107.293091,24.3137832 107.243056,23.9456014 106.86921,23.6095175 L106.358476,23.1497622 L105.394594,24.2203217 L105.945923,24.7168951 Z M108.109699,22.200042 C109.56921,23.5151119 109.775014,24.9330839 108.679909,26.149972 C108.029455,26.8721748 107.362951,27.1383986 106.545399,27.0185035 L106.204594,29.2238182 L106.095084,29.3456014 L104.294769,27.7246573 L104.680888,25.9422797 L104.218301,25.525951 L103.15907,26.7022448 L101.456937,25.1681538 L105.910993,20.2213007 L108.109699,22.200042 Z" id="Fill-91"></path>
            </g>
        </g>
    </g>
</svg>