<?xml version="1.0" encoding="UTF-8"?>
<svg width="275px" height="63px" viewBox="0 0 275 63" version="1.1" xmlns="http://www.w3.org/2000/svg" xmlns:xlink="http://www.w3.org/1999/xlink">
    <!-- Generator: Sketch 50.2 (55047) - http://www.bohemiancoding.com/sketch -->
    <title>Group 5</title>
    <desc>Created with Sketch.</desc>
    <defs>
        <polygon id="path-1" points="0.432743056 0.689181818 20.3435069 0.689181818 20.3435069 28.1136629 0.432743056 28.1136629"></polygon>
        <polygon id="path-3" points="0 62.3110091 275 62.3110091 275 0.954736364 0 0.954736364"></polygon>
    </defs>
    <g id="Page-1" stroke="none" stroke-width="1" fill="none" fill-rule="evenodd">
        <g id="Desktop-HD" transform="translate(-62.000000, -1620.000000)">
            <g id="Group-5" transform="translate(62.000000, 1620.000000)">
                <path d="M75.8812847,2.25654545 L81.9303299,2.25654545 C82.0563715,2.25654545 82.0563715,3.01254545 81.9303299,3.01254545 C78.5281597,3.01254545 78.1920486,3.05454545 78.0660069,3.18054545 C77.8979514,3.34854545 77.8559375,4.48159091 77.8139236,10.2346364 C77.8139236,13.6786364 77.7719097,15.4006364 77.7719097,21.8247273 C77.7719097,25.6457727 77.8139236,26.4857727 77.9399653,26.6117727 C78.1089757,26.7788182 78.7802431,26.8628182 81.6362326,26.8628182 C85.291441,26.8628182 86.4248611,26.6117727 87.2651389,25.8137727 C88.0643576,25.0167273 88.8616667,23.1687273 90.1640972,17.7936818 C90.2471701,17.6256818 90.8363194,17.6676818 90.8363194,17.7936818 C90.7943056,20.6487273 90.6682639,25.0577727 90.5002083,27.4928182 C90.5002083,27.7037727 90.4161806,27.8288182 90.0380556,27.8288182 C86.8029861,27.7037727 83.7369271,27.7448182 79.4104514,27.7448182 C74.7478646,27.7448182 72.0599306,27.7448182 69.4550694,27.7877727 C69.3290278,27.7877727 69.3710417,26.9888182 69.4970833,26.9888182 C72.689184,26.9477727 73.1513368,26.9477727 73.2773785,26.8217727 C73.4034201,26.6957727 73.445434,26.1068182 73.445434,23.4627273 C73.4874479,18.4236818 73.5714757,13.1326364 73.5714757,8.47063636 C73.5714757,4.60759091 73.5294618,3.34854545 73.3614063,3.18054545 C73.1933507,3.01254545 72.6471701,2.96959091 69.7491667,2.92854545 C69.623125,2.92854545 69.6651389,2.17254545 69.7911806,2.17254545 C71.6388368,2.21454545 74.3277257,2.25654545 75.8812847,2.25654545" id="Fill-1" fill="#FFFFFF"></path>
                <path d="M97.8767014,6.37206818 C96.5752257,6.37206818 95.5668924,5.15406818 95.5668924,3.97806818 C95.5668924,3.26406818 95.8189757,2.71902273 96.2381597,2.29806818 C96.7012674,1.79406818 97.3314757,1.50006818 98.2128125,1.50006818 C99.4312153,1.50006818 100.481563,2.50806818 100.481563,3.72606818 C100.481563,5.11206818 99.1371181,6.37206818 97.8767014,6.37206818 M92.7939757,27.7452955 C92.667934,27.7452955 92.6259201,27.03225 92.7939757,27.03225 C95.1467535,26.9892955 95.7760069,26.9892955 95.9450174,26.82225 C96.1130729,26.6532955 96.1541319,26.19225 96.1971007,25.0572955 C96.2381597,23.63025 96.2381597,22.66425 96.2381597,21.36225 C96.2381597,19.76625 96.1541319,15.6521591 96.071059,13.5941591 C96.071059,12.8381591 95.9870313,12.4191136 95.8189757,12.2501591 C95.6499653,12.0821591 95.314809,12.0821591 92.667934,12.0401591 C92.5428472,12.0401591 92.5428472,11.3261591 92.667934,11.3261591 C94.8526563,11.2841591 98.5909375,11.2011136 99.4732292,11.2011136 C99.7673264,11.2011136 99.8924132,11.2841591 99.8924132,11.5781591 C99.8513542,13.9301591 99.8924132,18.8012045 99.8924132,21.7412045 C99.8924132,25.6872955 100.061424,26.6532955 100.229479,26.82225 C100.397535,26.9892955 100.900747,27.03225 103.169497,27.03225 C103.379566,27.03225 103.379566,27.78825 103.169497,27.78825 C102.330174,27.78825 93.424184,27.7452955 92.7939757,27.7452955" id="Fill-3" fill="#FFFFFF"></path>
                <g id="Group-7" transform="translate(102.170139, 0.265555)">
                    <mask id="mask-2" fill="white">
                        <use xlink:href="#path-1"></use>
                    </mask>
                    <g id="Clip-6"></g>
                    <path d="M8.03534722,15.0507 C7.53118056,16.1007 7.363125,16.9817455 7.363125,18.8297455 C7.363125,23.3227909 7.49012153,24.4978364 7.78326389,25.0447909 C8.16138889,25.8418364 10.051059,27.0178364 11.6065278,27.0178364 C13.076059,27.0178364 14.1684201,26.3038364 14.966684,24.7507909 C15.5959375,23.4907909 15.9740625,21.6427909 15.9740625,18.9557455 C15.9740625,16.1427 15.5959375,14.2107 15.0507118,13.1196545 C14.5045312,12.0267 13.7902951,11.4387 12.4458507,11.4387 C10.5141667,11.4387 8.91763889,13.3287 8.03534722,15.0507 M6.69090278,25.7167909 C6.48178819,25.7167909 5.85157986,26.2618364 4.12901042,28.0258364 C3.96095486,28.1947909 3.49880208,28.1098364 3.49880208,27.8578364 C3.58282986,25.7167909 3.66685764,21.3917455 3.66685764,16.0167 C3.66685764,12.8667 3.58282986,8.70965455 3.49880208,4.51060909 C3.45774306,2.49460909 3.41477431,1.86460909 3.28873264,1.73860909 C3.16269097,1.61356364 2.86859375,1.61356364 0.558784722,1.61356364 C0.390729167,1.61356364 0.390729167,0.898609091 0.558784722,0.898609091 C2.78456597,0.857563636 6.01868056,0.731563636 7.19602431,0.688609091 C7.49012153,0.688609091 7.53118056,0.857563636 7.53118056,1.10956364 C7.53118056,2.03260909 7.40513889,13.5387 7.40513889,14.6307 L7.44715278,14.6727 C8.62354167,12.3207 10.4721528,10.3047 13.0340451,10.3047 C15.0086979,10.3047 16.7303125,11.2707 18.0747569,12.6137455 C19.5032292,14.0847 20.3435069,16.0167 20.3435069,18.4517455 C20.3435069,21.3077455 18.9990625,23.7007909 17.3185069,25.3798364 C15.722934,26.9758364 13.9163368,27.8998364 11.8576562,27.8998364 C8.91763889,27.8998364 7.06902778,25.7167909 6.69090278,25.7167909" id="Fill-5" fill="#FFFFFF" mask="url(#mask-2)"></path>
                </g>
                <path d="M130.208108,13.2580636 C129.535885,14.6011091 129.284757,16.2820636 129.200729,18.3391091 L137.727639,18.2971091 C137.475556,13.4260636 136.215139,11.4100636 133.401163,11.4100636 C131.804635,11.4100636 130.67026,12.2920636 130.208108,13.2580636 M141.507934,23.0841545 C140.16349,26.7381545 137.097431,28.3332 134.283455,28.3332 C131.510538,28.3332 128.99066,27.1992 127.26809,25.4781545 C125.75559,23.9661545 124.831285,22.0761545 124.831285,19.3891091 C124.831285,17.1640636 125.881632,14.9380636 127.310104,13.4690182 C129.032674,11.7470182 131.132413,10.5710182 133.69526,10.5710182 C136.215139,10.5710182 138.231806,11.6630182 139.57625,13.0060636 C140.751684,14.1820636 141.760017,16.2820636 141.802031,18.8011091 C141.802031,19.0101545 141.718003,19.0951091 141.549948,19.1371091 C134.744653,19.0951091 131.384497,19.1791091 129.200729,19.2631091 C129.200729,21.9501545 129.578854,23.6301545 130.125035,24.7641545 C130.964358,26.4021545 132.266788,27.2832 134.702639,27.2832 C137.391528,27.2832 139.491267,25.7712 140.710625,22.7481545 C140.877726,22.5801545 141.549948,22.8741545 141.507934,23.0841545" id="Fill-8" fill="#FFFFFF"></path>
                <path d="M145.679436,26.8221545 C145.805477,26.6952 145.889505,25.2672 145.930564,24.2181545 C145.930564,22.7061545 145.930564,18.7171091 145.889505,16.8691091 C145.889505,13.7200636 145.679436,12.4600636 145.51138,12.2920636 C145.34237,12.1250182 145.007214,12.1250182 142.69645,12.0830182 C142.528394,12.0830182 142.528394,11.3270182 142.738464,11.3270182 C144.419019,11.3270182 148.073273,11.2010182 148.997578,11.2010182 C149.585773,11.2010182 149.6698,11.2850182 149.6698,11.8300636 C149.627786,12.8800636 149.585773,15.0220636 149.585773,16.5760636 L149.6698,16.5760636 C151.01329,13.4260636 152.52579,10.8220636 154.962595,10.8220636 C157.146363,10.8220636 158.532821,12.1660636 158.532821,13.8040636 C158.532821,15.5260636 157.272405,16.5340636 156.096016,16.5340636 C154.877613,16.5340636 153.996276,15.7780636 153.996276,14.6011091 C153.996276,13.1740636 155.129696,12.6290182 155.129696,12.2920636 C155.129696,12.1250182 154.920582,11.9570182 154.416415,11.9570182 C153.113984,11.9570182 151.76954,13.6360636 150.762161,15.7360636 C149.963898,17.3320636 149.6698,18.4651091 149.6698,19.8511091 L149.6698,23.6721545 C149.711814,25.6041545 149.795842,26.6112 149.963898,26.7792 C150.047925,26.9061545 150.719193,26.9061545 153.198012,26.9892 C153.408082,26.9892 153.408082,27.7881545 153.240026,27.7881545 L142.48638,27.7881545 C142.360339,27.7881545 142.318325,27.0321545 142.48638,27.0321545 C145.217283,26.9892 145.552439,26.9481545 145.679436,26.8221545" id="Fill-10" fill="#FFFFFF"></path>
                <path d="M163.901528,23.71425 C163.901528,25.7712955 164.57375,26.90625 166.08625,26.90625 C167.765851,26.90625 169.740503,25.2672955 170.118628,24.42825 C170.286684,24.13425 170.328698,23.88225 170.369757,22.58025 C170.412726,21.36225 170.412726,20.9012045 170.45474,18.9692045 C164.951875,19.4312045 163.901528,20.3132045 163.901528,23.71425 M163.985556,12.7961591 C163.985556,13.2581591 165.624097,13.3851136 165.624097,15.0221591 C165.624097,16.1981591 164.699792,17.0792045 163.439375,17.0792045 C162.220972,17.0792045 161.255608,16.1981591 161.255608,14.9381591 C161.255608,14.0981591 161.591719,13.3851136 162.263941,12.7551136 C163.355347,11.7041591 165.077917,10.7381591 167.556736,10.7381591 C170.118628,10.7381591 171.75717,11.4941591 172.848576,12.6291136 C173.940937,13.7201591 174.319062,14.9801591 174.319062,16.9532045 C174.319062,19.0532045 174.193021,22.70625 174.193021,25.56225 C174.193021,26.5692955 174.487118,26.94825 175.200399,26.94825 C176.124705,26.94825 176.965937,26.0232955 177.385122,23.92425 C177.469149,23.79825 178.01533,23.88225 178.01533,24.05025 C177.637205,26.4012955 176.334774,28.1652955 174.108993,28.1652955 C172.008299,28.1652955 170.664809,27.03225 170.24467,25.35225 C168.858212,26.94825 167.093628,28.0812955 164.993889,28.1232955 C162.515069,28.1652955 159.953177,26.4432955 159.953177,23.92425 C159.953177,22.87425 160.331302,21.90825 161.213594,21.0692045 C162.599097,19.64025 165.077917,18.5912045 170.45474,18.2132045 C170.496753,17.6672045 170.45474,16.4501591 170.45474,15.2732045 C170.45474,13.6781591 170.24467,12.8792045 169.69849,12.3341591 C169.236337,11.8731136 168.354045,11.5361591 167.135642,11.5361591 C165.245972,11.5361591 163.985556,12.5021591 163.985556,12.7961591" id="Fill-12" fill="#FFFFFF"></path>
                <path d="M185.506597,1.08016364 C185.842708,1.08016364 185.925781,1.24816364 185.925781,1.58416364 C185.884722,5.95216364 185.842708,9.56320909 185.842708,14.0982545 C185.842708,18.2973 185.800694,21.7823455 185.757726,25.1413909 C185.757726,26.1923455 185.884722,26.6113909 186.094792,26.8223455 C186.261892,26.9483455 186.429948,27.0313909 188.949826,27.0733909 C189.076823,27.0733909 189.118837,27.8284364 188.949826,27.8284364 C185.253559,27.7043455 182.900781,27.7043455 178.995399,27.7043455 C178.868403,27.7043455 178.911372,26.9483455 179.037413,26.9483455 C181.306163,26.9483455 181.641319,26.9063455 181.767361,26.7793909 C181.893403,26.6533909 181.893403,26.4433909 181.893403,25.7713909 C181.935417,23.7563455 182.019444,19.8513 182.019444,17.2053 C182.019444,11.4522545 182.019444,7.67320909 181.935417,3.13816364 C181.935417,2.38216364 181.935417,2.17311818 181.809375,2.04711818 C181.684288,1.92016364 181.43125,1.92016364 178.995399,1.79416364 C178.827344,1.75216364 178.827344,1.08016364 179.037413,1.08016364 C181.43125,1.12311818 182.985764,1.12311818 185.506597,1.08016364" id="Fill-14" fill="#FFFFFF"></path>
                <path d="M211.843672,6.62378182 C209.954002,11.0748273 208.063377,15.3158727 206.593845,18.7169182 C209.155738,18.8438727 213.734297,18.9269182 216.254175,18.9269182 C215.078741,15.3569182 213.146102,10.0248273 211.9277,6.62378182 L211.843672,6.62378182 Z M201.679175,26.2759636 C202.140373,25.8139636 202.686554,24.9739636 203.358776,23.5469182 C206.844974,16.0298727 210.332127,8.26082727 212.894019,1.58473636 C212.978047,1.50073636 213.188116,1.41673636 213.693238,1.41673636 C214.406519,1.41673636 214.531606,1.50073636 214.574575,1.66873636 C215.70895,5.06978182 217.473533,10.3188273 222.262161,23.4199636 C222.975443,25.4359636 223.311554,26.1070091 223.81572,26.6110091 C224.193845,26.9890091 224.57197,27.0319636 227.007821,27.1579636 C227.134818,27.1579636 227.134818,27.8719636 227.007821,27.8719636 C224.655998,27.8290091 222.933429,27.7450091 221.252873,27.7450091 C219.321189,27.7450091 218.187769,27.7039636 215.70895,27.7879636 C215.624922,27.7879636 215.582908,27.0739636 215.70895,27.0739636 C217.725616,26.9479636 218.228828,26.8630091 218.438898,26.6110091 C218.648967,26.4439636 218.690981,26.1070091 218.438898,25.1839636 C218.060773,24.0499636 217.262509,21.7829182 216.549227,19.8089182 C215.834991,19.7669182 213.566241,19.7258727 210.248099,19.7258727 C208.651571,19.7258727 207.601224,19.7258727 206.42579,19.7669182 C206.25678,19.7669182 206.089679,19.7669182 206.005651,19.9759636 C205.333429,21.4469182 204.955304,22.4129182 204.325095,24.0499636 C204.073012,24.7639636 203.905911,25.4359636 203.905911,25.8559636 C203.905911,26.7790091 204.283082,26.9059636 207.097057,27.0739636 C207.18204,27.0739636 207.140026,27.7879636 207.055998,27.7879636 C204.787248,27.7039636 201.132995,27.7039636 198.48612,27.7879636 C198.402092,27.7879636 198.402092,27.1159636 198.48612,27.1159636 C200.670842,26.9890091 201.090026,26.8630091 201.679175,26.2759636 Z" id="Fill-16" fill="#FFFFFF"></path>
                <path d="M231.558116,26.8221545 C231.684158,26.6952 231.768186,25.2672 231.809245,24.2181545 C231.809245,22.7061545 231.809245,18.7171091 231.768186,16.8691091 C231.768186,13.7200636 231.558116,12.4600636 231.390061,12.2920636 C231.22105,12.1250182 230.885894,12.1250182 228.57513,12.0830182 C228.407075,12.0830182 228.407075,11.3270182 228.617144,11.3270182 C230.2977,11.3270182 233.951953,11.2010182 234.876259,11.2010182 C235.464453,11.2010182 235.548481,11.2850182 235.548481,11.8300636 C235.506467,12.8800636 235.464453,15.0220636 235.464453,16.5760636 L235.548481,16.5760636 C236.89197,13.4260636 238.40447,10.8220636 240.841276,10.8220636 C243.025043,10.8220636 244.411502,12.1660636 244.411502,13.8040636 C244.411502,15.5260636 243.151085,16.5340636 241.975651,16.5340636 C240.756293,16.5340636 239.874957,15.7780636 239.874957,14.6011091 C239.874957,13.1740636 241.008377,12.6290182 241.008377,12.2920636 C241.008377,12.1250182 240.799262,11.9570182 240.295095,11.9570182 C238.992665,11.9570182 237.64822,13.6360636 236.640842,15.7360636 C235.842578,17.3320636 235.548481,18.4651091 235.548481,19.8511091 L235.548481,23.6721545 C235.590495,25.6041545 235.674523,26.6112 235.842578,26.7792 C235.926606,26.9061545 236.597873,26.9061545 239.076693,26.9892 C239.286762,26.9892 239.286762,27.7881545 239.118707,27.7881545 L228.365061,27.7881545 C228.239019,27.7881545 228.197005,27.0321545 228.365061,27.0321545 C231.095964,26.9892 231.432075,26.9481545 231.558116,26.8221545" id="Fill-18" fill="#FFFFFF"></path>
                <path d="M253.833785,28.0814864 C252.069201,28.0814864 250.80974,27.5354864 249.885434,26.6114864 C249.129184,25.8564409 248.751059,24.9314864 248.751059,23.0844409 C248.751059,20.3544409 248.793073,15.5673955 248.877101,12.25035 C248.625017,12.20835 246.356267,12.20835 245.895069,12.20835 C245.685,12.20835 245.727014,11.41035 245.853056,11.41035 C248.373889,11.28435 249.129184,11.0753045 249.717378,10.48635 C250.556701,9.68835 251.691076,7.33825909 252.111215,5.27930455 C252.153229,5.07025909 252.783438,5.07025909 252.825451,5.27930455 C252.700365,6.70730455 252.700365,9.94130455 252.657396,11.28435 C254.337951,11.32635 257.109913,11.32635 257.78309,11.32635 C258.034219,11.32635 257.950191,12.20835 257.740122,12.20835 C254.421979,12.20835 253.119549,12.25035 252.657396,12.29235 C252.573368,13.8453955 252.48934,18.5073955 252.48934,21.9084409 C252.48934,24.8054864 252.573368,25.2674864 252.825451,25.8134864 C253.119549,26.4014864 253.833785,26.8634864 254.75809,26.8634864 C256.10158,26.8634864 257.277969,25.4774864 257.992205,22.7064409 C258.034219,22.5384409 258.748455,22.6644409 258.706441,22.8744409 C257.992205,26.3174864 256.27059,28.0814864 253.833785,28.0814864" id="Fill-20" fill="#FFFFFF"></path>
                <path d="M273.488168,26.1500591 C272.185738,27.4091045 270.128012,28.0391045 268.279401,28.0391045 C264.91829,28.0391045 263.322717,26.8631045 262.860564,26.8631045 C262.650495,26.8631045 262.356398,27.3251045 261.978273,28.2911045 C261.894245,28.4600591 261.307005,28.4171045 261.307005,28.2491045 C261.222023,26.3180591 261.054922,23.9240591 260.885911,22.0760591 C260.885911,21.9090136 261.558134,21.8250136 261.600148,21.9930136 C262.104314,23.5460591 262.734523,24.9320591 263.532786,25.7300591 C264.540165,26.7380591 266.305703,27.2420591 268.153359,27.2420591 C269.707873,27.2420591 270.757266,26.9060591 271.387474,26.3180591 C271.765599,25.8971045 272.10171,25.1840591 272.10171,24.2610136 C272.10171,22.8320591 271.051363,22.1180591 267.355095,21.1530136 C264.540165,20.3970136 263.238689,19.8510136 262.398411,19.0110136 C261.726189,18.3390136 261.348064,17.4159682 261.348064,16.3230136 C261.348064,13.1739682 264.205009,10.8639682 267.523151,10.8639682 C270.085998,10.8639682 271.891641,12.2089227 272.31178,12.2089227 C272.521849,12.2089227 272.647891,11.8729227 273.236085,10.4449227 C273.278099,10.3189227 273.866293,10.3609227 273.908307,10.4869227 C273.782266,12.3759682 273.782266,14.1819682 273.82428,16.1130136 C273.82428,16.4079682 273.193116,16.4079682 273.06803,16.1979682 C272.521849,14.8119682 271.976623,13.8039682 271.34546,13.2159682 C270.464123,12.2919682 269.287734,11.6629227 267.397109,11.6629227 C266.178707,11.6629227 265.254401,12.0409227 264.667161,12.6289227 C264.246068,13.0479682 263.952925,13.6789227 263.952925,14.3919682 C263.952925,15.9879682 265.171328,16.6179682 268.825582,17.5410136 C271.723585,18.2970136 273.026016,18.8859682 273.866293,19.7670136 C274.621589,20.5220591 274.999714,21.4470136 274.999714,22.5800591 C274.999714,24.0920591 274.327491,25.2671045 273.488168,26.1500591" id="Fill-22" fill="#FFFFFF"></path>
                <path d="M72.5766059,55.2972 C71.634158,57.2148818 71.3639323,58.4596091 71.3639323,59.3339727 C71.3639323,60.5462455 72.1726997,61.2516545 73.249783,61.2516545 C75.0000434,61.2516545 77.6927517,58.7965636 79.0056858,56.1381545 C80.3176649,53.5131545 81.0920573,51.3262909 81.0920573,50.7545182 C81.0920573,49.9469727 80.2508247,48.9036545 79.0056858,48.9036545 C76.3129774,48.9036545 74.2934462,51.8646545 72.5766059,55.2972 M81.5303385,49.9126091 C81.8998698,49.1728364 82.338151,48.2975182 82.4718316,48.2975182 C82.6742622,48.2975182 84.0884115,48.5332909 84.1552517,48.6010636 C84.222092,48.6688364 84.3242622,49.1728364 84.290842,49.2740182 C83.8859809,50.1827455 81.9332899,54.8934273 80.8227865,57.7857 C80.5200955,58.5273818 80.3176649,59.5707 80.3176649,60.0747 C80.3176649,60.6464727 80.6547309,61.0502455 81.1598524,61.0502455 C81.9676649,61.0502455 82.943533,60.5787 84.9296441,58.0567909 C84.9964844,57.9880636 85.4347656,58.2916091 85.4013455,58.3584273 C83.5164497,60.8832 82.2369358,61.9589727 80.6203559,61.9589727 C79.4764323,61.9589727 78.2312934,61.1514273 78.2312934,59.8398818 C78.2312934,59.2671545 78.3325087,58.6963364 78.4661892,58.0902 C76.9183594,60.1749273 74.7307726,61.9933364 73.0473524,61.9933364 C71.3305122,61.9933364 69.378776,60.1749273 69.378776,57.6196091 C69.378776,55.8689727 70.0519531,54.0515182 72.1049045,51.9658364 C74.3268663,49.7789727 76.9861545,48.2975182 79.0056858,48.2975182 C80.1830295,48.2975182 81.1264323,48.9704727 81.5303385,49.9126091" id="Fill-24" fill="#FF5A0E"></path>
                <path d="M93.1308507,48.7356545 C93.2311111,48.7356545 93.2989062,48.8024727 93.2654861,48.9036545 C93.0296354,49.6100182 91.8522917,52.8736091 91.5152257,53.7155182 C91.4808507,53.7823364 91.582066,53.9169273 91.6498611,53.8491545 C94.5440451,50.0472 96.12625,48.2641091 97.9443056,48.2641091 C98.9201736,48.2641091 99.6267708,48.6010636 100.199687,49.1728364 C100.770694,49.7455636 101.006545,50.3507455 101.006545,51.0905182 C101.006545,52.2684273 100.602639,53.0425636 99.3575,55.6332 C98.1457812,58.1904273 97.741875,59.1669273 97.741875,59.8732909 C97.741875,60.4794273 98.1792014,60.9166091 98.7186979,60.9166091 C99.7279861,60.9166091 100.939705,59.9401091 102.454115,58.2238364 C102.520955,58.1570182 102.993611,58.5273818 102.924861,58.5942 C101.814358,59.9401091 99.694566,61.9255636 98.078941,61.9255636 C97.3379687,61.9255636 96.8328472,61.6897909 96.3286806,61.1848364 C95.8569792,60.7142455 95.6211285,60.1415182 95.6211285,59.3683364 C95.6211285,58.6963364 95.9581944,57.5508818 97.2033333,54.9936545 C98.4828472,52.3696091 98.8189583,51.5286545 98.8189583,50.7201545 C98.8189583,49.9126091 98.2813715,49.3417909 97.5069792,49.3417909 C96.6647917,49.3417909 96.0928299,49.6777909 94.7798958,50.9893364 C92.4910937,53.2783364 90.5049826,56.2727455 89.9330208,57.6530182 C89.4288542,58.9311545 88.7547222,60.4107 88.2839757,61.5895636 C88.2505556,61.7232 86.1632292,61.6229727 85.9607986,61.6229727 C85.8939583,61.6229727 85.8939583,61.5561545 85.9273785,61.4540182 C86.3656597,60.4794273 88.7213021,55.1616545 89.2264236,53.9503364 C90.4715625,50.8222909 90.7074132,49.5766091 90.6396181,49.5097909 C90.5727778,49.4420182 87.5430035,49.4754273 87.1056771,49.4420182 C87.0044618,49.4420182 87.0722569,48.8358818 87.1734722,48.8358818 C89.0917882,48.8358818 92.9627951,48.7356545 93.1308507,48.7356545" id="Fill-26" fill="#FF5A0E"></path>
                <path d="M107.641589,54.3883773 C106.901571,55.8354682 106.39645,57.41715 106.39645,58.8632864 C106.39645,60.4793318 107.002786,61.4539227 108.517196,61.4539227 C109.59428,61.4539227 110.704783,61.0167409 112.185773,59.5362409 C113.397491,58.3249227 114.104089,57.3493773 114.979696,55.1959227 C115.754089,53.3450591 116.427266,51.7967864 116.494106,51.4617409 C116.224835,49.9802864 115.248967,48.8367409 113.633342,48.8367409 C111.209905,48.8367409 109.055738,51.5285591 107.641589,54.3883773 M116.898012,50.4852409 C116.898012,50.51865 116.965807,50.5520591 116.999227,50.4852409 C118.345582,47.1872864 119.220234,45.0338318 120.466328,41.8380136 C120.634384,41.3664682 120.566589,41.1641045 120.499748,41.0972864 C120.398533,40.9970591 118.210946,40.9292864 116.763377,40.9292864 C116.662161,40.9292864 116.662161,40.3241045 116.796797,40.3241045 C118.648273,40.3241045 121.206345,40.3909227 123.428307,40.3575136 C123.528568,40.3575136 123.630738,40.4577409 123.596363,40.5589227 C120.734644,47.2894227 119.254609,50.8556045 116.191415,57.8877409 C115.787509,58.8298773 115.652873,59.40165 115.652873,60.0077864 C115.652873,60.54615 115.955564,61.0167409 116.494106,61.0167409 C117.301918,61.0167409 118.076311,60.5786045 119.220234,59.4350591 C119.725356,58.9310591 120.029002,58.6275136 120.466328,58.0566955 C120.533168,57.9879682 120.970495,58.3249227 120.903655,58.3917409 C119.119974,60.6473318 117.537769,61.9598318 116.15704,61.9598318 C114.677005,61.9598318 113.532127,60.9499227 113.532127,59.73765 C113.532127,59.3682409 113.532127,59.23365 113.599922,58.7964682 C111.883082,60.9165136 110.199661,62.0934682 108.349141,62.0934682 C107.204262,62.0934682 106.026918,61.4873318 105.285946,60.7475591 C104.612769,60.0746045 104.040807,59.0312864 104.040807,57.6529227 C104.040807,55.4985136 105.151311,53.2782409 106.901571,51.5285591 C108.550616,49.8791045 111.075269,48.2306045 113.834818,48.2306045 C115.315807,48.2306045 116.460686,49.2748773 116.898012,50.4852409" id="Fill-28" fill="#FF5A0E"></path>
                <path d="M150.248542,35.7504955 C150.290556,35.6244955 150.879705,35.7084955 150.879705,35.83545 C150.669635,38.4843136 150.585608,40.8391773 150.795677,44.11995 C150.795677,44.2449955 150.206528,44.32995 150.1225,44.16195 C148.986215,41.2181318 148.018941,39.5362227 146.966684,38.4843136 C145.831354,37.3484045 144.358958,36.6764045 142.171372,36.6764045 C139.900712,36.6764045 138.553403,37.3073591 137.586128,38.2743136 C136.744896,39.1152682 136.240729,40.3342227 136.240729,41.6381318 C136.240729,44.41395 138.09125,45.2969045 142.887517,46.5588136 C147.261736,47.7367227 149.365295,48.7867227 150.626667,50.0495864 C151.720938,51.1425409 152.268073,52.40445 152.268073,54.4233136 C152.268073,58.8800864 148.313993,62.1608591 143.34967,62.1608591 C138.806441,62.1608591 136.534826,59.9319955 135.65158,59.9319955 C135.104444,59.9319955 134.431267,60.68895 133.842118,61.8239045 C133.75809,61.9928591 133.210955,61.9088591 133.210955,61.7408591 C133.294983,58.7970409 133.294983,56.4421773 132.916858,52.57245 C132.916858,52.40445 133.463038,52.3194955 133.548021,52.48845 C135.188472,56.2312227 136.19776,57.9560864 137.376059,59.1330409 C138.679444,60.43695 140.783003,61.27695 143.265642,61.27695 C145.369201,61.27695 146.925625,60.7319045 147.850885,59.8059955 C148.735087,58.9220864 149.154271,57.9131318 149.154271,56.4421773 C149.154271,53.7494045 147.471806,52.4454955 142.508438,51.1845409 C138.133264,50.0495864 136.113733,49.1246318 134.89342,47.8617682 C133.800104,46.7688136 133.294983,45.5498591 133.294983,43.5720409 C133.294983,39.4942227 136.997934,35.87745 142.255399,35.87745 C146.630573,35.87745 148.523108,37.7264045 148.902188,37.7264045 C149.239253,37.7264045 149.786389,36.7604045 150.248542,35.7504955" id="Fill-30" fill="#FFFFFF"></path>
                <path d="M157.653394,59.5115182 C156.265026,58.1245636 155.213724,56.2307455 155.213724,53.6238818 C155.213724,51.3950182 156.138984,49.2081545 157.82145,47.4832909 C159.462856,45.8443364 161.607474,44.5824273 164.468238,44.5824273 C168.255217,44.5824273 171.199054,46.8523364 171.199054,49.1661545 C171.199054,50.8060636 170.063724,51.7319727 168.843411,51.7319727 C167.623099,51.7319727 166.697839,50.8060636 166.697839,49.7541545 C166.697839,49.1241545 166.865894,48.6612 167.20296,48.2822455 C167.876137,47.6092909 168.801398,47.6942455 168.970408,47.5252909 C169.306519,47.1902455 167.623099,45.4653818 164.678307,45.4653818 C162.448707,45.4653818 161.229349,46.5592909 160.598186,47.8202455 C159.882995,49.2501545 159.630911,50.8480636 159.630911,53.1618818 C159.630911,56.0217 159.840981,57.6196091 160.472144,58.7965636 C161.145321,60.1424727 162.238637,61.1514273 164.552266,61.1514273 C166.991936,61.1514273 169.348533,59.4695182 170.441849,56.1477 C170.525877,55.8107455 171.32605,56.1897 171.241068,56.4827455 C170.063724,59.9735182 167.455043,62.1603818 163.963116,62.1603818 C161.524401,62.1603818 159.293845,61.1514273 157.653394,59.5115182" id="Fill-32" fill="#FFFFFF"></path>
                <path d="M177.678455,40.2509864 C176.374115,40.2509864 175.364826,39.0310773 175.364826,37.8531682 C175.364826,37.1382136 175.61691,36.5922136 176.038003,36.1712591 C176.500156,35.6663045 177.132274,35.3723045 178.015521,35.3723045 C179.234878,35.3723045 180.287135,36.3812591 180.287135,37.6011682 C180.287135,38.9890773 178.940781,40.2509864 177.678455,40.2509864 M172.58809,61.6566682 C172.462049,61.6566682 172.420035,60.9417136 172.58809,60.9417136 C174.943733,60.8987591 175.574896,60.8987591 175.742951,60.7317136 C175.911007,60.5627591 175.953021,60.0998045 175.99599,58.9638955 C176.038003,57.5339864 176.038003,56.5679864 176.038003,55.2650318 C176.038003,53.6661682 175.953021,49.5444409 175.869948,47.4835773 C175.869948,46.7266227 175.78592,46.3066227 175.61691,46.1386227 C175.448854,45.9696682 175.112743,45.9696682 172.462049,45.9276682 C172.336007,45.9276682 172.336007,45.2127136 172.462049,45.2127136 C174.649635,45.1707136 178.393646,45.0867136 179.276892,45.0867136 C179.57099,45.0867136 179.697031,45.1707136 179.697031,45.4656682 C179.655972,47.8205318 179.697031,52.6982591 179.697031,55.6430318 C179.697031,59.5958045 179.866042,60.5627591 180.034097,60.7317136 C180.203108,60.8987591 180.707274,60.9417136 182.979844,60.9417136 C183.188958,60.9417136 183.188958,61.6986682 182.979844,61.6986682 C182.137656,61.6986682 173.219253,61.6566682 172.58809,61.6566682" id="Fill-34" fill="#FFFFFF"></path>
                <path d="M188.813186,47.1471955 C188.140009,48.4931045 187.887925,50.1759682 187.803898,52.2358773 L196.344175,52.1938773 C196.091137,47.31615 194.829766,45.2972864 192.011016,45.2972864 C190.412578,45.2972864 189.276293,46.1792864 188.813186,47.1471955 M200.1302,56.9885591 C198.783845,60.6473318 195.713012,62.2442864 192.894262,62.2442864 C190.117526,62.2442864 187.593828,61.1102864 185.869349,59.3854227 C184.354939,57.8715136 183.428724,55.97865 183.428724,53.2877864 C183.428724,51.0589227 184.480026,48.8300591 185.910408,47.35815 C187.635842,45.6342409 189.739401,44.4563318 192.305113,44.4563318 C194.829766,44.4563318 196.849297,45.5492864 198.194696,46.8951955 C199.372995,48.0731045 200.382283,50.1759682 200.424297,52.6978773 C200.424297,52.9088318 200.340269,52.9928318 200.172214,53.0357864 C193.35737,52.9928318 189.991484,53.0768318 187.803898,53.1617864 C187.803898,55.85265 188.182977,57.5345591 188.730113,58.6695136 C189.570391,60.3103773 190.874731,61.1933318 193.314401,61.1933318 C196.007109,61.1933318 198.110668,59.6803773 199.330981,56.6516045 C199.499036,56.48265 200.172214,56.7785591 200.1302,56.9885591" id="Fill-36" fill="#FFFFFF"></path>
                <path d="M201.442752,60.9834273 C203.629384,60.9414273 204.050477,60.9414273 204.219488,60.8154273 C204.386589,60.6464727 204.470616,60.0155182 204.470616,57.4926545 L204.470616,49.1661545 C204.470616,47.3582455 204.34553,46.3483364 204.134505,46.1793818 C204.008464,46.0123364 203.588325,45.9693818 201.400738,45.9283364 C201.273741,45.9283364 201.273741,45.2133818 201.442752,45.2133818 C203.335286,45.2133818 206.40612,45.1713818 208.130599,45.1713818 C208.383637,45.1713818 208.425651,45.2964273 208.425651,45.5913818 C208.383637,46.6432909 208.299609,48.7041545 208.257595,49.7541545 L208.383637,49.7971091 C209.856033,46.8952909 211.665495,44.4974727 214.651345,44.4974727 C217.933203,44.4974727 219.825738,46.6012909 219.825738,50.5960636 C219.825738,52.1939727 219.783724,54.2128364 219.783724,56.2727455 C219.783724,59.8484727 219.91072,60.6054273 220.12079,60.8154273 C220.246832,60.9834273 220.624957,60.9834273 222.644488,61.0674273 C222.771484,61.0674273 222.771484,61.7403818 222.603429,61.7403818 C219.237543,61.6563818 216.460807,61.6983818 213.853082,61.6983818 C213.642057,61.6983818 213.684071,61.0254273 213.810113,61.0254273 C215.072439,60.9414273 215.577561,60.8984727 215.745616,60.7724727 C215.913672,60.6054273 215.913672,60.0584727 215.913672,59.0495182 C215.913672,57.7026545 215.871658,50.6380636 215.871658,49.7541545 C215.871658,47.5252909 215.198481,46.2223364 213.474002,46.2223364 C211.412457,46.2223364 209.687977,48.4512 208.803776,50.2600636 C208.341623,51.1420636 208.215582,51.6899727 208.215582,53.1618818 C208.215582,54.4228364 208.257595,57.1137 208.299609,58.6285636 C208.341623,60.0995182 208.383637,60.6054273 208.509679,60.7314273 C208.636675,60.8574273 208.930773,60.9414273 211.034332,61.0254273 C211.160373,61.0254273 211.160373,61.7403818 210.950304,61.7403818 C208.257595,61.6563818 204.092491,61.6563818 201.483811,61.7403818 C201.273741,61.6983818 201.315755,60.9834273 201.442752,60.9834273" id="Fill-38" fill="#FFFFFF"></path>
                <path d="M225.568368,59.5115182 C224.18,58.1245636 223.128698,56.2307455 223.128698,53.6238818 C223.128698,51.3950182 224.054913,49.2081545 225.736424,47.4832909 C227.37783,45.8443364 229.523403,44.5824273 232.383212,44.5824273 C236.170191,44.5824273 239.114983,46.8523364 239.114983,49.1661545 C239.114983,50.8060636 237.978698,51.7319727 236.75934,51.7319727 C235.539028,51.7319727 234.612812,50.8060636 234.612812,49.7541545 C234.612812,49.1241545 234.781823,48.6612 235.117934,48.2822455 C235.792066,47.6092909 236.716372,47.6942455 236.885382,47.5252909 C237.222448,47.1902455 235.539028,45.4653818 232.593281,45.4653818 C230.363681,45.4653818 229.145278,46.5592909 228.51316,47.8202455 C227.797969,49.2501545 227.545885,50.8480636 227.545885,53.1618818 C227.545885,56.0217 227.755955,57.6196091 228.387118,58.7965636 C229.060295,60.1424727 230.154566,61.1514273 232.468194,61.1514273 C234.907865,61.1514273 237.263507,59.4695182 238.357778,56.1477 C238.440851,55.8107455 239.241024,56.1897 239.156997,56.4827455 C237.978698,59.9735182 235.370972,62.1603818 231.879045,62.1603818 C229.439375,62.1603818 227.208819,61.1514273 225.568368,59.5115182" id="Fill-40" fill="#FFFFFF"></path>
                <path d="M246.683021,47.1471955 C246.009844,48.4931045 245.75776,50.1759682 245.673733,52.2358773 L254.21401,52.1938773 C253.960972,47.31615 252.698646,45.2972864 249.880851,45.2972864 C248.281458,45.2972864 247.145174,46.1792864 246.683021,47.1471955 M258.000035,56.9885591 C256.652726,60.6473318 253.582847,62.2442864 250.764097,62.2442864 C247.987361,62.2442864 245.463663,61.1102864 243.739184,59.3854227 C242.223819,57.8715136 241.297604,55.97865 241.297604,53.2877864 C241.297604,51.0589227 242.349861,48.8300591 243.780243,47.35815 C245.505677,45.6342409 247.608281,44.4563318 250.174948,44.4563318 C252.698646,44.4563318 254.718177,45.5492864 256.064531,46.8951955 C257.241875,48.0731045 258.252118,50.1759682 258.294132,52.6978773 C258.294132,52.9088318 258.210104,52.9928318 258.042049,53.0357864 C251.22625,52.9928318 247.861319,53.0768318 245.673733,53.1617864 C245.673733,55.85265 246.051858,57.5345591 246.599948,58.6695136 C247.440226,60.3103773 248.744566,61.1933318 251.184236,61.1933318 C253.876944,61.1933318 255.980503,59.6803773 257.200816,56.6516045 C257.368872,56.48265 258.042049,56.7785591 258.000035,56.9885591" id="Fill-42" fill="#FFFFFF"></path>
                <path d="M273.486259,60.0587591 C272.181918,61.3197136 270.120373,61.9497136 268.268898,61.9497136 C264.903967,61.9497136 263.30553,60.7727591 262.842422,60.7727591 C262.632352,60.7727591 262.338255,61.2357136 261.959175,62.2026682 C261.875148,62.3716227 261.285998,62.3286682 261.285998,62.1606682 C261.20197,60.2267591 261.03296,57.8289409 260.864905,55.9790318 C260.864905,55.8110318 261.538082,55.7270318 261.58105,55.8950318 C262.085217,57.4518955 262.71638,58.83885 263.515599,59.6378045 C264.524887,60.6467591 266.292335,61.1517136 268.142856,61.1517136 C269.69928,61.1517136 270.751536,60.8157136 271.3827,60.2267591 C271.760825,59.8058045 272.096936,59.09085 272.096936,58.1658955 C272.096936,56.7359864 271.045634,56.0219864 267.343637,55.0540773 C264.524887,54.2971227 263.221502,53.7501682 262.379314,52.9092136 C261.707092,52.2362591 261.328012,51.3113045 261.328012,50.2164409 C261.328012,47.0635773 264.188776,44.7507136 267.511693,44.7507136 C270.078359,44.7507136 271.886866,46.0956682 272.30796,46.0956682 C272.51803,46.0956682 272.645026,45.7606227 273.23322,44.3297591 C273.275234,44.2047136 273.864384,44.2457591 273.906398,44.3708045 C273.780356,46.2646227 273.780356,48.0725318 273.82237,50.0073955 C273.82237,50.3013955 273.191207,50.3013955 273.065165,50.0913955 C272.51803,48.7034864 271.971849,47.6945318 271.339731,47.1055773 C270.456484,46.1796682 269.279141,45.5496682 267.385651,45.5496682 C266.165339,45.5496682 265.240078,45.9276682 264.651884,46.5166227 C264.23079,46.9375773 263.936693,47.5685318 263.936693,48.2825318 C263.936693,49.8813955 265.15605,50.5113955 268.816033,51.4373045 C271.718811,52.1942591 273.023151,52.7832136 273.864384,53.6661682 C274.621589,54.4231227 274.999714,55.3480773 274.999714,56.4830318 C274.999714,57.9978955 274.326536,59.17485 273.486259,60.0587591" id="Fill-44" fill="#FFFFFF"></path>
                <mask id="mask-4" fill="white">
                    <use xlink:href="#path-3"></use>
                </mask>
                <g id="Clip-47"></g>
                <polygon id="Fill-46" fill="#FF5A0E" mask="url(#mask-4)" points="0 62.3110091 61.3765625 62.3110091 61.3765625 0.954736364 0 0.954736364"></polygon>
                <polygon id="Fill-48" fill="#FFFFFF" mask="url(#mask-4)" points="38.3200087 39.4110818 38.3200087 33.2972182 43.9565538 33.2972182 43.9565538 29.2652182 38.3200087 29.2652182 38.3200087 23.5532182 44.5075087 23.5532182 44.5075087 25.7696727 48.5895399 25.7696727 48.5895399 19.5546273 32.2461372 19.5546273 32.2461372 23.5532182 33.7767795 23.5532182 33.7767795 39.4110818 32.2518663 39.4110818 32.2518663 43.4421273 39.7943142 43.4421273 39.7943142 39.4110818"></polygon>
                <path d="M30.1202344,34.4147045 L30.1202344,23.5519773 L31.6308247,23.5519773 L31.6308247,19.5552955 L24.0711892,19.5552955 L24.0711892,23.5519773 L25.5445399,23.5519773 L25.5445399,33.0640227 C25.5445399,37.0511591 25.0842969,38.9669318 22.2197135,38.9669318 C19.3560851,38.9669318 18.8948872,37.0511591 18.8948872,33.0640227 L18.8948872,23.5519773 L20.3577344,23.5519773 L20.3577344,19.5552955 L12.7866406,19.5552955 L12.7866406,23.5519773 L14.2867274,23.5519773 L14.2867274,34.4147045 C14.2867274,36.7857955 14.2867274,38.7302045 15.4058247,40.4770227 C16.6566927,42.4548409 18.9283073,43.7100682 22.2197135,43.7100682 C28.046276,43.7100682 30.1202344,40.6755682 30.1202344,34.4147045" id="Fill-49" fill="#FFFFFF" mask="url(#mask-4)"></path>
            </g>
        </g>
    </g>
</svg>