<?xml version="1.0" encoding="UTF-8" standalone="no"?>
<svg
   xmlns:dc="http://purl.org/dc/elements/1.1/"
   xmlns:cc="http://creativecommons.org/ns#"
   xmlns:rdf="http://www.w3.org/1999/02/22-rdf-syntax-ns#"
   xmlns:svg="http://www.w3.org/2000/svg"
   xmlns="http://www.w3.org/2000/svg"
   id="svg2"
   version="1.1"
   viewBox="0 0 350 150"
   height="150px"
   width="350px">
  <metadata
     id="metadata29">
    <rdf:RDF>
      <cc:Work
         rdf:about="">
        <dc:format>image/svg+xml</dc:format>
        <dc:type
           rdf:resource="http://purl.org/dc/dcmitype/StillImage" />
        <dc:title>Group 5</dc:title>
      </cc:Work>
    </rdf:RDF>
  </metadata>
  <!-- Generator: Sketch 42 (36781) - http://www.bohemiancoding.com/sketch -->
  <title
     id="title4">Group 5</title>
  <desc
     id="desc6">Created with Sketch.</desc>
  <defs
     id="defs8" />
  <g
     fill-rule="evenodd"
     fill="none"
     stroke-width="1"
     stroke="none"
     id="Welcome">
    <g
       transform="translate(-545.000000, -496.000000)"
       id="Ytori-Menu-Page-–-Desktop">
      <g
         transform="translate(545.000000, 496.000000)"
         id="Group-5">
        <rect
           height="150"
           width="350"
           y="0"
           x="0"
           fill="#F04E23"
           id="Rectangle-5" />
        <g
           fill="#FFFFFF"
           transform="translate(13.000000, 19.000000)"
           id="Ytori_Header">
          <g
             id="Asset-28">
            <g
               id="Layer_2">
              <g
                 id="Layer_1-2">
                <path
                   id="Shape"
                   d="M45.6765904,1.38760915 C46.0335967,1.38760915 46.0335967,2.80889813 45.6765904,2.80889813 C33.0601247,3.51617464 32.1709771,3.87318087 31.6590437,4.40532225 C30.9450312,5.11259875 31.6590437,6.5406237 33.2554678,9.20133056 C42.315343,24.6940541 53.867526,42.6117256 63.1092723,57.1816216 L63.2844075,57.1816216 C71.9940125,44.5651559 83.0073181,27.6848233 89.9386279,16.6647817 C92.2490644,12.9330561 94.0273597,9.5583368 94.0273597,6.89089397 C94.0273597,3.69130977 92.7812058,3.5229106 79.989605,2.80216216 C79.6325988,2.80216216 79.6325988,1.38087318 80.1647401,1.38087318 C86.2271102,1.55600832 94.0273597,1.73787942 96.8699376,1.73787942 C102.379958,1.73787942 105.754678,1.73787942 115.730644,1.56274428 C116.262786,1.56274428 116.087651,2.98403326 115.730644,2.98403326 C108.94079,3.36798337 105.754678,3.69130977 103.605904,4.76232848 C100.763326,6.18361746 95.4284407,13.1149272 91.7034511,18.624948 C87.2577131,25.0241164 76.2107277,41.5272349 65.5813721,57.1883576 C64.5170894,58.7847817 64.1600832,59.4987942 64.1600832,62.6983784 C63.984948,72.6474012 63.8030769,79.9357173 63.8030769,86.867027 C63.8030769,100.547775 63.9782121,105.168649 65.399501,106.589938 C66.2886486,107.479085 67.8850728,107.65422 84.5902703,108.543368 C84.9472765,108.543368 84.9472765,110.139792 84.5902703,110.139792 C76.7698129,109.782786 67.7099376,109.607651 56.8717672,109.607651 C46.3906029,109.607651 39.1022869,109.782786 29.6854054,109.782786 C29.153264,109.782786 29.3283992,108.186362 29.6854054,108.186362 C46.3906029,107.65422 48.5461123,107.65422 49.5901871,106.589938 C50.2974636,105.875925 50.6544699,104.104366 50.6544699,99.4834927 C50.829605,81.1818711 51.0114761,71.9401247 51.0114761,66.0730977 C51.0114761,63.587526 50.829605,62.7051143 49.7653222,60.9200832 C38.2131393,42.0795842 31.995842,32.3326403 20.2685239,14.7113514 C16.1663202,8.49405405 14.7585031,6.73596674 13.3372141,5.29446985 C11.9159252,3.85297297 11.2019127,3.51617464 1.07101871,3.1591684 C0.538877339,3.1591684 0.538877339,1.73787942 1.07101871,1.73787942 C16.8870686,1.91301455 25.4148025,1.91301455 45.6765904,1.38087318" />
                <path
                   id="path19"
                   d="M121.489896,110.847069 C114.20158,110.847069 109.405572,108.361497 106.205988,105.161913 C103.188274,102.1442 101.760249,98.7627443 101.760249,91.4811642 C101.760249,80.4611227 101.935385,58.4277755 102.467526,44.9221622 C101.403243,44.747027 91.0972141,44.747027 89.1370478,44.747027 C88.7708927,44.7499516 88.4607344,44.4778657 88.415953,44.1144475 C88.3711716,43.7510294 88.6060006,43.4117885 88.9619127,43.325738 C99.8000832,42.6117256 102.433846,42.2614553 103.71368,41.0153015 C107.081663,37.6473181 112.955426,26.0883992 114.376715,17.5606653 C114.558586,16.6715177 115.622869,16.6715177 115.622869,17.5606653 C115.090728,24.8489813 115.090728,36.5762994 114.908857,42.6184615 C122.197173,42.7935967 133.924491,42.9754678 137.474345,42.9754678 C138.181622,42.9754678 137.831351,44.5718919 137.117339,44.5718919 C121.301289,44.3967568 116.330146,44.753763 114.888649,44.9288981 C114.356507,52.9244906 113.999501,74.0754262 113.999501,87.7561746 C113.999501,99.6586279 114.356507,100.904782 115.42079,103.040083 C116.842079,105.882661 120.573805,108.017963 125.019543,108.017963 C130.88657,108.017963 136.389854,101.955593 139.589439,90.6054886 C139.764574,89.8914761 141.185863,89.8914761 141.010728,90.7806237 C137.811143,104.111102 130.704699,110.860541 121.476424,110.860541" />
                <path
                   id="path21"
                   d="M199.573222,50.6073181 C196.373638,44.2081497 191.220624,41.0085655 182.160748,41.0085655 C172.386861,41.0085655 166.87684,45.9864449 163.677256,52.3788773 C160.477672,58.7713098 158.699376,66.416632 158.699376,76.1905198 C158.699376,100.89131 167.759252,110.308191 181.08973,110.308191 C190.688482,110.308191 195.30262,107.290478 198.684075,100.534304 C201.708524,94.4719335 203.123077,85.6074012 203.123077,69.7913514 C203.123077,62.5030353 201.876923,55.2214553 199.566486,50.6005821 M207.205073,100.709439 C200.469106,107.445405 191.389023,111.904615 180.934802,111.904615 C170.628773,111.904615 160.673015,106.751601 154.455717,100.534304 C148.23842,94.3170062 143.974553,86.8535551 143.974553,76.1905198 C143.974553,65.1704782 149.127568,56.6562162 155.16973,50.5938462 C162.460927,43.3991294 172.301435,39.3796303 182.544699,39.4121414 C191.624296,39.4306795 200.322148,43.0669052 206.713347,49.5160915 C214.533805,57.3365489 218.440665,66.221289 218.440665,76.7024532 C218.440665,85.9441996 213.819792,94.1149272 207.245489,100.689231" />
                <path
                   id="path23"
                   d="M230.8079,107.472349 C231.521913,106.758337 231.872183,97.5233264 231.872183,93.966736 C231.872183,87.5675676 231.697048,76.554262 231.697048,68.9089397 C231.697048,52.3856133 230.8079,45.8045738 229.918753,44.9221622 C229.386611,44.3900208 228.497464,44.2081497 217.477422,44.0330146 C216.770146,44.0330146 216.770146,42.6117256 217.477422,42.6117256 C221.741289,42.6117256 238.08948,42.0795842 240.756923,42.0795842 C243.956507,42.0795842 244.124906,42.2547193 244.124906,44.5651559 C244.124906,49.1860291 243.7679,60.2060707 243.7679,65.5342204 L244.124906,65.5342204 C249.459792,53.0928898 255.677089,40.301289 265.093971,40.301289 C273.271435,40.301289 278.067443,45.2791684 278.067443,50.7824532 C278.067443,56.9997505 273.271435,60.3812058 269.539709,60.3812058 C265.275842,60.3812058 262.608399,57.5386279 262.608399,53.6452391 C262.608399,47.9600832 267.404407,46.3569231 267.404407,44.760499 C267.404407,44.0464865 266.340125,42.9822037 264.204823,42.9822037 C258.869938,42.9822037 253.009647,50.8026611 248.213638,60.3946778 C244.845655,67.1306445 244.124906,70.4986279 244.124906,75.4967152 L244.124906,94.155343 C244.306778,101.9758 244.306778,106.414802 245.014054,107.128815 C245.546195,107.660956 248.031767,107.660956 259.58395,108.193098 C260.291227,108.193098 260.291227,109.789522 259.58395,109.789522 L216.062869,109.789522 C215.530728,109.789522 215.355593,108.193098 216.062869,108.193098 C229.036341,108.011227 230.282495,108.011227 230.814636,107.479085" />
                <path
                   id="path25"
                   d="M302.316923,17.5539293 C298.228191,17.5539293 294.853472,13.2900624 294.853472,9.5583368 C294.768034,7.26946264 295.599707,5.04115957 297.163909,3.36798337 C298.791413,1.56470665 301.135865,0.577568878 303.563077,0.673596674 C307.119667,0.673596674 310.851393,4.04158004 310.851393,8.31218295 C310.851393,12.757921 306.23052,17.5539293 302.323659,17.5539293 M281.347859,109.607651 C280.815717,109.607651 280.640582,108.186362 281.347859,108.186362 C292.3679,108.011227 294.853472,108.011227 295.567484,107.297214 C296.281497,106.583202 296.456632,104.454636 296.631767,99.1197505 C296.806902,92.7205821 296.806902,89.0158004 296.806902,84.3679834 C296.806902,77.6320166 296.449896,60.3812058 296.09289,49.8933056 C295.917755,47.1989189 295.560748,45.4475676 294.846736,44.7402911 C294.132723,44.0330146 292.893306,44.0330146 280.62711,43.8511435 C280.094969,43.8511435 280.094969,42.4298545 280.62711,42.4298545 C293.957588,42.2547193 304.795759,41.8977131 307.281331,41.8977131 C308.170478,41.8977131 308.527484,42.2547193 308.527484,43.4941372 C308.527484,54.8644491 308.70262,72.9909356 308.70262,85.257131 C308.70262,102.851476 309.059626,106.583202 309.766902,107.290478 C310.299044,107.82262 312.791351,108.179626 323.447651,108.179626 C324.161663,108.179626 324.161663,109.77605 323.447651,109.77605 C319.715925,109.77605 283.995094,109.600915 281.334387,109.600915" />
              </g>
            </g>
          </g>
        </g>
      </g>
    </g>
  </g>
</svg>
